<svg id="Square" xmlns="http://www.w3.org/2000/svg" viewBox="0 0 180 180"><defs><style>.cls-1{fill:#39b54a;}.cls-2{fill:#fdb218;}.cls-3{fill:#29abe2;}.cls-4{fill:#00aeef;}</style></defs><g id="Current_Logo" data-name="Current Logo"><g id="California"><path id="path4610" class="cls-1" d="M75.69,96.84c-3.92,0-5.64-2.74-5.64-5s1.72-5,5.64-5a6,6,0,0,1,3.36,1l1.66-3.31A9.22,9.22,0,0,0,75.09,83c-4.85,0-9.27,4-9.27,8.89s4.44,8.84,9.27,8.84a9.22,9.22,0,0,0,5.62-1.58l-1.66-3.32a5.94,5.94,0,0,1-3.36,1.06Z"/><path id="path4612" class="cls-1" d="M81.45,95.06a5.34,5.34,0,0,0,5.29,5.62,4.72,4.72,0,0,0,3.48-1.52h0v1.2h3.63V89.73H90.22v1a4.83,4.83,0,0,0-3.48-1.33,5.36,5.36,0,0,0-5.29,5.64Zm3.9,0a2.48,2.48,0,1,1,5,0,2.4,2.4,0,0,1-2.47,2.49A2.37,2.37,0,0,1,85.35,95.06Z"/><path id="path4614" class="cls-1" d="M96.39,100.36h3.67V82.54H96.39Z"/><path id="path4616" class="cls-1" d="M104.43,83.16a2.18,2.18,0,1,0,2.18,2.18A2.18,2.18,0,0,0,104.43,83.16Zm-1.89,6.57h3.67v10.63h-3.67Z"/><path id="path4618" class="cls-1" d="M109.44,89.73h-1.53v2.8h1.53v7.83h3.67V92.53h2.44v-2.8h-2.44V87.57c0-1.47.21-2.09,1.14-2.09a2.45,2.45,0,0,1,1.1.29l1.28-2.59a5.08,5.08,0,0,0-3-1c-2.66,0-4.15,2.13-4.17,5.24Z"/><path id="path4620" class="cls-1" d="M115.82,95.06c0,3.27,2.57,5.62,6.41,5.62,3.67,0,6.34-2.35,6.34-5.62s-2.82-5.64-6.34-5.64-6.41,2.32-6.41,5.64Zm3.9,0a2.48,2.48,0,1,1,5,0,2.48,2.48,0,1,1-5,0Z"/><path id="path4622" class="cls-1" d="M130.24,100.36h3.67V94.77a2.2,2.2,0,0,1,2.17-2.16,3.12,3.12,0,0,1,1.91.58l1.53-3.11a4.4,4.4,0,0,0-2.32-.66A4.16,4.16,0,0,0,134,91.26h0V89.73h-3.67Z"/><path id="path4624" class="cls-1" d="M140.56,100.36h3.67v-6a2.27,2.27,0,0,1,2.18-2.07,2,2,0,0,1,1.9,2.07v6H152v-7c0-3-2.71-3.94-4.66-3.94a4.41,4.41,0,0,0-3,1.43h0V89.73h-3.67Z"/><path id="path4626" class="cls-1" d="M156.13,83.16a2.18,2.18,0,1,0,2.18,2.18A2.17,2.17,0,0,0,156.13,83.16Zm-1.88,6.57h3.66v10.63h-3.66Z"/><path id="path4628" class="cls-1" d="M159.75,95.06a5.34,5.34,0,0,0,5.29,5.62,4.7,4.7,0,0,0,3.48-1.52h0v1.2h3.63V89.73h-3.67v1A4.83,4.83,0,0,0,165,89.42,5.36,5.36,0,0,0,159.75,95.06Zm3.9,0a2.48,2.48,0,1,1,5,0,2.48,2.48,0,1,1-5,0Z"/></g><g id="Ground"><path id="path4631" class="cls-1" d="M82.05,68.63h-7.9v3h3.94a3.46,3.46,0,0,1-3.71,3.3C72,74.93,70,72.56,70,69.66s2-5.35,4.35-5.35a4.23,4.23,0,0,1,3.82,2.2l2.55-2.8a8.08,8.08,0,0,0-6.6-2.92c-4.8,0-8.33,4-8.33,8.87a8.6,8.6,0,0,0,8.33,8.85,7.73,7.73,0,0,0,7.9-6.17Z"/><path id="path4633" class="cls-1" d="M83.76,78.2h3.66V72.61a2.21,2.21,0,0,1,2.18-2.16,3.12,3.12,0,0,1,1.91.58L93,67.92a4.4,4.4,0,0,0-2.32-.66,4.16,4.16,0,0,0-3.25,1.84h0V67.57H83.76Z"/><path id="path4635" class="cls-1" d="M93.19,72.9c0,3.27,2.57,5.61,6.41,5.61,3.67,0,6.34-2.34,6.34-5.61s-2.82-5.64-6.34-5.64-6.41,2.32-6.41,5.64Zm3.9,0a2.48,2.48,0,1,1,5,0,2.48,2.48,0,1,1-5,0Z"/><path id="path4637" class="cls-1" d="M111.11,67.57h-3.67v6c0,3.56,1.78,5,5.76,5s5.76-1.43,5.76-5v-6h-3.67v5.06c0,2.09-.56,2.9-2.09,2.9s-2.09-.81-2.09-2.9Z"/><path id="path4639" class="cls-1" d="M121.25,78.2h3.67v-6a2.25,2.25,0,0,1,2.17-2.07A2,2,0,0,1,129,72.19v6h3.67v-7c0-3-2.72-3.94-4.66-3.94a4.39,4.39,0,0,0-3,1.43h0V67.57h-3.67Z"/><path id="path4641" class="cls-1" d="M134.17,72.9a5.32,5.32,0,0,0,5.28,5.61A4.69,4.69,0,0,0,142.93,77h0v1.2h3.62V60.37h-3.67v8.21a4.83,4.83,0,0,0-3.48-1.32,5.35,5.35,0,0,0-5.28,5.64Zm3.89,0a2.48,2.48,0,1,1,5,0,2.48,2.48,0,1,1-5,0Z"/></g><g id="Common"><path id="path4644" class="cls-1" d="M75.69,52.52c-3.92,0-5.64-2.74-5.64-5s1.72-5,5.64-5a5.94,5.94,0,0,1,3.36,1.06l1.66-3.32a9.26,9.26,0,0,0-5.62-1.57c-4.85,0-9.27,4-9.27,8.89s4.44,8.83,9.27,8.83a9.26,9.26,0,0,0,5.62-1.57l-1.66-3.32a5.94,5.94,0,0,1-3.36,1.06Z"/><path id="path4646" class="cls-1" d="M81.45,50.73c0,3.28,2.57,5.62,6.41,5.62,3.66,0,6.34-2.34,6.34-5.62s-2.82-5.64-6.34-5.64S81.45,47.42,81.45,50.73Zm3.9,0a2.48,2.48,0,1,1,5,0,2.4,2.4,0,0,1-2.47,2.49A2.37,2.37,0,0,1,85.35,50.73Z"/><path id="path4648" class="cls-1" d="M95.86,56h3.67V49.82a1.65,1.65,0,0,1,1.7-1.78,1.79,1.79,0,0,1,1.87,2v6h3.67V49.7a1.63,1.63,0,0,1,1.7-1.66,1.79,1.79,0,0,1,1.86,2v6H114V49c0-3-2.2-3.94-4.15-3.94A4.7,4.7,0,0,0,106.33,47a4,4,0,0,0-3.71-1.95,4.45,4.45,0,0,0-3.05,1.43h0V45.41H95.86Z"/><path id="path4650" class="cls-1" d="M116.27,56h3.67V49.82a1.64,1.64,0,0,1,1.7-1.78,1.79,1.79,0,0,1,1.86,2v6h3.67V49.7a1.63,1.63,0,0,1,1.7-1.66,1.79,1.79,0,0,1,1.87,2v6h3.67V49c0-3-2.2-3.94-4.15-3.94A4.7,4.7,0,0,0,126.74,47,4,4,0,0,0,123,45.09a4.43,4.43,0,0,0-3,1.43h0V45.41h-3.67Z"/><path id="path4652" class="cls-1" d="M135.91,50.73c0,3.28,2.57,5.62,6.4,5.62,3.67,0,6.35-2.34,6.35-5.62s-2.82-5.64-6.35-5.64-6.4,2.33-6.4,5.64Zm3.89,0a2.48,2.48,0,1,1,5,0,2.48,2.48,0,1,1-5,0Z"/><path id="path4654" class="cls-1" d="M150.32,56H154V50A2.26,2.26,0,0,1,156.16,48,2,2,0,0,1,158.07,50v6h3.67V49c0-3-2.72-3.94-4.66-3.94A4.45,4.45,0,0,0,154,46.52h0V45.41h-3.67Z"/></g><g id="California-2" data-name="California"><g id="Poppies"><g id="Poppy_2" data-name="Poppy 2"><path id="Petals" class="cls-2" d="M83,158.61a9.67,9.67,0,0,1-.43-1.35l0-.11h-1a4.39,4.39,0,0,1-1.47-.09c-.24-.06-.74-.22-1.11-.35a8.44,8.44,0,0,0-1-.31,4.67,4.67,0,0,1-.64-.18,2.8,2.8,0,0,0-1.23-.14l-.92,0-.45-.23-.75-.37a1.93,1.93,0,0,1-.34-.21.2.2,0,0,0-.11-.07,1.2,1.2,0,0,1-.24-.15,1.58,1.58,0,0,0-.72-.34,1.37,1.37,0,0,1-.47-.19c-.42-1.06-1.55-2-.13-2.87.07-.18.13-.23.34-.3a.55.55,0,0,0,.22-.12,1.05,1.05,0,0,1,.74-.26.87.87,0,0,0,.48-.11,1.32,1.32,0,0,1,.64-.14c.48,0,.71-.1.76-.23A1.09,1.09,0,0,0,75,150c0-.11,0-.14.06-.29a1.43,1.43,0,0,0,.12-.21s-.08-.19-.16-.38-.19-.35-.31-.41-.23-.23-.1-.45a1.88,1.88,0,0,1,.69-.73l.43-.19c.22-.12.27-.16.29-.29a.43.43,0,0,1,.08-.19.21.21,0,0,0,.05-.13.24.24,0,0,1,.12-.16,1.11,1.11,0,0,0,.25-.32c.09-.14.16-.22.22-.22a.44.44,0,0,0,.2-.13.35.35,0,0,1,.19-.14.85.85,0,0,0,.21-.05c.13,0,.14,0,.14-.33v-.29l.16-.06c.25-.11.56-.13.64-.05a1.79,1.79,0,0,1,2-.41c.25.09.84.12.84,0s.47,0,.7,0l.51.16a6.07,6.07,0,0,1,1.37.69,3,3,0,0,1,.59.73c.06.09.13.17.16.17a1.61,1.61,0,0,0,.36-.16c.27-.13.33-.15.51-.13s.21,0,.45-.21.42-.31.66-.24a2.36,2.36,0,0,0,.34,0,.46.46,0,0,1,.41.17.68.68,0,0,0,.52.2l.45,0a.81.81,0,0,1,.57.18,2.21,2.21,0,0,0,.5.36,7.54,7.54,0,0,1,1.25.83,1.74,1.74,0,0,1,.23.39,4.53,4.53,0,0,0,.23.44,1.38,1.38,0,0,1,.16.36.41.41,0,0,0,.11.24.31.31,0,0,1,.09.2.3.3,0,0,0,.08.19,1.33,1.33,0,0,1,.21.69c0,.09.11.29.38.54a1,1,0,0,1,.23.39,3.53,3.53,0,0,0,.16.41,2.89,2.89,0,0,1,.18.51,3.31,3.31,0,0,0,.17.55,2.89,2.89,0,0,1,.14.62c0,.22.06.53.08.68,1,5.38-3.17-1.8-8.62,3.06l-.45.16a3.29,3.29,0,0,1-.54.16.79.79,0,0,0-.39.19.86.86,0,0,0,.17.5c.06,0,.08.1.07.26a.7.7,0,0,0,.09.41Z"/><path id="Stem" class="cls-3" d="M86.18,171.29c-.06-.45-.13-.91-.15-1s-.09-.43-.18-1a6.14,6.14,0,0,0-.24-1,15.15,15.15,0,0,1-.36-2.22l-.15-1.69a8.13,8.13,0,0,0-.69-2.14c0-.08-.1-.25-.15-.38a5.4,5.4,0,0,0-.26-.64c-.1-.22-.23-.55-.3-.73s-.15-.37-.18-.42a4.42,4.42,0,0,1-.18-.46,9.66,9.66,0,0,0-.39-1,3,3,0,0,1-.12-.33c-.15-.45-.29-.91-.31-1s0-.11-.54-.12a3.49,3.49,0,0,1-.54,0s0-.06,0-.09.06-.05-.08,0-.19,0-.08.13,0,0-.41.06a5.73,5.73,0,0,1-2.1-.49,4.53,4.53,0,0,0-.69-.22.34.34,0,0,1-.25-.16.51.51,0,0,0-.21-.15.26.26,0,0,1-.16-.09,1.58,1.58,0,0,0-.29-.2c-.11-.06-.34-.19-.5-.3a1.62,1.62,0,0,0-.78-.36,6.1,6.1,0,0,1-1.24-.54c0-.06,0-.06.09,0a4,4,0,0,0,.47.05,2.27,2.27,0,0,1,.55.08,3.84,3.84,0,0,0,.51.1l.37.07a13.17,13.17,0,0,0,2.3.34l.84.09a4.92,4.92,0,0,0,1.26.06c.07,0,0-.08-.24-.36a3.47,3.47,0,0,0-.43-.37c-.09,0-.1-.06-.08-.14s0-.12-.14-.21c-.3-.19-.34-.21-.43-.21a.34.34,0,0,1-.18-.07c-.08-.06-.08-.06,0-.07a.83.83,0,0,1,.24.07c.21.08.59.13.59.08a1.59,1.59,0,0,0-.24-.27c-.2-.18-.23-.23-.18-.27s.11,0,.25,0c.32.08.33.07.36-.15a.51.51,0,0,0,0-.29.16.16,0,0,1,0-.19c0-.07.07-.12.09-.12a7.19,7.19,0,0,1,.54.5c.6.59.7.67.78.6a.16.16,0,0,0,.06-.09.3.3,0,0,1,.06-.11.17.17,0,0,0,0-.15.21.21,0,0,1,0-.18c.06-.1.06-.12,0-.19a.44.44,0,0,1-.06-.17c0-.09,0-.09.09,0a3.33,3.33,0,0,1,.62,1.35.38.38,0,0,1-.2.15.54.54,0,0,0-.26.2c0,.07-.1.13-.14.13s-.13.14-.09.26.12.12.27,0a.22.22,0,0,1,.26,0,.43.43,0,0,0,.25,0,.32.32,0,0,1,.16,0,.15.15,0,0,0,.12,0c.06,0,.08,0,.13,0s.38.08.64-.11a.59.59,0,0,1,.28-.15l.16,0c.11-.06.31,0,.31.08s.27.28.44.33.11.08,0,.19a.76.76,0,0,0-.06.16.59.59,0,0,1-.23.16c-.16.07-.2.11-.2.19a.29.29,0,0,1-.06.17.24.24,0,0,0-.07.17c0,.11,0,.13-.18.15H84a.43.43,0,0,0-.42.11.6.6,0,0,1-.26.14c-.11,0-.13.06,0,.15s.11.16,0,.16a.36.36,0,0,0-.21.69c.06,0,.08.1.07.26a.7.7,0,0,0,.09.41,2.42,2.42,0,0,1,.25.66,5.22,5.22,0,0,0,.34.79,1.91,1.91,0,0,1,.11.26,2.52,2.52,0,0,0,.13.3,2.36,2.36,0,0,1,.13.31,14.21,14.21,0,0,0,.66,1.6.93.93,0,0,1,.09.24,4.23,4.23,0,0,0,.27.78.6.6,0,0,1,.06.2c0,.09.07.26.11.38a5.62,5.62,0,0,1,.23.79,3.53,3.53,0,0,1,.05.66,12.29,12.29,0,0,0,.33,2.83,2,2,0,0,1,.06.31,1.36,1.36,0,0,0,.06.27,2.4,2.4,0,0,1,.11.49,4.21,4.21,0,0,0,.24.93.78.78,0,0,1,0,.28,5.81,5.81,0,0,0,.15,1.13Z"/><path id="Leaf" class="cls-3" d="M85.45,164.6c.17-.69,1.91-.6,1.34.16C86.34,164.92,85.9,164.65,85.45,164.6Z"/></g><g id="Poppy_1" data-name="Poppy 1"><path id="Petals-2" data-name="Petals" class="cls-2" d="M62.42,145.92l-.67-.07a8.29,8.29,0,0,1-2.06-.39c-.12-.06-.23,0-.55.11a7.59,7.59,0,0,1-2.48.62c-1.89.16-2.73-.14-3.5-1.24a7.58,7.58,0,0,1-1-2.24,5.05,5.05,0,0,1,.15-2.07,3.59,3.59,0,0,0,.14-.55.43.43,0,0,1,.14-.25c.15-.13.16-.13.47,0s.33.14.33,0,.06-.11.16-.11.14,0-.08-.24-.23-.26-.14-.4c.19-.32.44-.25,1,.27a1.17,1.17,0,0,0,.71.37c.13,0,.1-.05-.16-.27a1.18,1.18,0,0,0-.47-.27c-.24,0-.22-.16,0-.21a.58.58,0,0,1,.41.07c.1.07.18.11.19.09l.1-.16c.22-.42.49-.32,1,.36.31.4.55.62.55.49a3.46,3.46,0,0,0-.64-.77.74.74,0,0,1-.23-.3,1.23,1.23,0,0,1,.32-.4,1.44,1.44,0,0,0,.37-.54,1,1,0,0,1,.13-.32,1.37,1.37,0,0,0,.12-.4c0-.36.33-.59.83-.66a.62.62,0,0,0,.47-.25,1.55,1.55,0,0,1,1.17-.52,2.55,2.55,0,0,0,.78-.15,6.72,6.72,0,0,1,1.32-.32,10,10,0,0,1,1.41.08c.64.07,1.45.13,1.81.14s1,0,1.37.07c.69.06.73.07,1,.32a1.86,1.86,0,0,1,.38.49.39.39,0,0,0,.37.28l.48.08a1.16,1.16,0,0,0,.44,0c.2-.07.31-.05.74.1.27.11.71.29,1,.42l.45.24.15-.18.25-.31a.37.37,0,0,1,.22-.13c.1,0,.11.06.07.36a3.58,3.58,0,0,1-.14.64.5.5,0,0,0,0,.41c.05.09,0,.17-.1.3a.7.7,0,0,0-.17.54.76.76,0,0,1-.17.53c-.17.19-.32.54-.26.64s-.06.16-.18.27c.2.9-.43.13-1,1.09a25.45,25.45,0,0,1-2.82,2.83,5.73,5.73,0,0,1-2.87,1.27,1.7,1.7,0,0,0-.52.12l-.13.55Z"/><path id="Stem-2" data-name="Stem" class="cls-3" d="M61.13,158.64c0-1.56.24-4.16.35-4.71,0-.18.15-.75.25-1.27.55-2.71.94-6.58.69-6.74a3.54,3.54,0,0,0-.71-.08,6.51,6.51,0,0,1-1-.12l-.4-.1.2-.09c.11-.06.2-.14.2-.2a2.47,2.47,0,0,0-1-.51c-.47-.09-.83-.38-.47-.38a2.58,2.58,0,0,0,.56-.14,3.45,3.45,0,0,1,1-.15,4.55,4.55,0,0,0,.85-.09.92.92,0,0,1,.58,0,8.89,8.89,0,0,0,2.88,0,1,1,0,0,0,.58-.76.85.85,0,0,1,.15-.39.24.24,0,0,0,.1-.17,1,1,0,0,1,.19-.33,3.68,3.68,0,0,0,.29-.49c.16-.39,1.05-1.15,1.05-.91a6.24,6.24,0,0,1-.76,1.1.44.44,0,0,0-.11.27c0,.22.16.23.53,0,.15-.09.29-.14.31-.12s-.22.71-.44,1c-.47.54-.67,1.13-.36,1s.08.09-.32.38a5.54,5.54,0,0,1-2.59,1.06,1.7,1.7,0,0,0-.52.12,1.64,1.64,0,0,0-.13.55c-.14,1.52-.67,5.32-.8,5.74,0,.15-.31,1.74-.4,2.32,0,1.42-.75,5.62-.71,4.2Z"/></g></g><path id="California_Clipped_Skyline" data-name="California Clipped Skyline" class="cls-4" d="M106.31,150.46a11.05,11.05,0,0,0-2.1-2.81h0a16.32,16.32,0,0,1-1.5-2.09c-.77-1.34-.49-1.73-1.19-2.9a6.84,6.84,0,0,0-1.55-1.76c-3-2.59-43.25-38.58-43.25-38.58s-.4-27.7-.51-32.35a5.1,5.1,0,0,0-.76-2.78,4.9,4.9,0,0,0-1.17-1.3,5.57,5.57,0,0,0-2.75-1.07c-.54-.08-12.92-.14-18.39-.14h-18a5,5,0,0,0-4.89,3.94l-.6,2.68a5.08,5.08,0,0,0,.28,3s.8,1.78.89,2a12.57,12.57,0,0,0-.49,1.88,20.26,20.26,0,0,0,0,2.66,10.24,10.24,0,0,0-2,3.06,7.85,7.85,0,0,0-.48,3.73,11.42,11.42,0,0,0,2,5.37c.56.89,1.36,1.91,2,2.72.49.63.91,1.15,1.2,1.5a14.88,14.88,0,0,0,.05,2.37,14.29,14.29,0,0,0,.86,3.5s-.08,1.21-.09,1.32a8,8,0,0,0,1.44,4.13,28.45,28.45,0,0,0,3.09,3.39c.72.73,1.33,1.32,1.75,1.72.15.34.33.68.52,1A15.26,15.26,0,0,0,24,118.79a22.33,22.33,0,0,1,.61,4,10.58,10.58,0,0,0,.26,2.51,6.38,6.38,0,0,0,1.7,2.76h0a7.31,7.31,0,0,0,1.14.89,6.06,6.06,0,0,0,.87.45,1.83,1.83,0,0,0-.55,1.27,1.81,1.81,0,0,0,.24.93,16.39,16.39,0,0,0,1,2c1.16,1.94,3.77,5.34,4.16,6a2,2,0,0,1,.27.58,1.56,1.56,0,0,1,.08.36,4.81,4.81,0,0,0,1.61,2.29,11.08,11.08,0,0,0,2.17,1.59,4.79,4.79,0,0,0,.42,1.22A5.44,5.44,0,0,0,40.41,148c-.16.4-1.2,3.13.05,5.24a7.43,7.43,0,0,0,1.44,1.63,9.43,9.43,0,0,0,1.93,1.14,7.5,7.5,0,0,0,3.21.89,6.2,6.2,0,0,0,2.55-.49,9.73,9.73,0,0,0,1.45.43,10.84,10.84,0,0,0,1.52.23c.25.24.59.57,1,.93a9.32,9.32,0,0,0,1.85,1.28,9.87,9.87,0,0,0,2.2.73c.7.18,1.29.29,1.7.36a4.92,4.92,0,0,0,.53,1,5.89,5.89,0,0,0,2.63,2.08,6.66,6.66,0,0,0,3.17.54c.46.37.93.77,1.42,1.21s1,1,1.48,1.45c0,.65.1,1.18.16,1.56a5,5,0,0,0,.49,1.9A3,3,0,0,0,70,171a5.23,5.23,0,0,0,.69,2.07,5.86,5.86,0,0,0,3.21,2.39,9.64,9.64,0,0,0,4.27.38h0s15-1.47,16.84-1.68l1.52-.18c.32,0,3.09.5,4.59-1.24a3.44,3.44,0,0,0,.61-1.06,6.71,6.71,0,0,0,2.45-5.52,6.33,6.33,0,0,0-2-3.94,15.54,15.54,0,0,0,1.25-4.18,6.75,6.75,0,0,0,1.4-.79,6.48,6.48,0,0,0,1.67-2.52A6.22,6.22,0,0,0,106.31,150.46ZM14,90.23h5.69L19.82,102l4.11-.11c.33-14.87,0-17.21.51-17.49,1.2-.35.54-1.52,1.22-1.71.12-.3-.1-.46,2.36-.53.11-9.06,0-7.81.21-12.44a.71.71,0,0,1,.45,0c0,2.43,0,9.28.55,11.85a9.26,9.26,0,0,0,1.19.73,8.61,8.61,0,0,0,1.36.55,1.29,1.29,0,0,0,.27.69,2.55,2.55,0,0,0,1,.58c.45.35.1,3,.26,6,0,.31,0,.55.05.78,1.4.46,2.38.42,3,0,1.36-.21,5-1.24,6.57.16.42,16.73-.21,14,.82,20.38,0,.79,1.08,1.29,1.76,1.46.38.22,0,1.38.31,2.21.1.27.71.71.84,1a26,26,0,0,0,.22-3c.3-3.46.43,1.23.56.77a9.79,9.79,0,0,0,.32-2.68c0-1.6.1-1.88.75-2.09,1-.31,3.77-.25,4.07.1s.83,5,.88,8.88c.05-.21.21-.81.44-.81.5.32.37.84.4,3.54H56.6l.19,10.7a5.77,5.77,0,0,0,3.52-.1,4.76,4.76,0,0,0,1.35-2.84c.18-1.08.24-1.12,1.86-1.12h1.67l.1,1.74.09-5.93a4.74,4.74,0,0,1,2.21-1.1,4.53,4.53,0,0,1,2.09,1v6.79l4.47,0v8.88s.1.08,1.14-.42,4.66.28,5,.28.69-.28.77-1.12.27-1.13,1-1.22a2.34,2.34,0,0,0,1.45-.84,1.56,1.56,0,0,1,.33-.35,2.88,2.88,0,0,1,.36-.29,4.75,4.75,0,0,1,.88-.46l5.39,4.79c6.65,5.91,6.87,6.13,6.87,6.68,0,.23,1.28,2.67,1.58,3.24s2.86,3.37,2.86,3.74c0,.54-.62,1.12-1.49,1.38a2.06,2.06,0,0,0-1.13.92c-.51.69-.55.81-.65,2.23a7.82,7.82,0,0,1-1.22,4c-.49.92-.61,1.28-.52,1.56a9.58,9.58,0,0,1,.2,1.19c.08.74.13.82.47.85A2.11,2.11,0,0,1,99,166.2c.4.83.39,1.08-.06,1.37a1.74,1.74,0,0,0-.55.84c-.21.7-.38.79-1.09.55a1.54,1.54,0,0,0-1.08,0c-.3.09-2.7.37-5.35.61s-6,.62-7.54.82h0c-1.52.21-3.9.41-5.34.46-2.54.09-2.62.08-2.93-.23a.76.76,0,0,1-.23-.81c.08-.44,0-.51-.35-.68-.63-.26-.9-.92-1-2.4-.07-1.86-.56-2.78-2.4-4.54-2.36-2.26-3.84-3.12-5.35-3.12a4.19,4.19,0,0,1-1.29-.18,1.65,1.65,0,0,1-.68-1.54,1.4,1.4,0,0,0-.33-.87c-.29-.33-.51-.4-1.75-.52a12.37,12.37,0,0,1-4-1,9.82,9.82,0,0,1-1.56-1.21c-1.35-1.24-1.76-1.44-2.93-1.44a3.75,3.75,0,0,1-1.81-.4,3.67,3.67,0,0,0-3.09-.21,2.22,2.22,0,0,1-2.29,0c-1.51-.77-1.89-1.34-1.42-2.16.66-.71.31-3.58-.19-4.12,0-.32-1.32-1.23-1.66-1.59-.78-2.41-2-3-2-3-3.4-1.69-4.46-5.12-6.13-7.9a12.89,12.89,0,0,1-1.87-3.22c-.19-.78,1.8-2.1,1.42-3s-4-1-4.18-2a19.38,19.38,0,0,0-.78-4.41,5.33,5.33,0,0,1-.18-2.69c.6-.78,2.13,1.11,3.1.9.36-.32-1.09-3.48-2.26-3a7.39,7.39,0,0,1-2.63,0,8.52,8.52,0,0,1-2.43-3.28c-.71-1.39-.93-1.66-3-3.72-2.63-2.63-3.24-3.46-3.11-4.21a3.46,3.46,0,0,0-.22-2.82,6.89,6.89,0,0,1-.59-3.1c-.15-2.83-.43-3.48-2.86-6.51"/></g></g></svg>