<svg xmlns="http://www.w3.org/2000/svg" viewBox="0 0 522 261"><defs><style>.cls-1{fill:none;}.cls-2{fill:#39b54a;}.cls-3{fill:#fdb218;}.cls-4{fill:#29abe2;}.cls-5{fill:#00aeef;}</style></defs><g id="Regular"><rect id="Background" class="cls-1" width="522" height="261"/><g id="Text"><g id="California"><path id="path4610" class="cls-2" d="M64.7,221.05c-11.37,0-16.36-7.94-16.36-14.62s5-14.55,16.36-14.55A17.22,17.22,0,0,1,74.44,195l4.81-9.62s-5.53-4.57-16.3-4.57c-14.07,0-26.88,11.54-26.88,25.8S48.94,232.17,63,232.17c10.77,0,16.3-4.57,16.3-4.57L74.44,218a17.22,17.22,0,0,1-9.74,3.07Z"/><path id="path4612" class="cls-2" d="M81.41,215.88c0,9,6.31,16.29,15.33,16.29a13.63,13.63,0,0,0,10.1-4.39H107v3.49h10.53V200.42H106.84v3a14,14,0,0,0-10.1-3.85c-9,0-15.33,7.34-15.33,16.36Zm11.3,0a7.19,7.19,0,1,1,14.37,0,7.19,7.19,0,1,1-14.37,0Z"/><path id="path4614" class="cls-2" d="M124.74,231.27h10.64V179.56H124.74Z"/><path id="path4616" class="cls-2" d="M148.06,181.36a6.32,6.32,0,1,0,6.31,6.31A6.31,6.31,0,0,0,148.06,181.36Zm-5.47,19.06h10.64v30.85H142.59Z"/><path id="path4618" class="cls-2" d="M162.6,200.42h-4.45v8.12h4.45v22.73h10.64V208.54h7.09v-8.12h-7.09v-6.25c0-4.27.6-6.07,3.31-6.07a7,7,0,0,1,3.18.84l3.73-7.52a14.72,14.72,0,0,0-8.78-2.77c-7.69,0-12,6.2-12.08,15.22Z"/><path id="path4620" class="cls-2" d="M181.12,215.88c0,9.5,7.45,16.29,18.58,16.29,10.64,0,18.4-6.79,18.4-16.29s-8.18-16.36-18.4-16.36c-10.41,0-18.58,6.73-18.58,16.36Zm11.3,0a7.19,7.19,0,1,1,14.37,0,7.19,7.19,0,1,1-14.37,0Z"/><path id="path4622" class="cls-2" d="M222.92,231.27h10.64V215c0-.78.78-6.25,6.32-6.25a9,9,0,0,1,5.53,1.68l4.45-9a12.82,12.82,0,0,0-6.74-1.92c-6.07,0-9.44,5.35-9.44,5.35h-.12v-4.45H222.92Z"/><path id="path4624" class="cls-2" d="M252.87,231.27h10.64V213.83c0-3.07,3.13-6,6.31-6,3.43,0,5.54,2.94,5.54,6v17.44H286V210.94c0-8.59-7.88-11.42-13.53-11.42a12.76,12.76,0,0,0-8.84,4.15h-.12v-3.25H252.87Z"/><path id="path4626" class="cls-2" d="M298,181.36a6.32,6.32,0,1,0,6.31,6.31A6.32,6.32,0,0,0,298,181.36Zm-5.48,19.06h10.65v30.85H292.56Z"/><path id="path4628" class="cls-2" d="M308.54,215.88c0,9,6.32,16.29,15.34,16.29a13.67,13.67,0,0,0,10.1-4.39h.12v3.49h10.52V200.42H334v3a14,14,0,0,0-10.1-3.85C314.86,199.52,308.54,206.86,308.54,215.88Zm11.31,0a7.19,7.19,0,1,1,14.37,0,7.19,7.19,0,1,1-14.37,0Z"/></g><g id="Ground"><path id="path4631" class="cls-2" d="M110.83,139.2H87.92v8.72H99.35c0,6.08-5.36,9.56-10.77,9.56-7,0-12.62-6.85-12.62-15.27,0-8.6,5.65-15.51,12.62-15.51,4.39,0,8.18,1.74,11.07,6.37L107,125c-4.33-5.23-10.4-8.48-19.12-8.48-14,0-24.17,11.49-24.17,25.74s10.82,25.68,24.17,25.68c9.74,0,20.21-5.36,22.91-17.92Z"/><path id="path4633" class="cls-2" d="M115.77,167h10.64V150.75c0-.78.78-6.26,6.32-6.26a9,9,0,0,1,5.53,1.69l4.45-9a12.78,12.78,0,0,0-6.74-1.93c-6.07,0-9.44,5.36-9.44,5.36h-.12v-4.45H115.77Z"/><path id="path4635" class="cls-2" d="M143.14,151.59c0,9.5,7.46,16.3,18.58,16.3,10.64,0,18.4-6.8,18.4-16.3s-8.18-16.36-18.4-16.36c-10.4,0-18.58,6.74-18.58,16.36Zm11.3,0a7.19,7.19,0,1,1,14.38,0,7.19,7.19,0,1,1-14.38,0Z"/><path id="path4637" class="cls-2" d="M195.1,136.14H184.46v17.25c0,10.35,5.17,14.5,16.72,14.5s16.71-4.15,16.71-14.5V136.14H207.25v14.67c0,6.07-1.62,8.42-6.07,8.42s-6.08-2.35-6.08-8.42Z"/><path id="path4639" class="cls-2" d="M224.52,167h10.64V149.55c0-3.07,3.13-6,6.32-6,3.43,0,5.53,2.95,5.53,6V167h10.64V146.66c0-8.6-7.87-11.43-13.53-11.43a12.82,12.82,0,0,0-8.84,4.15h-.12v-3.24H224.52Z"/><path id="path4641" class="cls-2" d="M262,151.59c0,9,6.32,16.3,15.34,16.3a13.7,13.7,0,0,0,10.1-4.39h.12V167h10.52V115.27H287.43v23.81a14.07,14.07,0,0,0-10.1-3.85c-9,0-15.34,7.34-15.34,16.36Zm11.31,0a7.19,7.19,0,1,1,14.37,0,7.19,7.19,0,1,1-14.37,0Z"/></g><g id="Common"><path id="path4644" class="cls-2" d="M43.94,92.48c-11.36,0-16.35-7.94-16.35-14.62s5-14.55,16.35-14.55a17.22,17.22,0,0,1,9.74,3.07l4.81-9.62S53,52.19,42.2,52.19C28.13,52.19,15.32,63.73,15.32,78S28.19,103.6,42.2,103.6C53,103.6,58.49,99,58.49,99l-4.81-9.62a17.22,17.22,0,0,1-9.74,3.07Z"/><path id="path4646" class="cls-2" d="M60.65,87.3c0,9.5,7.46,16.3,18.58,16.3,10.65,0,18.4-6.8,18.4-16.3S89.45,71,79.23,71C68.83,71,60.65,77.68,60.65,87.3ZM72,87.3a7.19,7.19,0,1,1,14.37,0A7.19,7.19,0,1,1,72,87.3Z"/><path id="path4648" class="cls-2" d="M102.45,102.7H113.1v-18c0-2.47,1.38-5.17,4.93-5.17,3.79,0,5.41,2.7,5.41,5.77V102.7h10.64V84.3A4.73,4.73,0,0,1,139,79.49c3.79,0,5.42,2.7,5.42,5.77V102.7h10.64V82.37c0-8.6-6.37-11.42-12-11.42-3.36,0-7,1.74-10.22,5.65-2.16-4.15-6.67-5.65-10.76-5.65a12.74,12.74,0,0,0-8.84,4.15h-.12V71.85H102.45Z"/><path id="path4650" class="cls-2" d="M161.65,102.7h10.64v-18c0-2.47,1.38-5.17,4.93-5.17,3.79,0,5.41,2.7,5.41,5.77V102.7h10.64V84.3a4.74,4.74,0,0,1,4.94-4.81c3.78,0,5.41,2.7,5.41,5.77V102.7h10.64V82.37c0-8.6-6.37-11.42-12-11.42-3.36,0-7,1.74-10.22,5.65-2.16-4.15-6.67-5.65-10.76-5.65a12.74,12.74,0,0,0-8.84,4.15h-.12V71.85H161.65Z"/><path id="path4652" class="cls-2" d="M218.61,87.3c0,9.5,7.46,16.3,18.58,16.3,10.65,0,18.4-6.8,18.4-16.3S247.42,71,237.19,71c-10.4,0-18.58,6.73-18.58,16.35Zm11.31,0a7.19,7.19,0,1,1,14.37,0,7.19,7.19,0,1,1-14.37,0Z"/><path id="path4654" class="cls-2" d="M260.42,102.7h10.64V85.26c0-3.07,3.13-6,6.31-6,3.43,0,5.53,2.94,5.53,6V102.7h10.65V82.37c0-8.6-7.88-11.42-13.53-11.42a12.74,12.74,0,0,0-8.84,4.15h-.12V71.85H260.42Z"/></g></g><g id="California-2" data-name="California"><g id="Poppies"><g id="Poppy_2" data-name="Poppy 2"><path id="Petals" class="cls-3" d="M456,211.72a22.9,22.9,0,0,1-.93-2.87l-.05-.24-2.18,0a9.35,9.35,0,0,1-3.12-.2c-.52-.13-1.57-.47-2.35-.75a17.52,17.52,0,0,0-2.11-.64,11.05,11.05,0,0,1-1.36-.39c-.62-.25-.75-.26-2.6-.29l-1.95,0-1-.48-1.57-.8a3.73,3.73,0,0,1-.74-.45.41.41,0,0,0-.21-.15,2.07,2.07,0,0,1-.53-.31,3.27,3.27,0,0,0-1.53-.71,3.49,3.49,0,0,1-1-.4c-.9-2.25-3.29-4.26-.29-6.1a1,1,0,0,1,.74-.63,1.14,1.14,0,0,0,.46-.25,2.2,2.2,0,0,1,1.56-.56,1.75,1.75,0,0,0,1-.23,2.79,2.79,0,0,1,1.36-.29c1-.07,1.51-.22,1.61-.49a2.34,2.34,0,0,0-.22-1.1c-.1-.24-.08-.31.13-.63a1.51,1.51,0,0,0,.25-.44,5.87,5.87,0,0,0-.34-.8c-.26-.57-.4-.75-.65-.87-.42-.2-.49-.49-.22-1a4.24,4.24,0,0,1,1.47-1.55,9.21,9.21,0,0,0,.91-.4c.48-.25.57-.34.62-.61a1,1,0,0,1,.17-.41.43.43,0,0,0,.1-.27c0-.09.12-.24.26-.35a2.8,2.8,0,0,0,.54-.66c.17-.31.34-.48.45-.48a.73.73,0,0,0,.42-.28.88.88,0,0,1,.4-.28,2.08,2.08,0,0,0,.45-.1c.29-.1.3-.12.3-.71V183l.33-.14c.55-.23,1.2-.27,1.38-.09.73-1.27,2.93-1.41,4.29-.87.54.19,1.78.25,1.78.08s1-.11,1.48.05l1.1.33a14.07,14.07,0,0,1,2.9,1.46,6.32,6.32,0,0,1,1.25,1.55c.12.2.27.36.34.36a3.9,3.9,0,0,0,.76-.33c.56-.29.7-.33,1.08-.28s.44.06,1-.45.89-.66,1.38-.52a3.21,3.21,0,0,0,.72.07,1.05,1.05,0,0,1,.88.36,1.44,1.44,0,0,0,1.11.43l.94.08a1.65,1.65,0,0,1,1.2.39,4.71,4.71,0,0,0,1.08.75,18.8,18.8,0,0,1,2.65,1.77,4.33,4.33,0,0,1,.48.82,10.23,10.23,0,0,0,.49.94,2.65,2.65,0,0,1,.33.76,1,1,0,0,0,.24.51.61.61,0,0,1,.19.42.6.6,0,0,0,.18.41,2.75,2.75,0,0,1,.43,1.45c-.06.19.24.62.81,1.15a1.89,1.89,0,0,1,.49.84,5.93,5.93,0,0,0,.35.85,6.26,6.26,0,0,1,.36,1.09,9.52,9.52,0,0,0,.38,1.17,5.6,5.6,0,0,1,.28,1.3c.06.48.14,1.14.19,1.44,2,11.42-6.74-3.81-18.28,6.5l-1,.34a7.66,7.66,0,0,1-1.13.34,1.73,1.73,0,0,0-.83.39,1.66,1.66,0,0,0,.36,1.06c.12.09.15.23.13.55a1.54,1.54,0,0,0,.21.88Z"/><path id="Stem" class="cls-4" d="M462.84,238.58c-.13-1-.28-1.93-.33-2.16-.08-.39-.17-.91-.36-2.15a12.39,12.39,0,0,0-.52-2.12,33.81,33.81,0,0,1-.77-4.71l-.3-3.58a17.89,17.89,0,0,0-1.48-4.55c-.07-.15-.21-.52-.3-.8s-.35-.91-.56-1.36-.49-1.15-.64-1.54a6,6,0,0,0-.38-.89,8.68,8.68,0,0,1-.39-1,20.1,20.1,0,0,0-.81-2,5.42,5.42,0,0,1-.27-.7c-.31-1-.6-1.94-.65-2.16s-.07-.24-1.14-.24a7.13,7.13,0,0,1-1.15-.07s0-.12.11-.19.12-.12-.17-.08-.41.08-.18.26,0,.13-.87.13a12.13,12.13,0,0,1-4.44-1,8.48,8.48,0,0,0-1.47-.47.77.77,0,0,1-.53-.33.93.93,0,0,0-.45-.32.6.6,0,0,1-.33-.2,2.54,2.54,0,0,0-.61-.42,12,12,0,0,1-1.05-.64,3.66,3.66,0,0,0-1.67-.76,12.56,12.56,0,0,1-2.62-1.15c-.12-.12-.1-.13.19-.07a6.87,6.87,0,0,0,1,.09,5.88,5.88,0,0,1,1.17.17,9,9,0,0,0,1.08.22,4.11,4.11,0,0,1,.79.15,28.83,28.83,0,0,0,4.88.73c.69.05,1.5.14,1.78.19a11,11,0,0,0,2.67.12c.14-.08.08-.18-.53-.78a5.16,5.16,0,0,0-.91-.76c-.17-.07-.21-.13-.16-.31s0-.26-.29-.44c-.64-.41-.73-.45-.93-.46a.79.79,0,0,1-.37-.13c-.17-.13-.17-.14,0-.15a1.8,1.8,0,0,1,.51.14c.45.16,1.25.27,1.25.17a2.48,2.48,0,0,0-.52-.56c-.41-.39-.48-.5-.38-.59s.24-.07.54,0c.67.16.7.15.77-.32a1.07,1.07,0,0,0-.06-.61.38.38,0,0,1,0-.41c.06-.14.15-.25.19-.25a11.07,11.07,0,0,1,1.16,1.06c1.26,1.25,1.47,1.41,1.64,1.27a.31.31,0,0,0,.13-.19.45.45,0,0,1,.14-.23.35.35,0,0,0,.09-.32.55.55,0,0,1,.09-.39c.13-.2.13-.25,0-.41a.65.65,0,0,1-.14-.35c0-.18,0-.18.19,0a7.33,7.33,0,0,1,1.33,2.87c0,.09-.21.23-.43.31a1.07,1.07,0,0,0-.55.43c-.09.15-.23.28-.3.28s-.28.31-.2.56.26.24.57,0a.48.48,0,0,1,.55,0,.75.75,0,0,0,.53,0,.78.78,0,0,1,.35,0,.31.31,0,0,0,.26-.07c.11-.1.16-.08.28.08s.8.19,1.34-.23a1.61,1.61,0,0,1,.6-.31.82.82,0,0,0,.33-.09c.24-.13.67,0,.67.17s.58.6.94.71c.21.07.23.16.1.4,0,.09-.11.24-.14.33s-.24.25-.47.35-.43.23-.43.41a.48.48,0,0,1-.14.34.6.6,0,0,0-.14.38c0,.23,0,.26-.37.3a5.52,5.52,0,0,1-.92,0,.89.89,0,0,0-.9.24,1.34,1.34,0,0,1-.53.29c-.25,0-.29.13-.08.31s.23.35,0,.35a1.82,1.82,0,0,0-.8.39,1.66,1.66,0,0,0,.36,1.06c.12.09.15.23.13.55a1.54,1.54,0,0,0,.21.88,6.6,6.6,0,0,1,.53,1.4,10.16,10.16,0,0,0,.71,1.68,5.05,5.05,0,0,1,.23.54,4.18,4.18,0,0,0,.28.64,4.24,4.24,0,0,1,.28.66,30.05,30.05,0,0,0,1.4,3.4,1.61,1.61,0,0,1,.19.5,9.53,9.53,0,0,0,.56,1.66,1.06,1.06,0,0,1,.14.42,6.1,6.1,0,0,0,.24.79c.16.46.24.74.48,1.68a7.24,7.24,0,0,1,.1,1.4,27.68,27.68,0,0,0,.69,6,2.94,2.94,0,0,1,.14.65,2.33,2.33,0,0,0,.13.57,8.65,8.65,0,0,1,.24,1,8.83,8.83,0,0,0,.49,2,1.78,1.78,0,0,1,.07.61,12.2,12.2,0,0,0,.31,2.4Z"/><path id="Leaf" class="cls-4" d="M461.29,224.41c.36-1.46,4-1.27,2.85.34C463.18,225.08,462.24,224.51,461.29,224.41Z"/></g><g id="Poppy_1" data-name="Poppy 1"><path id="Petals-2" data-name="Petals" class="cls-3" d="M412.47,184.81l-1.42-.15a16.91,16.91,0,0,1-4.36-.82c-.26-.13-.49-.09-1.16.22a16,16,0,0,1-5.26,1.31c-4,.34-5.79-.29-7.43-2.62a16.31,16.31,0,0,1-2.17-4.74,10.91,10.91,0,0,1,.33-4.38,6.65,6.65,0,0,0,.29-1.17.94.94,0,0,1,.31-.55c.3-.27.33-.27,1,.05s.69.3.69.11.14-.23.33-.23.31,0-.16-.52-.49-.55-.3-.85c.41-.66.95-.51,2.06.59a2.39,2.39,0,0,0,1.5.77c.28,0,.22-.09-.34-.57a2.55,2.55,0,0,0-1-.57c-.5,0-.47-.34.05-.44a1.14,1.14,0,0,1,.85.15c.21.14.4.23.42.19l.2-.35c.48-.87,1-.67,2.13.76.65.85,1.16,1.32,1.16,1.06a6.87,6.87,0,0,0-1.35-1.65,1.72,1.72,0,0,1-.5-.63,2.93,2.93,0,0,1,.69-.85,3,3,0,0,0,.78-1.15,2.23,2.23,0,0,1,.27-.68,2.15,2.15,0,0,0,.25-.84c.11-.76.71-1.24,1.77-1.4a1.28,1.28,0,0,0,1-.54,3.33,3.33,0,0,1,2.47-1.08,5.75,5.75,0,0,0,1.65-.33,14,14,0,0,1,2.8-.68,21.46,21.46,0,0,1,3,.17c1.36.14,3.08.27,3.84.29s2.07.09,2.91.16c1.46.12,1.55.15,2.14.68a3.62,3.62,0,0,1,.81,1.05.82.82,0,0,0,.79.58l1,.17a2,2,0,0,0,.93-.09c.43-.14.67-.11,1.57.22.59.22,1.5.62,2,.89l1,.5.31-.39.53-.65a.72.72,0,0,1,.47-.27c.21,0,.24.12.15.76a7.35,7.35,0,0,1-.31,1.36,1.1,1.1,0,0,0-.06.86c.12.21.07.36-.2.65a1.57,1.57,0,0,0-.38,1.15,1.51,1.51,0,0,1-.34,1.1c-.37.41-.68,1.15-.56,1.36s-.12.34-.38.59c.43,1.89-.92.27-2,2.3a52.74,52.74,0,0,1-6,6,12,12,0,0,1-6.08,2.7,3.51,3.51,0,0,0-1.1.26l-.28,1.17Z"/><path id="Stem-2" data-name="Stem" class="cls-4" d="M409.74,211.78c.11-3.32.52-8.82.74-10,.08-.38.32-1.59.54-2.68,1.15-5.76,2-14,1.45-14.3a7,7,0,0,0-1.5-.16,14.18,14.18,0,0,1-2.17-.26l-.85-.21.43-.2c.23-.12.42-.3.42-.42a5.07,5.07,0,0,0-2.23-1.08c-1-.19-1.74-.81-1-.81a5.59,5.59,0,0,0,1.2-.3,7.49,7.49,0,0,1,2.18-.32,8.58,8.58,0,0,0,1.8-.18A2.06,2.06,0,0,1,412,181a18.46,18.46,0,0,0,6.1-.09,2.12,2.12,0,0,0,1.23-1.6,1.73,1.73,0,0,1,.32-.82.61.61,0,0,0,.22-.37,2.24,2.24,0,0,1,.39-.71,6.06,6.06,0,0,0,.62-1c.34-.81,2.22-2.43,2.22-1.92a14.17,14.17,0,0,1-1.6,2.34.82.82,0,0,0-.25.57c0,.46.34.48,1.13.05a1.9,1.9,0,0,1,.65-.26c.16.16-.46,1.52-.93,2.07-1,1.14-1.42,2.39-.76,2.13.48-.18.17.2-.66.82a11.83,11.83,0,0,1-5.5,2.24,3.6,3.6,0,0,0-1.1.26,2.92,2.92,0,0,0-.28,1.17c-.31,3.22-1.43,11.28-1.69,12.16-.09.32-.67,3.68-.85,4.92-.06,3-1.6,11.92-1.51,8.91Z"/></g></g><path id="California_Clipped_Skyline" data-name="California Clipped Skyline" class="cls-5" d="M505.5,194.44c-.9-2-2.23-3.51-4.44-5.95h0a33.07,33.07,0,0,1-3.19-4.42c-1.63-2.84-1-3.67-2.51-6.15a14.59,14.59,0,0,0-3.29-3.74c-6.37-5.49-91.69-81.76-91.69-81.76s-.84-58.72-1.06-68.59a11,11,0,0,0-1.62-5.89,10.47,10.47,0,0,0-2.48-2.77,11.87,11.87,0,0,0-5.82-2.25c-1.15-.17-27.39-.3-39-.3H312.33A10.59,10.59,0,0,0,302,21l-1.27,5.67a10.63,10.63,0,0,0,.6,6.42s1.68,3.78,1.88,4.17a24.84,24.84,0,0,0-1,4,43.75,43.75,0,0,0-.06,5.65,21.61,21.61,0,0,0-4.25,6.47,16.37,16.37,0,0,0-1,7.91A24.07,24.07,0,0,0,301,72.63c1.19,1.89,2.88,4.06,4.22,5.77,1,1.34,1.93,2.43,2.55,3.17a29.89,29.89,0,0,0,.11,5A29,29,0,0,0,309.7,94s-.18,2.57-.2,2.8c-.15,2.5,1.3,6,3.05,8.76,1,1.57,2.88,3.44,6.56,7.18,1.52,1.55,2.81,2.8,3.69,3.65q.49,1.08,1.11,2.19a31.82,31.82,0,0,0,7.19,8.7,48.87,48.87,0,0,1,1.3,8.59,21.57,21.57,0,0,0,.55,5.33,13.48,13.48,0,0,0,3.59,5.84v0A14.9,14.9,0,0,0,339,149a15.69,15.69,0,0,0,1.84,1,4,4,0,0,0-1.17,2.68,3.75,3.75,0,0,0,.52,2,33.18,33.18,0,0,0,2.17,4.33c2.45,4.12,8,11.32,8.81,12.62a5.09,5.09,0,0,1,.58,1.22,4.87,4.87,0,0,1,.17.78c.08.63.82,2.42,3.4,4.85a24,24,0,0,0,4.59,3.37,11.23,11.23,0,0,0,.91,2.59,11.6,11.6,0,0,0,5,5c-.34.85-2.54,6.62.1,11.09a15.37,15.37,0,0,0,3.05,3.46,20.23,20.23,0,0,0,4.11,2.43,15.74,15.74,0,0,0,6.8,1.88,13.32,13.32,0,0,0,5.4-1,22.29,22.29,0,0,0,3.07.92,23.17,23.17,0,0,0,3.22.47c.53.52,1.26,1.22,2.17,2a20.32,20.32,0,0,0,3.92,2.72,21.42,21.42,0,0,0,4.66,1.54c1.48.38,2.73.62,3.6.77a11,11,0,0,0,1.12,2.09,12.44,12.44,0,0,0,5.58,4.41,14.23,14.23,0,0,0,6.73,1.15c1,.78,2,1.63,3,2.56s2.19,2.08,3.14,3.08c.08,1.37.22,2.5.33,3.31.4,2.86.84,3.66,1.05,4a6.56,6.56,0,0,0,1.75,1.85,10.66,10.66,0,0,0,1.44,4.38,12.33,12.33,0,0,0,6.81,5.06,20.41,20.41,0,0,0,9.05.82h0s31.82-3.12,35.69-3.57l3.23-.39c.68.12,6.55,1.07,9.73-2.62a7.43,7.43,0,0,0,1.31-2.24c.45-.36,5.82-4.82,5.18-11.71a13.42,13.42,0,0,0-4.19-8.35,32.84,32.84,0,0,0,2.64-8.86,13.81,13.81,0,0,0,3-1.68,13.67,13.67,0,0,0,3.54-5.33A13.07,13.07,0,0,0,505.5,194.44ZM309.83,66.75l12.06,0,.28,24.83,8.72-.23c.7-31.53.07-36.49,1.08-37.1,2.55-.72,1.14-3.21,2.59-3.61.25-.63-.23-1,5-1.11.22-19.23-.08-16.56.44-26.37a1.47,1.47,0,0,1,1,.07c0,5.15,0,19.67,1.15,25.11a18.57,18.57,0,0,0,2.54,1.56,18.76,18.76,0,0,0,2.88,1.17,2.62,2.62,0,0,0,.57,1.45,5.27,5.27,0,0,0,2,1.23c1,.74.21,6.26.55,12.79,0,.65.08,1.16.12,1.65,3,1,5,.89,6.26,0,2.89-.43,10.7-2.61,13.92.36.9,35.44-.43,29.72,1.75,43.18.07,1.68,2.28,2.73,3.73,3.1.8.48.05,2.94.66,4.68.2.58,1.51,1.51,1.78,2.08s.18-3.18.46-6.38c.63-7.33.92,2.62,1.2,1.64a21.26,21.26,0,0,0,.68-5.69c0-3.38.21-4,1.58-4.42,2.09-.66,8-.53,8.63.2.85,1,1.76,10.71,1.85,18.83.11-.45.45-1.71.94-1.72,1.07.69.8,1.79.84,7.5h5.07l.4,22.7c1.84.43,4.94.9,7.47-.22.33-.15,2.25-2.26,2.87-6,.38-2.29.5-2.37,3.94-2.37h3.54l.2,3.69.2-12.58c.17-.23,3.06-2.37,4.69-2.33s4.21,1.87,4.42,2.13v14.41l9.48-.08v18.81s.22.18,2.42-.88,9.88.59,10.66.59c1.06,0,1.47-.6,1.64-2.37.19-2,.56-2.41,2.22-2.6a5,5,0,0,0,3.07-1.76,3.15,3.15,0,0,1,.7-.76,6.77,6.77,0,0,1,.77-.61,9.63,9.63,0,0,1,1.85-1l11.43,10.16c14.1,12.53,14.57,13,14.58,14.15a72.81,72.81,0,0,0,3.34,6.87c.78,1.45,6.06,7.14,6.06,7.92,0,1.17-1.31,2.39-3.16,2.94a4.45,4.45,0,0,0-2.4,1.94c-1.09,1.48-1.16,1.74-1.37,4.73-.24,3.54-.63,4.82-2.59,8.5-1,1.94-1.29,2.71-1.11,3.3a19.67,19.67,0,0,1,.43,2.51c.18,1.58.27,1.74,1,1.8a4.45,4.45,0,0,1,3.23,2.68c.84,1.75.82,2.28-.13,2.91a3.56,3.56,0,0,0-1.16,1.76c-.45,1.5-.8,1.68-2.32,1.18a3.23,3.23,0,0,0-2.29,0c-.62.19-5.72.78-11.32,1.3s-12.81,1.3-16,1.73h0c-3.22.44-8.25.87-11.32,1-5.38.18-5.54.17-6.21-.5a1.58,1.58,0,0,1-.49-1.72c.18-.93.1-1.08-.73-1.42-1.35-.56-1.91-1.95-2-5.09-.16-3.95-1.2-5.91-5.09-9.63-5-4.79-8.14-6.62-11.35-6.63a9.09,9.09,0,0,1-2.73-.36c-.87-.4-1.44-1.7-1.44-3.28a3,3,0,0,0-.71-1.84c-.62-.7-1.08-.84-3.7-1.1a26.34,26.34,0,0,1-8.45-2.22,21.85,21.85,0,0,1-3.29-2.58c-2.86-2.62-3.73-3.05-6.22-3.05a8.07,8.07,0,0,1-3.84-.83,7.72,7.72,0,0,0-6.55-.45c-2.39.83-3,.82-4.84-.12-3.21-1.63-4-2.82-3-4.56,1.38-1.52.64-7.59-.42-8.74.08-.68-2.8-2.6-3.51-3.38-1.65-5.1-4.21-6.42-4.21-6.42-7.22-3.57-9.46-10.86-13-16.74-1.88-2.49-3.66-5.54-4-6.82-.41-1.66,3.81-4.46,3-6.45s-8.44-2.15-8.86-4.27c.13-3.29-1.21-7.21-1.65-9.33s-1-4.26-.38-5.71c1.27-1.67,4.53,2.34,6.57,1.9.76-.68-2.3-7.37-4.77-6.28-.26.11-4.69.6-5.6,0-1.51-.93-3.27-3.3-5.14-6.94-1.51-2.94-2-3.52-6.35-7.88C321,99.66,319.7,97.9,320,96.3c.59-3.24.56-3.59-.48-6-.92-2.1-1-2.75-1.24-6.57-.32-6-.93-7.37-6.08-13.79"/></g></g></svg>