<svg id="Square" xmlns="http://www.w3.org/2000/svg" viewBox="0 0 180 180"><defs><style>.cls-1{fill:#fdb218;}.cls-2{fill:#29abe2;}.cls-3{fill:#00aeef;}</style></defs><g id="Proposed_No_Text" data-name="Proposed No Text"><g id="Poppies"><g id="Poppy_2" data-name="Poppy 2"><path id="Petals" class="cls-1" d="M115.77,139.26a14.71,14.71,0,0,1-.51-1.59l0-.14-1.21,0a5.15,5.15,0,0,1-1.73-.11c-.29-.08-.87-.26-1.3-.42a11.49,11.49,0,0,0-1.17-.35,6.08,6.08,0,0,1-.76-.22c-.34-.14-.41-.14-1.44-.16l-1.09,0L106,136l-.87-.44a2.69,2.69,0,0,1-.41-.25.19.19,0,0,0-.12-.08,1.1,1.1,0,0,1-.29-.18,1.86,1.86,0,0,0-.85-.39,2.14,2.14,0,0,1-.54-.23c-.5-1.24-1.83-2.36-.16-3.38a.53.53,0,0,1,.41-.35.53.53,0,0,0,.25-.14,1.32,1.32,0,0,1,.87-.31.88.88,0,0,0,.56-.13,1.74,1.74,0,0,1,.76-.16c.56,0,.84-.12.89-.27a1.16,1.16,0,0,0-.12-.61c0-.13,0-.17.07-.35a1,1,0,0,0,.14-.24,2.58,2.58,0,0,0-.19-.45c-.14-.31-.22-.41-.36-.48s-.27-.27-.12-.53a2.42,2.42,0,0,1,.81-.86,3.71,3.71,0,0,0,.51-.22c.26-.14.32-.19.35-.34a.57.57,0,0,1,.09-.23.25.25,0,0,0,.06-.15.32.32,0,0,1,.14-.19,1.53,1.53,0,0,0,.3-.37c.09-.17.18-.26.25-.26a.42.42,0,0,0,.23-.16.48.48,0,0,1,.22-.16,1,1,0,0,0,.25,0c.16-.06.17-.07.17-.4v-.33l.18-.08c.31-.13.67-.15.77,0,.4-.7,1.63-.78,2.38-.48.3.1,1,.13,1,0s.55-.06.83,0l.6.18a7.36,7.36,0,0,1,1.61.81,3.47,3.47,0,0,1,.7.86c.07.11.15.2.19.2a2.51,2.51,0,0,0,.42-.18.82.82,0,0,1,.6-.16c.23,0,.24,0,.53-.25s.49-.36.77-.29a1.9,1.9,0,0,0,.4,0,.59.59,0,0,1,.49.2c.19.18.25.2.61.24l.52,0a1,1,0,0,1,.67.22,2.55,2.55,0,0,0,.6.42,10.16,10.16,0,0,1,1.47,1,2.69,2.69,0,0,1,.26.46c.07.15.2.39.28.52a1.6,1.6,0,0,1,.18.42.66.66,0,0,0,.13.28.36.36,0,0,1,.11.24.32.32,0,0,0,.1.22,1.59,1.59,0,0,1,.24.81c0,.1.13.34.44.64a1.06,1.06,0,0,1,.28.46,2.69,2.69,0,0,0,.19.47,2.89,2.89,0,0,1,.2.61,5.35,5.35,0,0,0,.21.64,3.1,3.1,0,0,1,.16.73c0,.27.07.63.1.8,1.12,6.33-3.74-2.12-10.14,3.6l-.53.19a5.56,5.56,0,0,1-.63.19.9.9,0,0,0-.46.22.93.93,0,0,0,.2.59c.06,0,.08.12.07.3a.83.83,0,0,0,.12.49Z"/><path id="Stem" class="cls-2" d="M119.57,154.16c-.07-.53-.15-1.07-.18-1.2s-.1-.5-.21-1.19a7.36,7.36,0,0,0-.28-1.18,18.2,18.2,0,0,1-.43-2.61l-.17-2a9.53,9.53,0,0,0-.82-2.52c0-.09-.11-.29-.17-.45s-.19-.5-.3-.75-.28-.64-.36-.85a3.72,3.72,0,0,0-.21-.5c0-.06-.13-.3-.22-.55a10.33,10.33,0,0,0-.45-1.11,4,4,0,0,1-.15-.39c-.17-.54-.33-1.08-.36-1.2s0-.13-.63-.13a4.07,4.07,0,0,1-.64,0s0-.07.06-.11.07-.06-.09,0-.23,0-.1.14,0,.07-.48.07a6.55,6.55,0,0,1-2.47-.57,5.32,5.32,0,0,0-.81-.26.45.45,0,0,1-.3-.18.53.53,0,0,0-.25-.18.33.33,0,0,1-.18-.11A1.8,1.8,0,0,0,109,136c-.13-.07-.39-.23-.58-.36a2.07,2.07,0,0,0-.93-.42,6.62,6.62,0,0,1-1.45-.64c-.07-.06,0-.07.11,0a3.51,3.51,0,0,0,.54,0,3.16,3.16,0,0,1,.65.1,4,4,0,0,0,.6.12,3.63,3.63,0,0,1,.44.08,15.86,15.86,0,0,0,2.71.41l1,.1a6.31,6.31,0,0,0,1.48.07c.08-.05,0-.1-.29-.43a2.37,2.37,0,0,0-.51-.42c-.1,0-.12-.08-.09-.17s0-.15-.16-.25c-.36-.23-.41-.25-.52-.25a.42.42,0,0,1-.2-.08c-.09-.07-.1-.08,0-.08a1.22,1.22,0,0,1,.28.07c.25.1.69.16.69.1a2.11,2.11,0,0,0-.28-.31c-.23-.21-.27-.28-.22-.32s.14-.05.3,0c.38.09.39.08.43-.18a.58.58,0,0,0,0-.34.19.19,0,0,1,0-.23c0-.07.08-.13.11-.13a6.48,6.48,0,0,1,.63.58c.7.7.82.79.92.71a.17.17,0,0,0,.07-.11.22.22,0,0,1,.08-.12.25.25,0,0,0,0-.18.27.27,0,0,1,0-.22c.07-.11.07-.13,0-.22a.47.47,0,0,1-.08-.2c0-.1,0-.1.11,0a4,4,0,0,1,.73,1.59s-.11.12-.23.17a.59.59,0,0,0-.31.24c0,.08-.12.15-.16.15s-.16.17-.11.31.14.14.31,0a.27.27,0,0,1,.31,0,.48.48,0,0,0,.29,0,.47.47,0,0,1,.19,0,.21.21,0,0,0,.15,0c.06-.06.09-.05.16,0s.44.1.74-.13a.84.84,0,0,1,.33-.18.45.45,0,0,0,.19-.05c.13-.07.37,0,.37.1s.32.33.52.39.13.09,0,.23a1,1,0,0,0-.07.18.56.56,0,0,1-.27.19c-.18.08-.23.13-.23.23a.3.3,0,0,1-.08.19.31.31,0,0,0-.08.21c0,.12,0,.14-.21.17a4.15,4.15,0,0,1-.5,0c-.28,0-.32,0-.5.13a.73.73,0,0,1-.3.16c-.14,0-.16.08,0,.18s.13.19,0,.19a1,1,0,0,0-.45.22.93.93,0,0,0,.2.59c.07,0,.08.12.07.3a.83.83,0,0,0,.12.49,3.79,3.79,0,0,1,.29.77,5.46,5.46,0,0,0,.4.94,1.54,1.54,0,0,1,.12.3,2.25,2.25,0,0,0,.16.35,2.25,2.25,0,0,1,.15.37,16.46,16.46,0,0,0,.78,1.88,1.07,1.07,0,0,1,.11.28,4.74,4.74,0,0,0,.31.92.83.83,0,0,1,.08.23,3,3,0,0,0,.13.45,8.33,8.33,0,0,1,.26.92,3.27,3.27,0,0,1,.06.78,14.64,14.64,0,0,0,.39,3.33,1.88,1.88,0,0,1,.07.37,1.34,1.34,0,0,0,.07.32,5.29,5.29,0,0,1,.14.57,4.28,4.28,0,0,0,.27,1.09,1,1,0,0,1,0,.34,7.11,7.11,0,0,0,.17,1.33Z"/><path id="Leaf" class="cls-2" d="M118.71,146.3c.2-.81,2.25-.71,1.58.19C119.76,146.67,119.23,146.35,118.71,146.3Z"/></g><g id="Poppy_1" data-name="Poppy 1"><path id="Petals-2" data-name="Petals" class="cls-1" d="M91.62,124.33l-.79-.09a9.87,9.87,0,0,1-2.42-.45c-.14-.08-.27-.05-.64.12a8.82,8.82,0,0,1-2.92.73c-2.22.19-3.21-.16-4.12-1.46a9.06,9.06,0,0,1-1.2-2.63,5.94,5.94,0,0,1,.18-2.43,3.38,3.38,0,0,0,.16-.65.55.55,0,0,1,.17-.3c.17-.15.19-.15.56,0s.38.16.38.06.08-.13.18-.13.17,0-.09-.29-.27-.3-.16-.47c.23-.37.52-.28,1.14.33a1.37,1.37,0,0,0,.83.43c.16,0,.13-.06-.19-.32a1.56,1.56,0,0,0-.54-.32c-.28,0-.27-.18,0-.24a.61.61,0,0,1,.48.08c.11.08.22.13.23.11l.11-.2c.26-.48.58-.37,1.18.42.36.48.64.74.64.59a3.88,3.88,0,0,0-.74-.91.91.91,0,0,1-.28-.35,1.6,1.6,0,0,1,.38-.48,1.77,1.77,0,0,0,.44-.63,1.17,1.17,0,0,1,.14-.38,1.13,1.13,0,0,0,.14-.46c.06-.43.4-.69,1-.78a.74.74,0,0,0,.56-.3,1.82,1.82,0,0,1,1.37-.6,3.12,3.12,0,0,0,.91-.18,7.42,7.42,0,0,1,1.56-.38,12.6,12.6,0,0,1,1.66.09c.75.08,1.71.15,2.13.17s1.15,0,1.61.08c.81.07.86.09,1.19.38a2.17,2.17,0,0,1,.45.58.44.44,0,0,0,.43.32l.56.1a1.37,1.37,0,0,0,.52,0c.24-.08.37-.06.87.12.33.12.83.34,1.13.49l.54.28.17-.21.29-.36a.37.37,0,0,1,.26-.15c.12,0,.13.06.08.42a3.94,3.94,0,0,1-.17.75c-.08.23-.09.38,0,.48s0,.2-.11.36a.83.83,0,0,0-.21.63.9.9,0,0,1-.19.62c-.21.22-.38.64-.31.75s-.07.19-.21.33c.24,1-.51.15-1.12,1.28a28.47,28.47,0,0,1-3.32,3.32,6.64,6.64,0,0,1-3.37,1.5,2.08,2.08,0,0,0-.61.14l-.16.65Z"/><path id="Stem-2" data-name="Stem" class="cls-2" d="M90.11,139.29c.06-1.84.28-4.89.41-5.54,0-.21.17-.88.3-1.49.64-3.2,1.1-7.75.8-7.93a3.57,3.57,0,0,0-.83-.09,8.31,8.31,0,0,1-1.2-.15l-.47-.11.23-.12c.13-.06.24-.16.24-.22s-.82-.52-1.24-.6-1-.45-.55-.45a3.5,3.5,0,0,0,.66-.17,4.19,4.19,0,0,1,1.22-.18,5,5,0,0,0,1-.1,1,1,0,0,1,.68,0,10.6,10.6,0,0,0,3.39,0,1.19,1.19,0,0,0,.68-.89.91.91,0,0,1,.18-.46.33.33,0,0,0,.12-.2,1.26,1.26,0,0,1,.22-.4,3.88,3.88,0,0,0,.34-.57c.19-.45,1.23-1.35,1.23-1.07a8.29,8.29,0,0,1-.88,1.3.45.45,0,0,0-.14.32c0,.25.19.26.63,0a1,1,0,0,1,.36-.14c.08.09-.26.84-.52,1.15-.55.63-.79,1.32-.42,1.18s.09.11-.37.46a6.7,6.7,0,0,1-3,1.24,2.08,2.08,0,0,0-.61.14,1.86,1.86,0,0,0-.16.65c-.17,1.79-.79,6.26-.93,6.75,0,.17-.38,2-.47,2.73,0,1.67-.89,6.61-.84,4.94Z"/></g></g><path id="California_Clipped_Skyline" data-name="California Clipped Skyline" class="cls-3" d="M143.24,129.67a12.44,12.44,0,0,0-2.47-3.3h0a18.64,18.64,0,0,1-1.76-2.45c-.91-1.58-.58-2-1.4-3.41a8,8,0,0,0-1.83-2.08c-3.53-3.05-50.86-45.37-50.86-45.37S84.45,40.49,84.33,35a6.18,6.18,0,0,0-.9-3.27,5.7,5.7,0,0,0-1.38-1.53A6.52,6.52,0,0,0,78.82,29c-.64-.09-15.2-.16-21.64-.16H36.06a5.88,5.88,0,0,0-5.75,4.64l-.7,3.14a5.87,5.87,0,0,0,.33,3.56s.93,2.1,1,2.32a14.38,14.38,0,0,0-.57,2.2,24.42,24.42,0,0,0,0,3.14A12.19,12.19,0,0,0,28,51.38a9.14,9.14,0,0,0-.56,4.38,13.3,13.3,0,0,0,2.32,6.32c.66,1.05,1.6,2.26,2.34,3.21.58.74,1.07,1.34,1.42,1.76a14.72,14.72,0,0,0,.06,2.78,16,16,0,0,0,1,4.12s-.1,1.42-.11,1.55a9.41,9.41,0,0,0,1.69,4.86,32.06,32.06,0,0,0,3.64,4c.85.86,1.56,1.56,2,2,.18.4.39.8.62,1.22a17.79,17.79,0,0,0,4,4.82,25.9,25.9,0,0,1,.72,4.77,12.43,12.43,0,0,0,.31,2.95,7.64,7.64,0,0,0,2,3.25h0a7.64,7.64,0,0,0,1.35,1,7.29,7.29,0,0,0,1,.54,2.19,2.19,0,0,0-.65,1.49,2,2,0,0,0,.29,1.09,18.64,18.64,0,0,0,1.2,2.4c1.36,2.29,4.42,6.28,4.89,7a2.74,2.74,0,0,1,.32.68,1.83,1.83,0,0,1,.09.43,5.71,5.71,0,0,0,1.89,2.69,13,13,0,0,0,2.55,1.87,5.91,5.91,0,0,0,.5,1.44,6.48,6.48,0,0,0,2.8,2.76c-.19.47-1.41,3.68.06,6.16a8.58,8.58,0,0,0,1.69,1.92,11.32,11.32,0,0,0,2.28,1.35,8.91,8.91,0,0,0,3.77,1,7.41,7.41,0,0,0,3-.58,10.83,10.83,0,0,0,1.7.51,12.07,12.07,0,0,0,1.79.26c.29.29.69.68,1.2,1.1a11.29,11.29,0,0,0,2.17,1.51,11.68,11.68,0,0,0,2.59.85c.82.21,1.52.35,2,.43a6.47,6.47,0,0,0,.62,1.16A7,7,0,0,0,91.7,145a8,8,0,0,0,3.74.64c.54.43,1.09.9,1.66,1.41s1.22,1.16,1.75,1.71a18.38,18.38,0,0,0,.18,1.84,5.67,5.67,0,0,0,.58,2.23,3.75,3.75,0,0,0,1,1,6,6,0,0,0,.8,2.43,6.84,6.84,0,0,0,3.78,2.81,11.42,11.42,0,0,0,5,.45h0s17.66-1.73,19.81-2l1.79-.22c.37.07,3.63.6,5.39-1.45a4.13,4.13,0,0,0,.73-1.24,7.9,7.9,0,0,0,2.87-6.5,7.37,7.37,0,0,0-2.32-4.63,18.2,18.2,0,0,0,1.46-4.92,7.55,7.55,0,0,0,1.65-.93,6.83,6.83,0,0,0,1.68-8ZM34.67,58.82l6.69,0,.16,13.78,4.84-.13c.39-17.49,0-20.25.6-20.58,1.41-.41.63-1.78,1.43-2,.15-.35-.12-.54,2.78-.62.12-10.66-.05-9.18.24-14.63a.86.86,0,0,1,.54,0c0,2.86,0,10.91.63,13.94a11.33,11.33,0,0,0,1.41.86,10.56,10.56,0,0,0,1.6.65,1.57,1.57,0,0,0,.31.8,3,3,0,0,0,1.12.69c.54.41.12,3.47.31,7.09,0,.36,0,.64.06.92,1.64.54,2.79.49,3.48,0,1.6-.24,5.93-1.45,7.72.2.5,19.66-.24,16.49,1,24,0,.93,1.27,1.51,2.07,1.72.44.26,0,1.63.37,2.6.11.32.83.83,1,1.15a31.83,31.83,0,0,0,.26-3.54c.35-4.07.51,1.45.66.91a11.61,11.61,0,0,0,.38-3.16c0-1.87.12-2.21.88-2.45,1.16-.37,4.44-.29,4.79.11s1,5.94,1,10.45c.06-.25.24-1,.52-1,.59.39.44,1,.46,4.17h2.82L85,107.36a6.86,6.86,0,0,0,4.14-.12,5.57,5.57,0,0,0,1.59-3.34c.21-1.27.28-1.32,2.19-1.32h2l.11,2,.11-7a5.56,5.56,0,0,1,2.6-1.29,5.43,5.43,0,0,1,2.45,1.18v8l5.26-.05v10.43s.12.11,1.34-.48,5.48.32,5.92.32.81-.33.91-1.31.31-1.34,1.23-1.44a2.73,2.73,0,0,0,1.7-1,2,2,0,0,1,.39-.42,3.21,3.21,0,0,1,.43-.34,5.21,5.21,0,0,1,1-.54l6.34,5.63c7.83,7,8.09,7.21,8.09,7.86,0,.27,1.5,3.14,1.86,3.81s3.36,4,3.36,4.39c0,.65-.73,1.33-1.75,1.64a2.4,2.4,0,0,0-1.33,1.07c-.61.82-.65,1-.76,2.62a9.38,9.38,0,0,1-1.44,4.72c-.58,1.08-.72,1.5-.62,1.83a11.3,11.3,0,0,1,.24,1.39c.1.88.15,1,.55,1a2.47,2.47,0,0,1,1.79,1.49c.47,1,.46,1.26-.07,1.61a2,2,0,0,0-.64,1c-.25.83-.45.93-1.29.66a1.79,1.79,0,0,0-1.27,0c-.34.11-3.17.44-6.28.72s-7.11.72-8.88,1h0c-1.79.24-4.58.48-6.28.54-3,.1-3.07.09-3.44-.28a.86.86,0,0,1-.27-1c.09-.52,0-.6-.41-.79-.75-.31-1.06-1.08-1.13-2.83-.09-2.19-.67-3.28-2.82-5.34-2.78-2.65-4.52-3.67-6.3-3.67a5.23,5.23,0,0,1-1.52-.21,2,2,0,0,1-.79-1.82,1.6,1.6,0,0,0-.4-1c-.34-.4-.6-.47-2.05-.62a14.6,14.6,0,0,1-4.69-1.23,12,12,0,0,1-1.83-1.43c-1.58-1.46-2.06-1.69-3.45-1.69a4.51,4.51,0,0,1-2.13-.47,4.28,4.28,0,0,0-3.63-.24,2.6,2.6,0,0,1-2.68-.07c-1.79-.9-2.23-1.57-1.68-2.53.77-.84.36-4.21-.23-4.85,0-.38-1.55-1.44-2-1.87-.91-2.84-2.33-3.57-2.33-3.57-4-2-5.25-6-7.21-9.28a15,15,0,0,1-2.2-3.79c-.23-.92,2.11-2.47,1.66-3.58s-4.68-1.19-4.92-2.37A22.09,22.09,0,0,0,52.67,94a6.32,6.32,0,0,1-.22-3.16c.71-.93,2.52,1.3,3.65,1,.42-.38-1.27-4.08-2.65-3.48a8.61,8.61,0,0,1-3.1,0,10,10,0,0,1-2.85-3.85c-.84-1.63-1.1-2-3.53-4.37-3.1-3.1-3.82-4.07-3.66-5,.33-1.8.32-2-.26-3.32a7.9,7.9,0,0,1-.69-3.64c-.17-3.33-.51-4.1-3.37-7.66"/></g></svg>