<svg xmlns="http://www.w3.org/2000/svg" viewBox="0 0 576 54"><defs><style>.cls-1{fill:none;}.cls-2{fill:#39b54a;}</style></defs><g id="Horizontal"><rect class="cls-1" width="576" height="54"/><path class="cls-2" d="M26,36.83A11.73,11.73,0,0,0,30,36.19,11.25,11.25,0,0,0,32.63,35l2.95,5.85a12.64,12.64,0,0,1-3.75,1.9,18.45,18.45,0,0,1-6.29,1,17.07,17.07,0,0,1-6.41-1.2,16.32,16.32,0,0,1-5.28-3.35A15.61,15.61,0,0,1,10.29,34,15.44,15.44,0,0,1,9,27.7a15.76,15.76,0,0,1,1.27-6.35,15.53,15.53,0,0,1,3.56-5.11,16.34,16.34,0,0,1,5.29-3.38,16.94,16.94,0,0,1,6.42-1.21,18.45,18.45,0,0,1,6.29,1,12.64,12.64,0,0,1,3.75,1.9l-2.95,5.85A11.25,11.25,0,0,0,30,19.12,11.49,11.49,0,0,0,26,18.48a10.9,10.9,0,0,0-4.17.74,8.23,8.23,0,0,0-3,2,8.63,8.63,0,0,0-1.8,2.93,9.92,9.92,0,0,0-.6,3.44,10.1,10.1,0,0,0,.6,3.48,8.67,8.67,0,0,0,1.8,2.94,8.23,8.23,0,0,0,3,2A10.9,10.9,0,0,0,26,36.83Z"/><path class="cls-2" d="M49.61,43.66A11.78,11.78,0,0,1,44,42.36a9.68,9.68,0,0,1-5.23-8.81A9.86,9.86,0,0,1,44,24.66a11.45,11.45,0,0,1,5.58-1.33,11.24,11.24,0,0,1,5.56,1.33,9.92,9.92,0,0,1,3.77,3.64,10.09,10.09,0,0,1,1.36,5.25,10,10,0,0,1-1.36,5.23,9.76,9.76,0,0,1-3.77,3.58A11.56,11.56,0,0,1,49.61,43.66Zm0-5.78a4.07,4.07,0,0,0,2.17-.55,3.76,3.76,0,0,0,1.4-1.55,4.84,4.84,0,0,0,.5-2.25,5,5,0,0,0-.5-2.3,3.79,3.79,0,0,0-1.4-1.56,4.45,4.45,0,0,0-4.32,0A3.86,3.86,0,0,0,46,31.23a5.05,5.05,0,0,0-.51,2.3A4.84,4.84,0,0,0,46,35.78a3.83,3.83,0,0,0,1.43,1.55A4.07,4.07,0,0,0,49.61,37.88Z"/><path class="cls-2" d="M90.32,23.33a8,8,0,0,1,3.84.9A6.18,6.18,0,0,1,96.75,27a10.69,10.69,0,0,1,.94,4.82V43.1h-6.9V32.87a7.54,7.54,0,0,0-.61-3.27,2.44,2.44,0,0,0-2.43-1.24,3.34,3.34,0,0,0-1.91.55,3.64,3.64,0,0,0-1.29,1.56,5.91,5.91,0,0,0-.45,2.4V43.1H77.66V32.87A6.71,6.71,0,0,0,77,29.6a2.45,2.45,0,0,0-2.36-1.24,3.35,3.35,0,0,0-1.92.55,3.57,3.57,0,0,0-1.27,1.55A5.73,5.73,0,0,0,71,32.87V43.1H64V23.89h7v2.74a3.77,3.77,0,0,1,1.24-1.49,8.74,8.74,0,0,1,2.35-1.29,8.43,8.43,0,0,1,3-.52,7,7,0,0,1,2.85.51,5.26,5.26,0,0,1,1.87,1.36A7.84,7.84,0,0,1,83.44,27a4.55,4.55,0,0,1,1.3-1.69,8.11,8.11,0,0,1,2.42-1.43A8.58,8.58,0,0,1,90.32,23.33Z"/><path class="cls-2" d="M128.17,23.33a8,8,0,0,1,3.84.9A6.12,6.12,0,0,1,134.6,27a10.69,10.69,0,0,1,.94,4.82V43.1h-6.9V32.87A7.39,7.39,0,0,0,128,29.6a2.43,2.43,0,0,0-2.43-1.24,3.34,3.34,0,0,0-1.91.55,3.64,3.64,0,0,0-1.29,1.56,5.91,5.91,0,0,0-.45,2.4V43.1h-6.44V32.87a6.83,6.83,0,0,0-.67-3.27,2.47,2.47,0,0,0-2.37-1.24,3.3,3.3,0,0,0-1.91.55,3.52,3.52,0,0,0-1.28,1.55,5.89,5.89,0,0,0-.46,2.41V43.1h-6.94V23.89h6.94v2.74a3.77,3.77,0,0,1,1.24-1.49,8.74,8.74,0,0,1,2.35-1.29,8.43,8.43,0,0,1,3-.52,7,7,0,0,1,2.85.51,5.17,5.17,0,0,1,1.87,1.36A7.23,7.23,0,0,1,121.29,27a4.55,4.55,0,0,1,1.3-1.69A8.24,8.24,0,0,1,125,23.9,8.58,8.58,0,0,1,128.17,23.33Z"/><path class="cls-2" d="M149.46,43.66a11.78,11.78,0,0,1-5.58-1.3,9.63,9.63,0,0,1-5.23-8.81,9.81,9.81,0,0,1,5.23-8.89,11.45,11.45,0,0,1,5.58-1.33A11.26,11.26,0,0,1,155,24.66a9.89,9.89,0,0,1,3.76,3.64,10.1,10.1,0,0,1,1.37,5.25,10,10,0,0,1-1.37,5.23A9.74,9.74,0,0,1,155,42.36,11.59,11.59,0,0,1,149.46,43.66Zm0-5.78a4,4,0,0,0,2.16-.55A3.79,3.79,0,0,0,153,35.78a5,5,0,0,0,.5-2.25,5.18,5.18,0,0,0-.5-2.3,3.81,3.81,0,0,0-1.41-1.56,4.43,4.43,0,0,0-4.31,0,3.79,3.79,0,0,0-1.43,1.56,5.05,5.05,0,0,0-.51,2.3,4.84,4.84,0,0,0,.51,2.25,3.76,3.76,0,0,0,1.43,1.55A4,4,0,0,0,149.46,37.88Z"/><path class="cls-2" d="M177,23.33a9.79,9.79,0,0,1,3.93.82,7.17,7.17,0,0,1,3.15,2.58,8,8,0,0,1,1.23,4.64V43.1h-7V32.52a4.4,4.4,0,0,0-1-3.13,3.42,3.42,0,0,0-2.61-1.06,3.82,3.82,0,0,0-2,.57,4.14,4.14,0,0,0-1.52,1.56,4.64,4.64,0,0,0-.58,2.32V43.1h-7V23.89h7v2.85a3.85,3.85,0,0,1,1.17-1.58A7.73,7.73,0,0,1,174,23.85,8.13,8.13,0,0,1,177,23.33Z"/><path class="cls-2" d="M216.44,25.85h15.74V27.8a16.9,16.9,0,0,1-1.12,6.2,15.71,15.71,0,0,1-3.17,5,14.45,14.45,0,0,1-4.9,3.39,16,16,0,0,1-6.32,1.22,16.47,16.47,0,0,1-6.47-1.23,14.62,14.62,0,0,1-5-3.43A15.27,15.27,0,0,1,202,33.89a17.68,17.68,0,0,1,0-12.49,15.22,15.22,0,0,1,3.23-5.1,14.74,14.74,0,0,1,5-3.42,16.47,16.47,0,0,1,6.47-1.23,18.42,18.42,0,0,1,5.12.64A14,14,0,0,1,225.64,14a13.17,13.17,0,0,1,2.75,2.29,16.36,16.36,0,0,1,1.85,2.44l-6.53,3.09a9,9,0,0,0-2.63-2.58,7.83,7.83,0,0,0-4.41-1.11,8,8,0,0,0-3.51.76,8.35,8.35,0,0,0-2.75,2.07,9.41,9.41,0,0,0-1.78,3,11.23,11.23,0,0,0,0,7.36,9.62,9.62,0,0,0,1.78,3,8.35,8.35,0,0,0,2.75,2.07,8.12,8.12,0,0,0,3.51.75,10.14,10.14,0,0,0,3.06-.44,6.89,6.89,0,0,0,2.39-1.25,6.14,6.14,0,0,0,1.59-1.93,6.22,6.22,0,0,0,.7-2.44h-8Z"/><path class="cls-2" d="M242.64,43.1h-7V23.89h7v3h-.12a4.54,4.54,0,0,1,.93-1.39,6.74,6.74,0,0,1,5.22-2.16,7.21,7.21,0,0,1,2.46.4,5.51,5.51,0,0,1,1.62.79L250,30.23a3.4,3.4,0,0,0-1.16-.84A4.54,4.54,0,0,0,246.8,29a3.72,3.72,0,0,0-2.35.72,4.47,4.47,0,0,0-1.37,1.77,5.11,5.11,0,0,0-.44,2Z"/><path class="cls-2" d="M263.93,43.66a11.78,11.78,0,0,1-5.58-1.3,9.63,9.63,0,0,1-5.23-8.81,9.81,9.81,0,0,1,5.23-8.89,11.45,11.45,0,0,1,5.58-1.33,11.2,11.2,0,0,1,5.55,1.33,9.84,9.84,0,0,1,3.77,3.64,10.1,10.1,0,0,1,1.37,5.25,10,10,0,0,1-1.37,5.23,9.7,9.7,0,0,1-3.77,3.58A11.52,11.52,0,0,1,263.93,43.66Zm0-5.78a4,4,0,0,0,2.16-.55,3.7,3.7,0,0,0,1.4-1.55,4.84,4.84,0,0,0,.51-2.25,5.05,5.05,0,0,0-.51-2.3,3.72,3.72,0,0,0-1.4-1.56,4.43,4.43,0,0,0-4.31,0,3.79,3.79,0,0,0-1.43,1.56,5.06,5.06,0,0,0-.52,2.3,4.85,4.85,0,0,0,.52,2.25,3.76,3.76,0,0,0,1.43,1.55A4,4,0,0,0,263.93,37.88Z"/><path class="cls-2" d="M285,32.8a6.78,6.78,0,0,0,.88,3.7,3.86,3.86,0,0,0,5.92,0,6.87,6.87,0,0,0,.87-3.7V23.89h6.9v9.66a10.86,10.86,0,0,1-1.25,5.36,8.51,8.51,0,0,1-3.66,3.51,14.28,14.28,0,0,1-11.64,0,8.62,8.62,0,0,1-3.66-3.51,10.86,10.86,0,0,1-1.26-5.36V23.89H285Z"/><path class="cls-2" d="M317,23.33a9.86,9.86,0,0,1,3.93.82,7.17,7.17,0,0,1,3.15,2.58,8,8,0,0,1,1.23,4.64V43.1h-7V32.52a4.4,4.4,0,0,0-1-3.13,3.42,3.42,0,0,0-2.61-1.06,3.79,3.79,0,0,0-2,.57,4.07,4.07,0,0,0-1.52,1.56,4.54,4.54,0,0,0-.58,2.32V43.1h-7V23.89h7v2.85a3.67,3.67,0,0,1,1.17-1.58,7.8,7.8,0,0,1,2.28-1.31A8.23,8.23,0,0,1,317,23.33Z"/><path class="cls-2" d="M344.54,43.1V40a6.23,6.23,0,0,1-1.46,1.72,8.62,8.62,0,0,1-2.37,1.42,7.86,7.86,0,0,1-2.95.56,8.61,8.61,0,0,1-4.84-1.36,9,9,0,0,1-3.2-3.66,12.23,12.23,0,0,1,0-10.27,9.13,9.13,0,0,1,3.2-3.67,8.46,8.46,0,0,1,4.84-1.37,8.9,8.9,0,0,1,3.29.57,7.65,7.65,0,0,1,2.32,1.37,3.53,3.53,0,0,1,1.1,1.45V10.9h7V43.1Zm-8.49-7.2a4.24,4.24,0,0,0,1.59,1.66,4.3,4.3,0,0,0,2.25.6,4.49,4.49,0,0,0,2.34-.61,4.58,4.58,0,0,0,1.64-1.66,5,5,0,0,0,0-4.77,4.8,4.8,0,0,0-1.64-1.68,4.49,4.49,0,0,0-2.34-.61,4.3,4.3,0,0,0-2.25.6,4.43,4.43,0,0,0-1.59,1.68,5.23,5.23,0,0,0,0,4.79Z"/><path class="cls-2" d="M384.27,36.83a11.73,11.73,0,0,0,4-.64A11.25,11.25,0,0,0,390.87,35l2.94,5.85a12.56,12.56,0,0,1-3.74,1.9,18.45,18.45,0,0,1-6.29,1,17,17,0,0,1-6.41-1.2,16.32,16.32,0,0,1-5.28-3.35A15.79,15.79,0,0,1,368.52,34a15.6,15.6,0,0,1-1.28-6.33,15.76,15.76,0,0,1,1.27-6.35,15.53,15.53,0,0,1,3.56-5.11,16.4,16.4,0,0,1,5.28-3.38,17,17,0,0,1,6.43-1.21,18.45,18.45,0,0,1,6.29,1,12.56,12.56,0,0,1,3.74,1.9l-2.94,5.85a11.25,11.25,0,0,0-2.65-1.24,11.49,11.49,0,0,0-4-.64,11,11,0,0,0-4.18.74,8.44,8.44,0,0,0-4.79,5,9.92,9.92,0,0,0-.6,3.44,10.1,10.1,0,0,0,.6,3.48,8.37,8.37,0,0,0,1.8,2.94,8.28,8.28,0,0,0,3,2A11,11,0,0,0,384.27,36.83Z"/><path class="cls-2" d="M413,43.1V40a5.48,5.48,0,0,1-1,1.38,8.08,8.08,0,0,1-2.26,1.6,7.21,7.21,0,0,1-3.31.72,8.85,8.85,0,0,1-4.89-1.36,9.32,9.32,0,0,1-3.29-3.66,11.76,11.76,0,0,1,0-10.27,9.42,9.42,0,0,1,3.29-3.67,8.69,8.69,0,0,1,4.89-1.37,8,8,0,0,1,3.18.58,7.8,7.8,0,0,1,2.21,1.37A4.77,4.77,0,0,1,413,26.72V23.89h7V43.1Zm-9.1-9.6a4.71,4.71,0,0,0,.62,2.4,4.38,4.38,0,0,0,1.65,1.66,4.43,4.43,0,0,0,2.27.6,4.33,4.33,0,0,0,2.31-.61,4.28,4.28,0,0,0,1.58-1.66,5.19,5.19,0,0,0,0-4.77,4.47,4.47,0,0,0-1.58-1.68,4.33,4.33,0,0,0-2.31-.61,4.43,4.43,0,0,0-2.27.6,4.59,4.59,0,0,0-1.65,1.68A4.68,4.68,0,0,0,403.92,33.5Z"/><path class="cls-2" d="M431.48,43.1h-7V10.9h7Z"/><path class="cls-2" d="M439.92,19.86a3.75,3.75,0,0,1-2.79-1.18A3.82,3.82,0,0,1,436,15.89a3.88,3.88,0,0,1,1.16-2.81,3.76,3.76,0,0,1,2.79-1.19,3.71,3.71,0,0,1,2,.55,4.43,4.43,0,0,1,1.47,1.45,3.72,3.72,0,0,1,.56,2,4,4,0,0,1-4,4ZM436.34,43.1V23.89h7V43.1Z"/><path class="cls-2" d="M446.8,23.89H450V18.81a8.58,8.58,0,0,1,1.19-4.69,7.67,7.67,0,0,1,3.08-2.83A9.6,9.6,0,0,1,462,11a9,9,0,0,1,1.66,1L461,17.15a3.21,3.21,0,0,0-.59-.51,2,2,0,0,0-1.24-.35,2.12,2.12,0,0,0-1,.25,2,2,0,0,0-.82.93,4.51,4.51,0,0,0-.33,2v4.47h4.77v5.78H457V43.1h-7V29.67H446.8Z"/><path class="cls-2" d="M474.5,43.66a11.78,11.78,0,0,1-5.58-1.3,9.63,9.63,0,0,1-5.23-8.81,9.81,9.81,0,0,1,5.23-8.89,11.45,11.45,0,0,1,5.58-1.33,11.26,11.26,0,0,1,5.56,1.33,9.89,9.89,0,0,1,3.76,3.64,10.1,10.1,0,0,1,1.37,5.25,10,10,0,0,1-1.37,5.23,9.74,9.74,0,0,1-3.76,3.58A11.59,11.59,0,0,1,474.5,43.66Zm0-5.78a4,4,0,0,0,2.16-.55,3.79,3.79,0,0,0,1.41-1.55,5,5,0,0,0,.5-2.25,5.18,5.18,0,0,0-.5-2.3,3.81,3.81,0,0,0-1.41-1.56,4.43,4.43,0,0,0-4.31,0,3.79,3.79,0,0,0-1.43,1.56,5.05,5.05,0,0,0-.51,2.3,4.84,4.84,0,0,0,.51,2.25,3.76,3.76,0,0,0,1.43,1.55A4,4,0,0,0,474.5,37.88Z"/><path class="cls-2" d="M495.32,43.1h-7V23.89h7v3h-.12a4.73,4.73,0,0,1,.93-1.39,7.09,7.09,0,0,1,2-1.5,7,7,0,0,1,3.2-.66,7.2,7.2,0,0,1,2.45.4,5.51,5.51,0,0,1,1.62.79l-2.72,5.71a3.44,3.44,0,0,0-1.15-.84,4.61,4.61,0,0,0-2.08-.42,3.72,3.72,0,0,0-2.35.72,4.47,4.47,0,0,0-1.37,1.77,5.11,5.11,0,0,0-.44,2Z"/><path class="cls-2" d="M520.52,23.33a9.86,9.86,0,0,1,3.93.82,7.2,7.2,0,0,1,3.14,2.58,8,8,0,0,1,1.23,4.64V43.1h-7V32.52a4.4,4.4,0,0,0-1-3.13,3.41,3.41,0,0,0-2.61-1.06,3.82,3.82,0,0,0-2,.57,4.14,4.14,0,0,0-1.52,1.56,4.64,4.64,0,0,0-.57,2.32V43.1h-7V23.89h7v2.85a3.67,3.67,0,0,1,1.17-1.58,7.55,7.55,0,0,1,2.28-1.31A8.19,8.19,0,0,1,520.52,23.33Z"/><path class="cls-2" d="M536.82,19.86A3.75,3.75,0,0,1,534,18.68a3.82,3.82,0,0,1-1.16-2.79A3.88,3.88,0,0,1,534,13.08a3.88,3.88,0,0,1,4.79-.64,4.31,4.31,0,0,1,1.46,1.45,3.65,3.65,0,0,1,.57,2,4,4,0,0,1-4,4ZM533.24,43.1V23.89h7V43.1Z"/><path class="cls-2" d="M560.1,43.1V40a5.48,5.48,0,0,1-1.05,1.38,8.23,8.23,0,0,1-2.26,1.6,7.24,7.24,0,0,1-3.31.72,8.85,8.85,0,0,1-4.89-1.36,9.25,9.25,0,0,1-3.29-3.66,11.76,11.76,0,0,1,0-10.27,9.34,9.34,0,0,1,3.29-3.67,8.69,8.69,0,0,1,4.89-1.37,7.83,7.83,0,0,1,5.39,2A4.77,4.77,0,0,1,560,26.72V23.89h7V43.1ZM551,33.5a4.62,4.62,0,0,0,.62,2.4,4.48,4.48,0,0,0,3.92,2.26,4.33,4.33,0,0,0,2.31-.61,4.28,4.28,0,0,0,1.58-1.66,5.27,5.27,0,0,0,0-4.77,4.47,4.47,0,0,0-1.58-1.68,4.33,4.33,0,0,0-2.31-.61,4.4,4.4,0,0,0-2.27.6A4.67,4.67,0,0,0,551,33.5Z"/></g></svg>