<svg id="Square" xmlns="http://www.w3.org/2000/svg" viewBox="0 0 180 180"><defs><style>.cls-1{fill:#00aeef;}.cls-2{fill:#fdb218;}.cls-3{fill:#39b54a;}</style></defs><g id="Proposed_Logo" data-name="Proposed Logo"><path id="California" class="cls-1" d="M93.71,150a9.81,9.81,0,0,0-1.92-2.56h0a13.42,13.42,0,0,1-1.37-1.91c-.71-1.22-.45-1.58-1.09-2.64a6.43,6.43,0,0,0-1.41-1.62C85.17,138.87,48.42,106,48.42,106S48.06,80.72,48,76.47a4.71,4.71,0,0,0-.69-2.54,4.53,4.53,0,0,0-1.07-1.19,5.09,5.09,0,0,0-2.51-1c-.5-.07-11.8-.12-16.8-.12H10.49A4.58,4.58,0,0,0,6,75.24l-.54,2.44a4.58,4.58,0,0,0,.26,2.76s.72,1.63.81,1.8A11,11,0,0,0,6.1,84a18.7,18.7,0,0,0,0,2.44,9.25,9.25,0,0,0-1.83,2.78,7.18,7.18,0,0,0-.44,3.41,10.43,10.43,0,0,0,1.8,4.91c.52.81,1.25,1.75,1.82,2.49.45.57.83,1,1.1,1.36a12.36,12.36,0,0,0,.05,2.16,12.79,12.79,0,0,0,.78,3.2s-.07,1.11-.08,1.2a7.39,7.39,0,0,0,1.31,3.78,26.53,26.53,0,0,0,2.83,3.09c.66.67,1.21,1.21,1.59,1.57.14.31.3.63.48,1A14,14,0,0,0,18.57,121a20.28,20.28,0,0,1,.56,3.7,9.36,9.36,0,0,0,.24,2.29,5.83,5.83,0,0,0,1.55,2.52h0a6.5,6.5,0,0,0,1,.81,6,6,0,0,0,.79.41,1.75,1.75,0,0,0-.5,1.16,1.65,1.65,0,0,0,.22.85,14.66,14.66,0,0,0,.94,1.86c1.06,1.78,3.43,4.88,3.79,5.44a1.71,1.71,0,0,1,.25.52,1.75,1.75,0,0,1,.07.34A4.52,4.52,0,0,0,29,143a10.7,10.7,0,0,0,2,1.45,4.85,4.85,0,0,0,.39,1.12,5,5,0,0,0,2.17,2.14c-.14.37-1.09,2.85,0,4.78A6.32,6.32,0,0,0,34.89,154a8.82,8.82,0,0,0,1.77,1,6.88,6.88,0,0,0,2.93.81,5.75,5.75,0,0,0,2.32-.45,9.77,9.77,0,0,0,1.33.39,8.88,8.88,0,0,0,1.39.21c.22.22.53.52.93.85a8.43,8.43,0,0,0,1.69,1.17,8.79,8.79,0,0,0,2,.66,15.49,15.49,0,0,0,1.56.33,4.29,4.29,0,0,0,.48.91,5.43,5.43,0,0,0,2.4,1.9,6.29,6.29,0,0,0,2.9.49c.42.34.85.7,1.29,1.1s.95.9,1.36,1.33c0,.59.09,1.08.14,1.43a4.51,4.51,0,0,0,.45,1.73,2.73,2.73,0,0,0,.75.79,4.66,4.66,0,0,0,.63,1.89,5.26,5.26,0,0,0,2.93,2.18,8.83,8.83,0,0,0,3.9.36h0s13.7-1.35,15.37-1.54l1.4-.17c.29.05,2.82.46,4.18-1.13a3.16,3.16,0,0,0,.57-1,6.17,6.17,0,0,0,2.23-5,5.81,5.81,0,0,0-1.8-3.6,14.1,14.1,0,0,0,1.13-3.81,6.1,6.1,0,0,0,1.28-.73,5.94,5.94,0,0,0,1.53-2.29A5.73,5.73,0,0,0,93.71,150Z"/><g id="Poppy_2" data-name="Poppy 2"><path id="Petals" class="cls-2" d="M125.14,161.58a1.51,1.51,0,0,0,.18-.78c0-.28,0-.41.12-.49a1.48,1.48,0,0,0,.32-.94A1.55,1.55,0,0,0,125,159a8,8,0,0,1-1-.3l-.86-.31c-10.27-9.17-18.06,4.39-16.27-5.78,0-.27.12-.85.16-1.28a5.06,5.06,0,0,1,.26-1.16,8.67,8.67,0,0,0,.33-1,5.63,5.63,0,0,1,.33-1,5.74,5.74,0,0,0,.3-.76,1.7,1.7,0,0,1,.44-.74c.5-.48.77-.86.72-1a2.38,2.38,0,0,1,.39-1.3A.57.57,0,0,0,110,144a.59.59,0,0,1,.16-.38.91.91,0,0,0,.22-.45,2.51,2.51,0,0,1,.29-.68,7.16,7.16,0,0,0,.44-.83,3.06,3.06,0,0,1,.43-.73,15.41,15.41,0,0,1,2.36-1.58,4.23,4.23,0,0,0,1-.67,1.5,1.5,0,0,1,1.07-.35c.11,0,.49,0,.84-.07.58-.06.67-.09,1-.38a.94.94,0,0,1,.79-.32,3.22,3.22,0,0,0,.64-.06c.44-.12.75,0,1.23.46s.48.46.86.41.46,0,1,.24a3.74,3.74,0,0,0,.67.3c.06,0,.2-.15.3-.33a5.9,5.9,0,0,1,1.12-1.38,13,13,0,0,1,2.58-1.29l1-.3c.44-.14,1.33-.17,1.33,0s1.1.09,1.58-.07c1.21-.48,3.17-.36,3.82.77.16-.16.74-.12,1.22.08l.3.13V137c0,.53,0,.54.27.63a1.59,1.59,0,0,0,.39.09.69.69,0,0,1,.36.25.69.69,0,0,0,.38.25c.1,0,.24.15.4.42a2.2,2.2,0,0,0,.48.59c.12.1.23.23.23.31a.39.39,0,0,0,.09.24.93.93,0,0,1,.15.37c0,.24.13.32.56.54a6.86,6.86,0,0,0,.8.36,3.72,3.72,0,0,1,1.31,1.38c.24.41.18.67-.2.85-.22.11-.34.27-.58.78a6.57,6.57,0,0,0-.3.71,1.52,1.52,0,0,0,.22.39c.2.28.21.34.12.56a2.17,2.17,0,0,0-.2,1c.09.24.54.37,1.44.44a2.49,2.49,0,0,1,1.21.25,1.57,1.57,0,0,0,.91.21,1.91,1.91,0,0,1,1.38.5,1.08,1.08,0,0,0,.42.22.82.82,0,0,1,.65.56c2.67,1.63.55,3.43-.25,5.43a3.17,3.17,0,0,1-.88.35,3.09,3.09,0,0,0-1.36.63,1.79,1.79,0,0,1-.47.29.32.32,0,0,0-.19.13,3.06,3.06,0,0,1-.66.4l-1.39.71-.86.43-1.73,0a5.22,5.22,0,0,0-2.32.26,9.88,9.88,0,0,1-1.21.35,15.16,15.16,0,0,0-1.88.57c-.69.25-1.63.55-2.09.66a8.24,8.24,0,0,1-2.78.19l-1.93,0,0,.21a21.08,21.08,0,0,1-.82,2.55Z"/><path class="cls-3" d="M126.53,159.52c0,.19-.31,1.06-.59,1.92a6,6,0,0,1-.23.62,18.34,18.34,0,0,0-.73,1.8,7.3,7.3,0,0,1-.35.87,6.41,6.41,0,0,0-.34.8c-.13.34-.38,1-.56,1.36s-.41,1-.5,1.21-.21.58-.27.72a15.93,15.93,0,0,0-1.31,4.05l-.27,3.18c0,.42-.15,1.35-.29,2.24-.07.41-.1.59-.13.7s0,.16,0,.16-.05.22-.06.29h-.79a32.52,32.52,0,0,0,.47-4.71,4.44,4.44,0,0,1,.1-1.25,13.08,13.08,0,0,1,.43-1.49,6.47,6.47,0,0,0,.21-.71,1,1,0,0,1,.12-.37,8.49,8.49,0,0,0,.5-1.47,1.36,1.36,0,0,1,.17-.45,26.5,26.5,0,0,0,1.25-3,3.14,3.14,0,0,1,.25-.6c.13-.28.25-.53.25-.56a3.69,3.69,0,0,1,.2-.49,8.51,8.51,0,0,0,.63-1.49,5.46,5.46,0,0,1,.48-1.25,1.51,1.51,0,0,0,.18-.78c0-.28,0-.41.12-.49a1.48,1.48,0,0,0,.32-.94A1.62,1.62,0,0,0,125,159c-.18,0-.16-.14,0-.31s.16-.28-.07-.28a1.12,1.12,0,0,1-.47-.26c-.3-.24-.36-.25-.81-.21a5.45,5.45,0,0,1-.81,0c-.3,0-.33-.07-.33-.28a.5.5,0,0,0-.13-.33.46.46,0,0,1-.13-.31c0-.16-.07-.23-.37-.36a.94.94,0,0,1-.43-.31,1.78,1.78,0,0,0-.12-.29c-.11-.22-.09-.3.09-.36s.84-.49.84-.63.38-.27.59-.15a.82.82,0,0,0,.3.07,1.43,1.43,0,0,1,.53.28c.49.38,1,.47,1.19.21s.15-.16.26-.08a.27.27,0,0,0,.23.07.61.61,0,0,1,.31,0,.78.78,0,0,0,.47,0,.43.43,0,0,1,.49,0c.28.18.44.18.51,0s0-.5-.18-.5-.19-.11-.26-.24a1,1,0,0,0-.5-.39c-.19-.07-.36-.19-.38-.27a6.53,6.53,0,0,1,1.18-2.56c.17-.15.18-.15.18,0a.77.77,0,0,1-.13.32c-.11.14-.11.18,0,.36a.52.52,0,0,1,.08.35.3.3,0,0,0,.08.28.41.41,0,0,1,.13.21.28.28,0,0,0,.1.17c.15.12.35,0,1.47-1.14a9.34,9.34,0,0,1,1-.94s.11.1.17.22a.35.35,0,0,1,0,.37,1,1,0,0,0-.05.54c.06.42.08.43.68.29.26-.06.4-.06.48,0s0,.17-.34.52a2.91,2.91,0,0,0-.46.49c0,.1.71,0,1.11-.15a1.55,1.55,0,0,1,.46-.11c.13,0,.13,0,0,.12a.64.64,0,0,1-.33.12c-.18,0-.26,0-.83.41-.25.16-.29.23-.25.39s0,.22-.15.28a4.35,4.35,0,0,0-.81.68c-.54.53-.6.61-.47.69a10.07,10.07,0,0,0,2.38-.11c.25,0,1-.12,1.58-.17a25.85,25.85,0,0,0,4.34-.65,4.61,4.61,0,0,1,.71-.13,5.83,5.83,0,0,0,1-.2,5.31,5.31,0,0,1,1-.15,5.64,5.64,0,0,0,.88-.08c.25-.05.28,0,.17.06a11,11,0,0,1-2.33,1,3.21,3.21,0,0,0-1.48.67c-.31.21-.73.47-.94.58a1.93,1.93,0,0,0-.54.37.58.58,0,0,1-.3.17.84.84,0,0,0-.4.29.69.69,0,0,1-.47.3,7.58,7.58,0,0,0-1.31.41,10.81,10.81,0,0,1-4,.92c-.78,0-.89,0-.77-.12s.19-.19-.15-.23-.29,0-.16.07.13.14.1.17a5.1,5.1,0,0,1-1,.06C126.58,159.31,126.57,159.31,126.53,159.52Z"/><path id="Leaf" class="cls-3" d="M118.46,173.67c-1.07-1.44,2.21-1.61,2.53-.31C120.15,173.44,119.31,174,118.46,173.67Z"/></g><g id="Poppy_1" data-name="Poppy 1"><path id="Petals-2" data-name="Petals" class="cls-2" d="M98.88,133.5l-.29-1.22a3.5,3.5,0,0,0-1.15-.27,12.51,12.51,0,0,1-6.32-2.81A55.53,55.53,0,0,1,84.89,123c-1.13-2.12-2.53-.43-2.09-2.4-.27-.25-.45-.53-.4-.61s-.18-1-.58-1.41a1.69,1.69,0,0,1-.35-1.16,1.58,1.58,0,0,0-.4-1.19c-.28-.3-.33-.46-.21-.67a1.11,1.11,0,0,0-.06-.9,8.64,8.64,0,0,1-.32-1.41c-.09-.67-.06-.79.16-.79a.76.76,0,0,1,.49.28c.13.15.37.46.55.68l.32.4,1-.52a22.37,22.37,0,0,1,2.11-.92c.94-.35,1.19-.38,1.64-.23a2.37,2.37,0,0,0,1,.09l1-.18a.85.85,0,0,0,.81-.61,3.88,3.88,0,0,1,.85-1.08c.61-.55.71-.58,2.23-.71.87-.07,2.23-.15,3-.17s2.59-.15,4-.3a22.1,22.1,0,0,1,3.11-.18,14.35,14.35,0,0,1,2.92.71,5.82,5.82,0,0,0,1.72.34,3.42,3.42,0,0,1,2.56,1.13,1.33,1.33,0,0,0,1,.56c1.11.16,1.73.66,1.84,1.46a2.43,2.43,0,0,0,.26.87,2.09,2.09,0,0,1,.28.71,3.17,3.17,0,0,0,.82,1.19,3.18,3.18,0,0,1,.71.89,1.64,1.64,0,0,1-.52.65,7.09,7.09,0,0,0-1.4,1.72c0,.27.53-.22,1.2-1.1,1.13-1.49,1.73-1.7,2.23-.8l.2.37s.22-.05.43-.19a1.12,1.12,0,0,1,.89-.16c.54.1.58.45,0,.46a2.62,2.62,0,0,0-1,.59c-.58.49-.64.59-.35.59a2.52,2.52,0,0,0,1.56-.81c1.16-1.14,1.71-1.29,2.15-.6.19.31.16.39-.31.88s-.5.54-.18.54.35.1.35.24.14.17.72-.11.72-.34,1,0a.93.93,0,0,1,.32.56,7.19,7.19,0,0,0,.3,1.22,11.27,11.27,0,0,1,.34,4.56,16.91,16.91,0,0,1-2.25,4.93c-1.71,2.43-3.56,3.08-7.74,2.73a16.47,16.47,0,0,1-5.47-1.37c-.7-.32-.94-.36-1.2-.22a18.56,18.56,0,0,1-4.54.85l-1.48.16Z"/><path id="Stem" class="cls-3" d="M103.77,160.79a170.26,170.26,0,0,1,.57,19.83h-1.53c.18-3.78.2-7,.18-9.35a150.27,150.27,0,0,0-1.47-20c-.18-1.29-.79-4.79-.88-5.12-.27-.92-1.44-9.31-1.76-12.65a3.09,3.09,0,0,0-.29-1.22,3.5,3.5,0,0,0-1.15-.27,12.33,12.33,0,0,1-5.71-2.33c-.87-.64-1.2-1-.7-.85.69.26.23-1-.79-2.23-.48-.56-1.13-2-1-2.14a1.52,1.52,0,0,1,.68.27c.82.44,1.18.42,1.18-.06a.89.89,0,0,0-.26-.59,14.28,14.28,0,0,1-1.66-2.44c0-.53,2,1.16,2.31,2a6.48,6.48,0,0,0,.63,1.09,2.08,2.08,0,0,1,.41.74.63.63,0,0,0,.23.37,1.75,1.75,0,0,1,.34.86,2.22,2.22,0,0,0,1.27,1.67,19.43,19.43,0,0,0,6.35.09,2.07,2.07,0,0,1,1.28-.08,9.31,9.31,0,0,0,1.87.18,8,8,0,0,1,2.27.34,6.19,6.19,0,0,0,1.25.31c.79,0,0,.65-1,.85a5.2,5.2,0,0,0-2.32,1.12c0,.12.2.31.44.43l.44.21-.88.21a13.89,13.89,0,0,1-2.26.28,7.34,7.34,0,0,0-1.56.17c-.56.34.31,8.88,1.51,14.87.38,1.87.46,2.26.53,2.62V150l0,.12S103.34,156.53,103.77,160.79Z"/><path id="Upper_Leaf" data-name="Upper Leaf" class="cls-3" d="M100,139.64c.64-1.43,4.39-.56,2.86.87C101.83,140.66,101,139.91,100,139.64Z"/><path id="Lower_Leaf" data-name="Lower Leaf" class="cls-3" d="M99.45,155.33c-1.53-1.44,2.21-2.3,2.85-.88C101.35,154.72,100.49,155.48,99.45,155.33Z"/></g><g id="Text"><g id="California-2" data-name="California"><path id="path4610" class="cls-3" d="M66.87,90.75c-4.39,0-6.32-3.07-6.32-5.65s1.93-5.62,6.32-5.62a6.67,6.67,0,0,1,3.77,1.19L72.49,77a10.32,10.32,0,0,0-6.29-1.76c-5.44,0-10.38,4.46-10.38,10s5,9.9,10.38,9.9a10.28,10.28,0,0,0,6.29-1.77l-1.85-3.72a6.67,6.67,0,0,1-3.77,1.19Z"/><path id="path4612" class="cls-3" d="M73.33,88.75a6,6,0,0,0,5.92,6.3,5.25,5.25,0,0,0,3.9-1.7h0V94.7h4.07V82.78H83.15v1.14a5.42,5.42,0,0,0-3.9-1.49,6,6,0,0,0-5.92,6.32Zm4.37,0a2.78,2.78,0,1,1,5.55,0,2.78,2.78,0,1,1-5.55,0Z"/><path id="path4614" class="cls-3" d="M90.07,94.7h4.11v-20H90.07Z"/><path id="path4616" class="cls-3" d="M99.08,75.42a2.44,2.44,0,1,0,2.44,2.44A2.44,2.44,0,0,0,99.08,75.42ZM97,82.78h4.12V94.7H97Z"/><path id="path4618" class="cls-3" d="M104.69,82.78H103v3.14h1.72V94.7h4.11V85.92h2.75V82.78H108.8V80.37c0-1.65.24-2.35,1.28-2.35a2.71,2.71,0,0,1,1.23.32l1.44-2.9a5.68,5.68,0,0,0-3.39-1.07c-3,0-4.64,2.39-4.67,5.88Z"/><path id="path4620" class="cls-3" d="M111.85,88.75c0,3.67,2.88,6.3,7.18,6.3,4.11,0,7.1-2.63,7.1-6.3S123,82.43,119,82.43s-7.18,2.6-7.18,6.32Zm4.36,0a2.78,2.78,0,1,1,5.56,0,2.78,2.78,0,1,1-5.56,0Z"/><path id="path4622" class="cls-3" d="M128,94.7h4.11V88.43A2.47,2.47,0,0,1,134.55,86a3.49,3.49,0,0,1,2.14.65l1.71-3.48a4.87,4.87,0,0,0-2.6-.75,4.66,4.66,0,0,0-3.64,2.07h0V82.78H128Z"/><path id="path4624" class="cls-3" d="M139.57,94.7h4.11V88a2.54,2.54,0,0,1,2.44-2.32A2.2,2.2,0,0,1,148.25,88V94.7h4.12V86.85c0-3.33-3.05-4.42-5.23-4.42A5,5,0,0,0,143.72,84h0V82.78h-4.11Z"/><path id="path4626" class="cls-3" d="M157,75.42a2.44,2.44,0,1,0,2.43,2.44A2.44,2.44,0,0,0,157,75.42Zm-2.12,7.36H159V94.7H154.9Z"/><path id="path4628" class="cls-3" d="M161.07,88.75a6,6,0,0,0,5.93,6.3,5.26,5.26,0,0,0,3.9-1.7h0V94.7H175V82.78H170.9v1.14a5.42,5.42,0,0,0-3.9-1.49A6,6,0,0,0,161.07,88.75Zm4.37,0a2.78,2.78,0,1,1,5.55,0,2.78,2.78,0,1,1-5.55,0Z"/></g><g id="Ground"><path id="path4631" class="cls-3" d="M73.18,56.25H64.32v3.37h4.42c0,2.35-2.07,3.69-4.16,3.69-2.69,0-4.88-2.64-4.88-5.9s2.19-6,4.88-6a4.72,4.72,0,0,1,4.27,2.46l2.86-3.13a9,9,0,0,0-7.39-3.28c-5.38,0-9.33,4.44-9.33,9.94s4.18,9.92,9.33,9.92a8.68,8.68,0,0,0,8.86-6.92Z"/><path id="path4633" class="cls-3" d="M75.08,67h4.11V60.71a2.48,2.48,0,0,1,2.44-2.41,3.49,3.49,0,0,1,2.14.65l1.72-3.49a5,5,0,0,0-2.6-.74,4.67,4.67,0,0,0-3.65,2.07h0V55.07H75.08Z"/><path id="path4635" class="cls-3" d="M85.66,61c0,3.67,2.88,6.29,7.17,6.29,4.12,0,7.11-2.62,7.11-6.29s-3.16-6.32-7.11-6.32-7.17,2.6-7.17,6.32ZM90,61a2.78,2.78,0,1,1,5.56,0A2.78,2.78,0,1,1,90,61Z"/><path id="path4637" class="cls-3" d="M105.73,55.07h-4.11v6.66c0,4,2,5.6,6.46,5.6s6.46-1.6,6.46-5.6V55.07h-4.12v5.66c0,2.35-.62,3.26-2.34,3.26s-2.35-.91-2.35-3.26Z"/><path id="path4639" class="cls-3" d="M117.1,67h4.11V60.25a2.54,2.54,0,0,1,2.44-2.33,2.2,2.2,0,0,1,2.13,2.33V67h4.12V59.13c0-3.32-3.05-4.41-5.23-4.41a4.94,4.94,0,0,0-3.42,1.6h0V55.07H117.1Z"/><path id="path4641" class="cls-3" d="M131.57,61a6,6,0,0,0,5.93,6.29,5.29,5.29,0,0,0,3.9-1.69h0V67h4.07V47H141.4V56.2a5.43,5.43,0,0,0-3.9-1.48A6,6,0,0,0,131.57,61Zm4.37,0a2.78,2.78,0,1,1,5.55,0,2.78,2.78,0,1,1-5.55,0Z"/></g><g id="Common"><path id="path4644" class="cls-3" d="M47.33,36.76c-4.39,0-6.31-3.07-6.31-5.65s1.92-5.62,6.31-5.62a6.67,6.67,0,0,1,3.77,1.19L53,23a10.37,10.37,0,0,0-6.3-1.76c-5.44,0-10.38,4.46-10.38,10s5,9.9,10.38,9.9A10.33,10.33,0,0,0,53,39.29L51.1,35.57a6.67,6.67,0,0,1-3.77,1.19Z"/><path id="path4646" class="cls-3" d="M53.79,34.76c0,3.67,2.88,6.3,7.18,6.3,4.11,0,7.11-2.63,7.11-6.3S64.92,28.44,61,28.44,53.79,31.05,53.79,34.76Zm4.37,0a2.78,2.78,0,1,1,5.55,0,2.78,2.78,0,1,1-5.55,0Z"/><path id="path4648" class="cls-3" d="M69.94,40.71h4.11v-7a1.85,1.85,0,0,1,1.91-2A2,2,0,0,1,78.05,34v6.74h4.11V33.6a1.82,1.82,0,0,1,1.9-1.86A2,2,0,0,1,86.15,34v6.74h4.12V32.86c0-3.32-2.47-4.42-4.65-4.42a5.25,5.25,0,0,0-4,2.19,4.49,4.49,0,0,0-4.16-2.19,4.93,4.93,0,0,0-3.41,1.61h0V28.79H69.94Z"/><path id="path4650" class="cls-3" d="M92.81,40.71h4.11v-7a1.84,1.84,0,0,1,1.9-2A2,2,0,0,1,100.91,34v6.74H105V33.6a1.83,1.83,0,0,1,1.91-1.86A2,2,0,0,1,109,34v6.74h4.11V32.86c0-3.32-2.46-4.42-4.64-4.42a5.25,5.25,0,0,0-3.95,2.19,4.49,4.49,0,0,0-4.16-2.19A5,5,0,0,0,97,30.05h0V28.79H92.81Z"/><path id="path4652" class="cls-3" d="M114.81,34.76c0,3.67,2.88,6.3,7.18,6.3,4.11,0,7.11-2.63,7.11-6.3s-3.16-6.32-7.11-6.32-7.18,2.61-7.18,6.32Zm4.37,0a2.78,2.78,0,1,1,5.55,0,2.78,2.78,0,1,1-5.55,0Z"/><path id="path4654" class="cls-3" d="M131,40.71h4.11V34a2.54,2.54,0,0,1,2.44-2.32A2.2,2.2,0,0,1,139.65,34v6.74h4.11V32.86c0-3.32-3-4.42-5.22-4.42a4.93,4.93,0,0,0-3.42,1.61h-.05V28.79H131Z"/></g></g></g></svg>