<?xml version="1.0" encoding="UTF-8" standalone="no"?>
<!-- Created with Inkscape (http://www.inkscape.org/) -->

<svg
   xmlns:dc="http://purl.org/dc/elements/1.1/"
   xmlns:cc="http://creativecommons.org/ns#"
   xmlns:rdf="http://www.w3.org/1999/02/22-rdf-syntax-ns#"
   xmlns:svg="http://www.w3.org/2000/svg"
   xmlns="http://www.w3.org/2000/svg"
   xmlns:sodipodi="http://sodipodi.sourceforge.net/DTD/sodipodi-0.dtd"
   xmlns:inkscape="http://www.inkscape.org/namespaces/inkscape"
   width="173.34177mm"
   height="83.166283mm"
   viewBox="0 0 173.34177 83.166284"
   version="1.1"
   id="svg8"
   inkscape:version="0.92.3 (2405546, 2018-03-11)"
   sodipodi:docname="commonground.svg">
  <defs
     id="defs2">
    <clipPath
       clipPathUnits="userSpaceOnUse"
       id="clipPath6456">
      <path
         style="opacity:0.375;fill:#ffffff;stroke-width:3.77952671"
         d="m 452.16953,547.99254 -0.0524,0.23509 c -0.0287,0.12926 -0.12381,0.55525 -0.21082,0.9465 l -0.1584,0.71131 0.42733,1.00388 c 0.55244,1.29804 0.61225,1.8655 0.30243,2.86772 -0.35059,1.1345 -0.39562,1.46959 -0.29045,2.16393 0.13175,0.87088 -0.009,1.28224 -0.75173,2.21113 -0.88822,1.10937 -0.98178,1.34132 -0.91223,2.26073 0.0726,0.96321 0.48848,1.78617 1.60352,3.17495 1.71808,2.1399 1.92094,2.60036 2.02634,4.59942 0.0669,1.27321 0.10742,1.48744 0.41365,2.1899 0.34692,0.7962 0.35622,0.91174 0.15889,1.99143 -0.0977,0.53492 0.33441,1.12075 2.19802,2.97959 1.45723,1.45346 1.61245,1.64621 2.1174,2.62923 0.62183,1.21055 1.20936,2.00349 1.71377,2.31258 0.30082,0.18444 0.44022,0.20221 1.02758,0.1338 0.37368,-0.0439 0.75002,-0.11037 0.83625,-0.14816 0.11274,-0.0495 0.23017,0.0707 0.41711,0.42856 0.14317,0.27364 0.45365,0.70923 0.68987,0.96794 0.23604,0.25852 0.45479,0.57271 0.48571,0.69762 0.0585,0.23584 -0.0412,0.20145 -1.76887,-0.61678 -0.32962,-0.15609 -0.55555,-0.0302 -0.55555,0.30803 0,0.15988 0.11758,0.86944 0.26139,1.57659 0.14355,0.70712 0.26143,1.63427 0.26143,2.06019 0,0.7079 0.0249,0.79827 0.2872,1.05188 0.36802,0.35527 1.8265,1.04681 2.40569,1.14085 0.77066,0.1251 0.78928,0.63277 0.0411,1.12781 -0.45931,0.30387 -0.62736,0.75001 -0.49104,1.30322 0.10522,0.42795 0.69724,1.4457 1.32239,2.27418 1.33456,1.76866 2.60167,3.66278 2.60167,3.88887 0,0.36056 0.56602,0.91419 1.72826,1.69099 l 1.03553,0.69207 -0.0325,0.49078 c -0.0287,0.44851 0.007,0.53083 0.40119,0.95882 0.23728,0.25777 0.60536,0.55423 0.81766,0.65927 0.31862,0.15647 0.38042,0.23811 0.35403,0.46684 -0.02,0.1527 0.0413,0.55851 0.13081,0.90369 0.20134,0.77647 0.20383,1.66227 0.007,2.00855 -0.33093,0.57899 -0.067,0.97864 1.0045,1.52168 0.61563,0.31219 0.81577,0.31672 1.61228,0.0378 0.76991,-0.27099 1.35062,-0.2313 2.18295,0.15005 0.45849,0.20939 0.77485,0.2778 1.28092,0.2778 0.83018,0 1.11977,0.14173 2.0729,1.01707 0.40245,0.36964 0.89637,0.75677 1.0976,0.86079 0.64633,0.33373 1.79071,0.63405 2.81645,0.73787 0.87377,0.0881 1.02842,0.13418 1.23417,0.36888 0.1423,0.16177 0.23517,0.40385 0.23517,0.61206 0,0.52615 0.19124,0.96121 0.48039,1.09285 0.14385,0.065 0.55293,0.11981 0.90954,0.12132 1.07081,0.003 2.11537,0.61365 3.7838,2.20884 1.29628,1.23927 1.64257,1.89422 1.6962,3.20855 0.0426,1.04735 0.22779,1.51136 0.67721,1.6975 0.27847,0.11528 0.30345,0.16328 0.24502,0.47373 -0.0508,0.27137 -0.0163,0.3948 0.16282,0.57339 0.22156,0.22223 0.27599,0.22526 2.0686,0.16667 1.02282,-0.0378 2.70034,-0.1799 3.77482,-0.32617 v 2.7e-4 c 1.06363,-0.14476 3.46264,-0.40593 5.33116,-0.57888 1.86853,-0.17234 3.56783,-0.36774 3.77625,-0.43279 0.28724,-0.0888 0.4717,-0.0877 0.76213,0.008 0.50498,0.16743 0.6241,0.10545 0.7736,-0.39281 0.0695,-0.23319 0.24053,-0.49304 0.38567,-0.58821 0.31737,-0.20863 0.32523,-0.38471 0.0426,-0.96854 -0.24341,-0.50271 -0.67288,-0.85935 -1.07454,-0.89261 -0.2414,-0.0227 -0.27186,-0.0748 -0.33093,-0.60083 -0.0355,-0.31786 -0.10024,-0.69475 -0.14317,-0.83671 -0.0601,-0.19767 0.0249,-0.45339 0.37077,-1.10185 0.65107,-1.22385 0.78207,-1.65305 0.86362,-2.83158 0.0693,-0.99851 0.0938,-1.08374 0.45529,-1.57637 0.2826,-0.38505 0.49095,-0.55321 0.79972,-0.64577 0.61605,-0.18368 1.0543,-0.59195 1.0543,-0.97999 0,-0.26079 -0.15016,-0.46571 -0.81298,-1.11432 -0.53529,-0.52377 -0.94703,-1.04526 -1.2058,-1.52715 -0.21619,-0.40249 -0.55527,-1.01394 -0.75379,-1.35893 -0.19846,-0.34507 -0.36155,-0.76373 -0.36219,-0.93056 -0.002,-0.38959 -0.15802,-0.54142 -4.86036,-4.7181 -4.46476,-3.96559 -6.55857,-5.83015 -7.05758,-6.28456 -0.20134,-0.18331 -0.46516,-0.419 -0.58637,-0.52411 -0.42767,-0.37077 -1.77845,-1.56945 -3.69498,-3.27885 -1.06609,-0.95089 -3.65528,-3.25304 -5.75378,-5.11597 -2.09849,-1.86293 -3.83895,-3.41352 -3.86771,-3.44591 -0.0287,-0.034 -0.4521,-0.41397 -0.94081,-0.84786 -0.48868,-0.43529 -1.93517,-1.72116 -3.21438,-2.85891 l -2.32585,-2.06861 -0.002,-1.7413 c -0.003,-3.65057 -0.31143,-22.7192 -0.36873,-22.81198 -0.0367,-0.0593 -5.02717,-0.0975 -12.75277,-0.0975 z"
         id="path6458"
         inkscape:connector-curvature="0"
         sodipodi:nodetypes="ccccccccccsccsccccccccscccccccscccccccccccsccccsccsccccccccccccccccccccsscccsccssccscccsc" />
    </clipPath>
  </defs>
  <sodipodi:namedview
     id="base"
     pagecolor="#ffffff"
     bordercolor="#666666"
     borderopacity="1.0"
     inkscape:pageopacity="0.0"
     inkscape:pageshadow="2"
     inkscape:zoom="1.0840461"
     inkscape:cx="331.58426"
     inkscape:cy="134.27725"
     inkscape:document-units="mm"
     inkscape:current-layer="layer1"
     showgrid="false"
     inkscape:object-nodes="false"
     inkscape:window-width="1853"
     inkscape:window-height="1025"
     inkscape:window-x="67"
     inkscape:window-y="27"
     inkscape:window-maximized="1"
     fit-margin-top="0"
     fit-margin-left="0"
     fit-margin-right="0"
     fit-margin-bottom="0" />
  <metadata
     id="metadata5">
    <rdf:RDF>
      <cc:Work
         rdf:about="">
        <dc:format>image/svg+xml</dc:format>
        <dc:type
           rdf:resource="http://purl.org/dc/dcmitype/StillImage" />
        <dc:title></dc:title>
      </cc:Work>
    </rdf:RDF>
  </metadata>
  <g
     inkscape:label="Layer 1"
     inkscape:groupmode="layer"
     id="layer1"
     transform="translate(-28.926909,-111.64684)">
    <path
       id="path4644"
       style="font-style:normal;font-variant:normal;font-weight:bold;font-stretch:normal;font-size:5.30319929px;line-height:125%;font-family:'League Spartan';-inkscape-font-specification:'League Spartan, Bold';font-variant-ligatures:normal;font-variant-caps:normal;font-variant-numeric:normal;font-feature-settings:normal;text-align:start;letter-spacing:0px;word-spacing:0px;writing-mode:lr-tb;text-anchor:start;fill:#39b54a;fill-opacity:1;stroke:none;stroke-width:1.05833328px;stroke-linecap:butt;stroke-linejoin:miter;stroke-opacity:1"
       d="m 39.024201,139.81574 c -4.00922,0 -5.76988,-2.80008 -5.76988,-5.15468 0,-2.33344 1.76066,-5.13352 5.76988,-5.13352 2.036428,0 3.436472,1.08184 3.436472,1.08184 l 1.697024,-3.39404 c 0,0 -1.951576,-1.61216 -5.748668,-1.61216 -4.963796,0 -9.48212,4.07284 -9.48212,9.10028 0,5.00624 4.53954,9.03664 9.48212,9.03664 3.797092,0 5.748668,-1.61216 5.748668,-1.61216 l -1.697024,-3.39404 c 0,0 -1.400044,1.08184 -3.436472,1.08184 z"
       inkscape:connector-curvature="0"
       inkscape:export-filename="/home/mollineaux/repos/commongndca/img/commongnd.png"
       inkscape:export-xdpi="468.89999"
       inkscape:export-ydpi="468.89999" />
    <path
       id="path4646"
       style="font-style:normal;font-variant:normal;font-weight:bold;font-stretch:normal;font-size:5.30319929px;line-height:125%;font-family:'League Spartan';-inkscape-font-specification:'League Spartan, Bold';font-variant-ligatures:normal;font-variant-caps:normal;font-variant-numeric:normal;font-feature-settings:normal;text-align:start;letter-spacing:0px;word-spacing:0px;writing-mode:lr-tb;text-anchor:start;fill:#39b54a;fill-opacity:1;stroke:none;stroke-width:1.05833328px;stroke-linecap:butt;stroke-linejoin:miter;stroke-opacity:1"
       d="m 44.919369,137.99146 c 0,3.3516 2.630388,5.74864 6.554756,5.74864 3.754656,0 6.491136,-2.39704 6.491136,-5.74864 0,-3.39404 -2.88496,-5.76988 -6.491136,-5.76988 -3.669816,0 -6.554756,2.37584 -6.554756,5.76988 z m 3.988008,0 c 0,-1.50612 1.124276,-2.56676 2.545532,-2.56676 1.400048,0 2.524312,1.06064 2.524312,2.56676 0,1.48488 -1.060628,2.54552 -2.524312,2.54552 -1.52732,0 -2.545532,-1.06064 -2.545532,-2.54552 z"
       inkscape:connector-curvature="0"
       inkscape:export-filename="/home/mollineaux/repos/commongndca/img/commongnd.png"
       inkscape:export-xdpi="468.89999"
       inkscape:export-ydpi="468.89999" />
    <path
       id="path4648"
       style="font-style:normal;font-variant:normal;font-weight:bold;font-stretch:normal;font-size:5.30319929px;line-height:125%;font-family:'League Spartan';-inkscape-font-specification:'League Spartan, Bold';font-variant-ligatures:normal;font-variant-caps:normal;font-variant-numeric:normal;font-feature-settings:normal;text-align:start;letter-spacing:0px;word-spacing:0px;writing-mode:lr-tb;text-anchor:start;fill:#39b54a;fill-opacity:1;stroke:none;stroke-width:1.05833328px;stroke-linecap:butt;stroke-linejoin:miter;stroke-opacity:1"
       d="m 59.666581,143.42194 h 3.75464 v -6.36384 c 0,-0.86972 0.48792,-1.82432 1.73948,-1.82432 1.3364,0 1.90912,0.9546 1.90912,2.03644 v 6.15172 h 3.75468 v -6.49112 c 0.0424,-0.82732 0.55152,-1.69704 1.73944,-1.69704 1.3364,0 1.90916,0.9546 1.90916,2.03644 v 6.15172 h 3.75468 v -7.16992 c 0,-3.03344 -2.24856,-4.03044 -4.24256,-4.03044 -1.18792,0 -2.46068,0.61516 -3.6062,1.994 -0.76364,-1.46368 -2.3546,-1.994 -3.79708,-1.994 -1.18792,0 -2.26976,0.61516 -3.11828,1.46368 h -0.0424 v -1.14548 h -3.75468 z"
       inkscape:connector-curvature="0"
       inkscape:export-filename="/home/mollineaux/repos/commongndca/img/commongnd.png"
       inkscape:export-xdpi="468.89999"
       inkscape:export-ydpi="468.89999" />
    <path
       id="path4650"
       style="font-style:normal;font-variant:normal;font-weight:bold;font-stretch:normal;font-size:5.30319929px;line-height:125%;font-family:'League Spartan';-inkscape-font-specification:'League Spartan, Bold';font-variant-ligatures:normal;font-variant-caps:normal;font-variant-numeric:normal;font-feature-settings:normal;text-align:start;letter-spacing:0px;word-spacing:0px;writing-mode:lr-tb;text-anchor:start;fill:#39b54a;fill-opacity:1;stroke:none;stroke-width:1.05833328px;stroke-linecap:butt;stroke-linejoin:miter;stroke-opacity:1"
       d="m 80.547901,143.42194 h 3.75468 v -6.36384 c 0,-0.86972 0.487886,-1.82432 1.739446,-1.82432 1.33644,0 1.90916,0.9546 1.90916,2.03644 v 6.15172 h 3.75468 v -6.49112 c 0.0424,-0.82732 0.55152,-1.69704 1.73944,-1.69704 1.3364,0 1.90916,0.9546 1.90916,2.03644 v 6.15172 h 3.75464 v -7.16992 c 0,-3.03344 -2.24852,-4.03044 -4.24256,-4.03044 -1.18792,0 -2.46068,0.61516 -3.60616,1.994 -0.76364,-1.46368 -2.35464,-1.994 -3.79708,-1.994 -1.18792,0 -2.2698,0.61516 -3.118286,1.46368 h -0.0424 v -1.14548 h -3.75468 z"
       inkscape:connector-curvature="0"
       inkscape:export-filename="/home/mollineaux/repos/commongndca/img/commongnd.png"
       inkscape:export-xdpi="468.89999"
       inkscape:export-ydpi="468.89999" />
    <path
       id="path4652"
       style="font-style:normal;font-variant:normal;font-weight:bold;font-stretch:normal;font-size:5.30319929px;line-height:125%;font-family:'League Spartan';-inkscape-font-specification:'League Spartan, Bold';font-variant-ligatures:normal;font-variant-caps:normal;font-variant-numeric:normal;font-feature-settings:normal;text-align:start;letter-spacing:0px;word-spacing:0px;writing-mode:lr-tb;text-anchor:start;fill:#39b54a;fill-opacity:1;stroke:none;stroke-width:1.05833328px;stroke-linecap:butt;stroke-linejoin:miter;stroke-opacity:1"
       d="m 100.64439,137.99146 c 0,3.3516 2.6304,5.74864 6.55476,5.74864 3.75468,0 6.49112,-2.39704 6.49112,-5.74864 0,-3.39404 -2.88492,-5.76988 -6.49112,-5.76988 -3.6698,0 -6.55476,2.37584 -6.55476,5.76988 z m 3.988,0 c 0,-1.50612 1.12428,-2.56676 2.54556,-2.56676 1.40004,0 2.52432,1.06064 2.52432,2.56676 0,1.48488 -1.06064,2.54552 -2.52432,2.54552 -1.52732,0 -2.54556,-1.06064 -2.54556,-2.54552 z"
       inkscape:connector-curvature="0"
       inkscape:export-filename="/home/mollineaux/repos/commongndca/img/commongnd.png"
       inkscape:export-xdpi="468.89999"
       inkscape:export-ydpi="468.89999" />
    <path
       id="path4654"
       style="font-style:normal;font-variant:normal;font-weight:bold;font-stretch:normal;font-size:5.30319929px;line-height:125%;font-family:'League Spartan';-inkscape-font-specification:'League Spartan, Bold';font-variant-ligatures:normal;font-variant-caps:normal;font-variant-numeric:normal;font-feature-settings:normal;text-align:start;letter-spacing:0px;word-spacing:0px;writing-mode:lr-tb;text-anchor:start;fill:#39b54a;fill-opacity:1;stroke:none;stroke-width:1.05833328px;stroke-linecap:butt;stroke-linejoin:miter;stroke-opacity:1"
       d="m 115.39159,143.42194 h 3.75468 v -6.15172 c 0,-1.08184 1.10304,-2.12128 2.22732,-2.12128 1.20916,0 1.9516,1.03944 1.9516,2.12128 v 6.15172 h 3.75468 v -7.16992 c 0,-3.03344 -2.77888,-4.03044 -4.77288,-4.03044 -1.18792,0 -2.2698,0.61516 -3.11832,1.46368 h -0.0424 v -1.14548 h -3.75464 z"
       inkscape:connector-curvature="0"
       inkscape:export-filename="/home/mollineaux/repos/commongndca/img/commongnd.png"
       inkscape:export-xdpi="468.89999"
       inkscape:export-ydpi="468.89999" />
    <path
       id="path4631"
       style="font-style:normal;font-variant:normal;font-weight:bold;font-stretch:normal;font-size:5.30319929px;line-height:125%;font-family:'League Spartan';-inkscape-font-specification:'League Spartan, Bold';font-variant-ligatures:normal;font-variant-caps:normal;font-variant-numeric:normal;font-feature-settings:normal;text-align:start;letter-spacing:0px;word-spacing:0px;writing-mode:lr-tb;text-anchor:start;fill:#39b54a;fill-opacity:1;stroke:none;stroke-width:1.05833328px;stroke-linecap:butt;stroke-linejoin:miter;stroke-opacity:1"
       d="m 62.621581,156.30018 h -8.08208 v 3.07584 h 4.0304 c 0,2.14252 -1.88792,3.37284 -3.79708,3.37284 -2.460676,0 -4.454676,-2.41824 -4.454676,-5.38804 0,-3.03344 1.994,-5.47292 4.454676,-5.47292 1.54856,0 2.88496,0.6152 3.90316,2.24856 l 2.60916,-2.86372 c -1.52732,-1.84552 -3.6698,-2.991 -6.74564,-2.991 -4.92138,0 -8.527556,4.05164 -8.527556,9.07908 0,5.0062 3.818304,9.05784 8.527556,9.05784 3.43648,0 7.12748,-1.88792 8.08208,-6.3214 z"
       inkscape:connector-curvature="0"
       inkscape:export-filename="/home/mollineaux/repos/commongndca/img/commongnd.png"
       inkscape:export-xdpi="468.89999"
       inkscape:export-ydpi="468.89999" />
    <path
       id="path4633"
       style="font-style:normal;font-variant:normal;font-weight:bold;font-stretch:normal;font-size:5.30319929px;line-height:125%;font-family:'League Spartan';-inkscape-font-specification:'League Spartan, Bold';font-variant-ligatures:normal;font-variant-caps:normal;font-variant-numeric:normal;font-feature-settings:normal;text-align:start;letter-spacing:0px;word-spacing:0px;writing-mode:lr-tb;text-anchor:start;fill:#39b54a;fill-opacity:1;stroke:none;stroke-width:1.05833328px;stroke-linecap:butt;stroke-linejoin:miter;stroke-opacity:1"
       d="m 64.363661,166.1005 h 3.75468 v -5.72748 c 0,-0.2756 0.2756,-2.20612 2.22732,-2.20612 1.25156,0 1.9516,0.59396 1.9516,0.59396 l 1.56972,-3.18192 c 0,0 -0.97576,-0.6788 -2.3758,-0.6788 -2.14252,0 -3.33044,1.88792 -3.33044,1.88792 h -0.0424 v -1.56972 h -3.75464 z"
       inkscape:connector-curvature="0"
       inkscape:export-filename="/home/mollineaux/repos/commongndca/img/commongnd.png"
       inkscape:export-xdpi="468.89999"
       inkscape:export-ydpi="468.89999" />
    <path
       id="path4635"
       style="font-style:normal;font-variant:normal;font-weight:bold;font-stretch:normal;font-size:5.30319929px;line-height:125%;font-family:'League Spartan';-inkscape-font-specification:'League Spartan, Bold';font-variant-ligatures:normal;font-variant-caps:normal;font-variant-numeric:normal;font-feature-settings:normal;text-align:start;letter-spacing:0px;word-spacing:0px;writing-mode:lr-tb;text-anchor:start;fill:#39b54a;fill-opacity:1;stroke:none;stroke-width:1.05833328px;stroke-linecap:butt;stroke-linejoin:miter;stroke-opacity:1"
       d="m 74.019461,160.67002 c 0,3.3516 2.6304,5.74864 6.55476,5.74864 3.75468,0 6.491126,-2.39704 6.491126,-5.74864 0,-3.39404 -2.884966,-5.76988 -6.491126,-5.76988 -3.6698,0 -6.55476,2.37584 -6.55476,5.76988 z m 3.988,0 c 0,-1.50612 1.12428,-2.56676 2.54556,-2.56676 1.40004,0 2.52432,1.06064 2.52432,2.56676 0,1.48488 -1.06064,2.54552 -2.52432,2.54552 -1.52732,0 -2.54556,-1.06064 -2.54556,-2.54552 z"
       inkscape:connector-curvature="0"
       inkscape:export-filename="/home/mollineaux/repos/commongndca/img/commongnd.png"
       inkscape:export-xdpi="468.89999"
       inkscape:export-ydpi="468.89999" />
    <path
       id="path4637"
       style="font-style:normal;font-variant:normal;font-weight:bold;font-stretch:normal;font-size:5.30319929px;line-height:125%;font-family:'League Spartan';-inkscape-font-specification:'League Spartan, Bold';font-variant-ligatures:normal;font-variant-caps:normal;font-variant-numeric:normal;font-feature-settings:normal;text-align:start;letter-spacing:0px;word-spacing:0px;writing-mode:lr-tb;text-anchor:start;fill:#39b54a;fill-opacity:1;stroke:none;stroke-width:1.05833328px;stroke-linecap:butt;stroke-linejoin:miter;stroke-opacity:1"
       d="m 92.350627,155.21834 h -3.75464 v 6.08804 c 0,3.6486 1.82428,5.11228 5.89716,5.11228 4.07284,0 5.897163,-1.46368 5.897163,-5.11228 v -6.08804 h -3.754683 v 5.17592 c 0,2.14248 -0.57276,2.96976 -2.14248,2.96976 -1.56976,0 -2.14252,-0.82728 -2.14252,-2.96976 z"
       inkscape:connector-curvature="0"
       inkscape:export-filename="/home/mollineaux/repos/commongndca/img/commongnd.png"
       inkscape:export-xdpi="468.89999"
       inkscape:export-ydpi="468.89999" />
    <path
       id="path4639"
       style="font-style:normal;font-variant:normal;font-weight:bold;font-stretch:normal;font-size:5.30319929px;line-height:125%;font-family:'League Spartan';-inkscape-font-specification:'League Spartan, Bold';font-variant-ligatures:normal;font-variant-caps:normal;font-variant-numeric:normal;font-feature-settings:normal;text-align:start;letter-spacing:0px;word-spacing:0px;writing-mode:lr-tb;text-anchor:start;fill:#39b54a;fill-opacity:1;stroke:none;stroke-width:1.05833328px;stroke-linecap:butt;stroke-linejoin:miter;stroke-opacity:1"
       d="m 102.72899,166.1005 h 3.75468 v -6.15172 c 0,-1.08184 1.10308,-2.12128 2.22736,-2.12128 1.20912,0 1.95156,1.03944 1.95156,2.12128 v 6.15172 h 3.75468 v -7.16996 c 0,-3.0334 -2.77888,-4.0304 -4.77288,-4.0304 -1.18792,0 -2.2698,0.61516 -3.11828,1.46368 h -0.0424 v -1.14548 h -3.75468 z"
       inkscape:connector-curvature="0"
       inkscape:export-filename="/home/mollineaux/repos/commongndca/img/commongnd.png"
       inkscape:export-xdpi="468.89999"
       inkscape:export-ydpi="468.89999" />
    <path
       id="path4641"
       style="font-style:normal;font-variant:normal;font-weight:bold;font-stretch:normal;font-size:5.30319929px;line-height:125%;font-family:'League Spartan';-inkscape-font-specification:'League Spartan, Bold';font-variant-ligatures:normal;font-variant-caps:normal;font-variant-numeric:normal;font-feature-settings:normal;text-align:start;letter-spacing:0px;word-spacing:0px;writing-mode:lr-tb;text-anchor:start;fill:#39b54a;fill-opacity:1;stroke:none;stroke-width:1.05833328px;stroke-linecap:butt;stroke-linejoin:miter;stroke-opacity:1"
       d="m 115.94791,160.67002 c 0,3.18192 2.22732,5.74864 5.40924,5.74864 1.48492,0 2.75768,-0.65756 3.56376,-1.54852 h 0.0424 v 1.23036 h 3.71224 v -18.24304 h -3.75468 v 8.40028 c -0.89092,-0.86972 -2.10004,-1.3576 -3.56372,-1.3576 -3.18192,0 -5.40928,2.58796 -5.40928,5.76988 z m 3.988,0 c 0,-1.50612 1.12428,-2.56676 2.54552,-2.56676 1.40004,0 2.52432,1.06064 2.52432,2.56676 0,1.48488 -1.06064,2.54552 -2.52432,2.54552 -1.52732,0 -2.54552,-1.06064 -2.54552,-2.54552 z"
       inkscape:connector-curvature="0"
       inkscape:export-filename="/home/mollineaux/repos/commongndca/img/commongnd.png"
       inkscape:export-xdpi="468.89999"
       inkscape:export-ydpi="468.89999" />
    <path
       id="path4610"
       style="font-style:normal;font-variant:normal;font-weight:bold;font-stretch:normal;font-size:5.30319929px;line-height:125%;font-family:'League Spartan';-inkscape-font-specification:'League Spartan, Bold';font-variant-ligatures:normal;font-variant-caps:normal;font-variant-numeric:normal;font-feature-settings:normal;text-align:start;letter-spacing:0px;word-spacing:0px;writing-mode:lr-tb;text-anchor:start;fill:#39b54a;fill-opacity:1;stroke:none;stroke-width:1.05833328px;stroke-linecap:butt;stroke-linejoin:miter;stroke-opacity:1"
       d="m 46.346361,185.17286 c -4.00922,0 -5.769884,-2.80008 -5.769884,-5.15472 0,-2.3334 1.760664,-5.13348 5.769884,-5.13348 2.036428,0 3.436472,1.08184 3.436472,1.08184 l 1.697024,-3.39404 c 0,0 -1.95158,-1.61216 -5.748668,-1.61216 -4.963796,0 -9.48212,4.07284 -9.48212,9.10028 0,5.00624 4.539536,9.03664 9.48212,9.03664 3.797088,0 5.748668,-1.61216 5.748668,-1.61216 l -1.697024,-3.39404 c 0,0 -1.400044,1.08184 -3.436472,1.08184 z"
       inkscape:connector-curvature="0"
       inkscape:export-filename="/home/mollineaux/repos/commongndca/img/commongnd.png"
       inkscape:export-xdpi="468.89999"
       inkscape:export-ydpi="468.89999" />
    <path
       id="path4612"
       style="font-style:normal;font-variant:normal;font-weight:bold;font-stretch:normal;font-size:5.30319929px;line-height:125%;font-family:'League Spartan';-inkscape-font-specification:'League Spartan, Bold';font-variant-ligatures:normal;font-variant-caps:normal;font-variant-numeric:normal;font-feature-settings:normal;text-align:start;letter-spacing:0px;word-spacing:0px;writing-mode:lr-tb;text-anchor:start;fill:#39b54a;fill-opacity:1;stroke:none;stroke-width:1.05833328px;stroke-linecap:butt;stroke-linejoin:miter;stroke-opacity:1"
       d="m 52.241529,183.34858 c 0,3.18192 2.227332,5.74864 5.409252,5.74864 1.48492,0 2.75768,-0.6576 3.56376,-1.54852 h 0.0424 v 1.23036 h 3.71224 v -10.8822 h -3.75468 v 1.03944 c -0.89092,-0.86972 -2.10004,-1.3576 -3.56372,-1.3576 -3.18192,0 -5.409276,2.58796 -5.409276,5.76988 z m 3.988012,0 c 0,-1.50612 1.12428,-2.56676 2.54552,-2.56676 1.40004,0 2.52432,1.06064 2.52432,2.56676 0,1.48488 -1.06064,2.54552 -2.52432,2.54552 -1.52732,0 -2.54552,-1.06064 -2.54552,-2.54552 z"
       inkscape:connector-curvature="0"
       inkscape:export-filename="/home/mollineaux/repos/commongndca/img/commongnd.png"
       inkscape:export-xdpi="468.89999"
       inkscape:export-ydpi="468.89999" />
    <path
       id="path4614"
       style="font-style:normal;font-variant:normal;font-weight:bold;font-stretch:normal;font-size:5.30319929px;line-height:125%;font-family:'League Spartan';-inkscape-font-specification:'League Spartan, Bold';font-variant-ligatures:normal;font-variant-caps:normal;font-variant-numeric:normal;font-feature-settings:normal;text-align:start;letter-spacing:0px;word-spacing:0px;writing-mode:lr-tb;text-anchor:start;fill:#39b54a;fill-opacity:1;stroke:none;stroke-width:1.05833328px;stroke-linecap:butt;stroke-linejoin:miter;stroke-opacity:1"
       d="m 67.527341,188.77906 h 3.75468 v -18.24304 h -3.75468 z"
       inkscape:connector-curvature="0"
       inkscape:export-filename="/home/mollineaux/repos/commongndca/img/commongnd.png"
       inkscape:export-xdpi="468.89999"
       inkscape:export-ydpi="468.89999" />
    <path
       id="path4616"
       style="font-style:normal;font-variant:normal;font-weight:bold;font-stretch:normal;font-size:5.30319929px;line-height:125%;font-family:'League Spartan';-inkscape-font-specification:'League Spartan, Bold';font-variant-ligatures:normal;font-variant-caps:normal;font-variant-numeric:normal;font-feature-settings:normal;text-align:start;letter-spacing:0px;word-spacing:0px;writing-mode:lr-tb;text-anchor:start;fill:#39b54a;fill-opacity:1;stroke:none;stroke-width:1.05833328px;stroke-linecap:butt;stroke-linejoin:miter;stroke-opacity:1"
       d="m 75.755261,171.17242 c -1.23036,0 -2.22736,0.997 -2.22736,2.22736 0,1.23032 0.997,2.22732 2.22736,2.22732 1.23032,0 2.22732,-0.997 2.22732,-2.22732 0,-1.23036 -0.997,-2.22736 -2.22732,-2.22736 z m -1.93036,6.72444 h 3.75464 v 10.8822 h -3.75464 z"
       inkscape:connector-curvature="0"
       inkscape:export-filename="/home/mollineaux/repos/commongndca/img/commongnd.png"
       inkscape:export-xdpi="468.89999"
       inkscape:export-ydpi="468.89999" />
    <path
       id="path4618"
       style="font-style:normal;font-variant:normal;font-weight:bold;font-stretch:normal;font-size:5.30319929px;line-height:125%;font-family:'League Spartan';-inkscape-font-specification:'League Spartan, Bold';font-variant-ligatures:normal;font-variant-caps:normal;font-variant-numeric:normal;font-feature-settings:normal;text-align:start;letter-spacing:0px;word-spacing:0px;writing-mode:lr-tb;text-anchor:start;fill:#39b54a;fill-opacity:1;stroke:none;stroke-width:1.05833328px;stroke-linecap:butt;stroke-linejoin:miter;stroke-opacity:1"
       d="m 80.883101,177.89686 h -1.56972 v 2.86376 h 1.56972 v 8.01844 h 3.754686 v -8.01844 h 2.50312 v -2.86376 h -2.50312 v -2.20612 c 0,-1.50612 0.212,-2.14248 1.16668,-2.14248 0.6152,0 1.12428,0.2968 1.12428,0.2968 l 1.3152,-2.6516 c 0,0 -1.18792,-0.97576 -3.09704,-0.97576 -2.715246,0 -4.242566,2.18492 -4.263806,5.36684 z"
       inkscape:connector-curvature="0"
       inkscape:export-filename="/home/mollineaux/repos/commongndca/img/commongnd.png"
       inkscape:export-xdpi="468.89999"
       inkscape:export-ydpi="468.89999" />
    <path
       id="path4620"
       style="font-style:normal;font-variant:normal;font-weight:bold;font-stretch:normal;font-size:5.30319929px;line-height:125%;font-family:'League Spartan';-inkscape-font-specification:'League Spartan, Bold';font-variant-ligatures:normal;font-variant-caps:normal;font-variant-numeric:normal;font-feature-settings:normal;text-align:start;letter-spacing:0px;word-spacing:0px;writing-mode:lr-tb;text-anchor:start;fill:#39b54a;fill-opacity:1;stroke:none;stroke-width:1.05833328px;stroke-linecap:butt;stroke-linejoin:miter;stroke-opacity:1"
       d="m 87.416667,183.34858 c 0,3.3516 2.6304,5.74864 6.55476,5.74864 3.75464,0 6.491123,-2.39704 6.491123,-5.74864 0,-3.39408 -2.884963,-5.76988 -6.491123,-5.76988 -3.66984,0 -6.55476,2.3758 -6.55476,5.76988 z m 3.988,0 c 0,-1.50612 1.12428,-2.56676 2.54552,-2.56676 1.40004,0 2.52432,1.06064 2.52432,2.56676 0,1.48488 -1.0606,2.54552 -2.52432,2.54552 -1.52732,0 -2.54552,-1.06064 -2.54552,-2.54552 z"
       inkscape:connector-curvature="0"
       inkscape:export-filename="/home/mollineaux/repos/commongndca/img/commongnd.png"
       inkscape:export-xdpi="468.89999"
       inkscape:export-ydpi="468.89999" />
    <path
       id="path4622"
       style="font-style:normal;font-variant:normal;font-weight:bold;font-stretch:normal;font-size:5.30319929px;line-height:125%;font-family:'League Spartan';-inkscape-font-specification:'League Spartan, Bold';font-variant-ligatures:normal;font-variant-caps:normal;font-variant-numeric:normal;font-feature-settings:normal;text-align:start;letter-spacing:0px;word-spacing:0px;writing-mode:lr-tb;text-anchor:start;fill:#39b54a;fill-opacity:1;stroke:none;stroke-width:1.05833328px;stroke-linecap:butt;stroke-linejoin:miter;stroke-opacity:1"
       d="m 102.16387,188.77906 h 3.75468 v -5.72748 c 0,-0.2756 0.2756,-2.20612 2.22732,-2.20612 1.25156,0 1.95156,0.59396 1.95156,0.59396 l 1.56976,-3.18192 c 0,0 -0.97576,-0.6788 -2.37584,-0.6788 -2.14248,0 -3.3304,1.88792 -3.3304,1.88792 h -0.0424 v -1.56976 h -3.75468 z"
       inkscape:connector-curvature="0"
       inkscape:export-filename="/home/mollineaux/repos/commongndca/img/commongnd.png"
       inkscape:export-xdpi="468.89999"
       inkscape:export-ydpi="468.89999" />
    <path
       id="path4624"
       style="font-style:normal;font-variant:normal;font-weight:bold;font-stretch:normal;font-size:5.30319929px;line-height:125%;font-family:'League Spartan';-inkscape-font-specification:'League Spartan, Bold';font-variant-ligatures:normal;font-variant-caps:normal;font-variant-numeric:normal;font-feature-settings:normal;text-align:start;letter-spacing:0px;word-spacing:0px;writing-mode:lr-tb;text-anchor:start;fill:#39b54a;fill-opacity:1;stroke:none;stroke-width:1.05833328px;stroke-linecap:butt;stroke-linejoin:miter;stroke-opacity:1"
       d="m 112.72883,188.77906 h 3.75468 v -6.15172 c 0,-1.08188 1.10304,-2.12128 2.22732,-2.12128 1.20916,0 1.9516,1.0394 1.9516,2.12128 v 6.15172 h 3.75464 v -7.16996 c 0,-3.0334 -2.77888,-4.0304 -4.77288,-4.0304 -1.18788,0 -2.26976,0.61516 -3.11828,1.46368 h -0.0424 v -1.14552 h -3.75464 z"
       inkscape:connector-curvature="0"
       inkscape:export-filename="/home/mollineaux/repos/commongndca/img/commongnd.png"
       inkscape:export-xdpi="468.89999"
       inkscape:export-ydpi="468.89999" />
    <path
       id="path4626"
       style="font-style:normal;font-variant:normal;font-weight:bold;font-stretch:normal;font-size:5.30319929px;line-height:125%;font-family:'League Spartan';-inkscape-font-specification:'League Spartan, Bold';font-variant-ligatures:normal;font-variant-caps:normal;font-variant-numeric:normal;font-feature-settings:normal;text-align:start;letter-spacing:0px;word-spacing:0px;writing-mode:lr-tb;text-anchor:start;fill:#39b54a;fill-opacity:1;stroke:none;stroke-width:1.05833328px;stroke-linecap:butt;stroke-linejoin:miter;stroke-opacity:1"
       d="m 128.66295,171.17242 c -1.23032,0 -2.22732,0.997 -2.22732,2.22736 0,1.23032 0.997,2.22732 2.22732,2.22732 1.23036,0 2.22736,-0.997 2.22736,-2.22732 0,-1.23036 -0.997,-2.22736 -2.22736,-2.22736 z m -1.93036,6.72444 h 3.75468 v 10.8822 h -3.75468 z"
       inkscape:connector-curvature="0"
       inkscape:export-filename="/home/mollineaux/repos/commongndca/img/commongnd.png"
       inkscape:export-xdpi="468.89999"
       inkscape:export-ydpi="468.89999" />
    <path
       id="path4628"
       style="font-style:normal;font-variant:normal;font-weight:bold;font-stretch:normal;font-size:5.30319929px;line-height:125%;font-family:'League Spartan';-inkscape-font-specification:'League Spartan, Bold';font-variant-ligatures:normal;font-variant-caps:normal;font-variant-numeric:normal;font-feature-settings:normal;text-align:start;letter-spacing:0px;word-spacing:0px;writing-mode:lr-tb;text-anchor:start;fill:#39b54a;fill-opacity:1;stroke:none;stroke-width:1.05833328px;stroke-linecap:butt;stroke-linejoin:miter;stroke-opacity:1"
       d="m 132.36955,183.34858 c 0,3.18192 2.22736,5.74864 5.40928,5.74864 1.48488,0 2.75764,-0.6576 3.56376,-1.54852 h 0.0424 v 1.23036 h 3.71224 v -10.8822 h -3.75468 v 1.03944 c -0.89092,-0.86972 -2.10008,-1.3576 -3.56376,-1.3576 -3.18192,0 -5.40924,2.58796 -5.40924,5.76988 z m 3.988,0 c 0,-1.50612 1.12428,-2.56676 2.54556,-2.56676 1.40004,0 2.52432,1.06064 2.52432,2.56676 0,1.48488 -1.06064,2.54552 -2.52432,2.54552 -1.52732,0 -2.54556,-1.06064 -2.54556,-2.54552 z"
       inkscape:connector-curvature="0"
       inkscape:export-filename="/home/mollineaux/repos/commongndca/img/commongnd.png"
       inkscape:export-xdpi="468.89999"
       inkscape:export-ydpi="468.89999" />
    <rect
       y="154.86719"
       x="144.64198"
       height="1.8305264"
       width="4.5152984"
       id="rect6460"
       style="opacity:1;fill:#f3f3f3;fill-opacity:1;stroke:#29abe2;stroke-width:4.00049973;stroke-miterlimit:4;stroke-dasharray:none;stroke-opacity:1"
       inkscape:export-filename="/home/mollineaux/repos/commongndca/img/commongnd.png"
       inkscape:export-xdpi="468.89999"
       inkscape:export-ydpi="468.89999" />
    <rect
       transform="rotate(-46.380133)"
       style="opacity:1;fill:#f3f3f3;fill-opacity:1;stroke:#29abe2;stroke-width:4.00049973;stroke-miterlimit:4;stroke-dasharray:none;stroke-opacity:1"
       id="rect6462"
       width="4.5152984"
       height="1.8305264"
       x="-18.244453"
       y="227.41658"
       inkscape:export-filename="/home/mollineaux/repos/commongndca/img/commongnd.png"
       inkscape:export-xdpi="468.89999"
       inkscape:export-ydpi="468.89999" />
    <rect
       y="225.18584"
       x="126.29762"
       height="1.8305264"
       width="4.5152984"
       id="rect6464"
       style="opacity:1;fill:#f3f3f3;fill-opacity:1;stroke:#29abe2;stroke-width:4.00049973;stroke-miterlimit:4;stroke-dasharray:none;stroke-opacity:1"
       transform="rotate(-13.811147)"
       inkscape:export-filename="/home/mollineaux/repos/commongndca/img/commongnd.png"
       inkscape:export-xdpi="468.89999"
       inkscape:export-ydpi="468.89999" />
    <path
       transform="matrix(4,0,0,4,-29.207887,-311.6188)"
       sodipodi:type="inkscape:offset"
       inkscape:radius="0.93583655"
       inkscape:original="M 40.728516 106.75195 L 40.714844 106.81445 C 40.707244 106.84865 40.681223 106.96093 40.658203 107.06445 L 40.617188 107.25195 L 40.730469 107.51758 C 40.876638 107.86102 40.89252 108.01217 40.810547 108.27734 C 40.717787 108.57751 40.704597 108.6659 40.732422 108.84961 C 40.767282 109.08003 40.729798 109.18782 40.533203 109.43359 C 40.298196 109.72711 40.274568 109.78994 40.292969 110.0332 C 40.312189 110.28805 40.421776 110.5056 40.716797 110.87305 C 41.171372 111.43923 41.226017 111.56092 41.253906 112.08984 C 41.271606 112.42671 41.282258 112.48211 41.363281 112.66797 C 41.455071 112.87863 41.456507 112.90964 41.404297 113.19531 C 41.378437 113.33684 41.493248 113.49256 41.986328 113.98438 C 42.371888 114.36893 42.413273 114.4196 42.546875 114.67969 C 42.711401 114.99998 42.866541 115.20924 43 115.29102 C 43.07959 115.33982 43.11608 115.34427 43.271484 115.32617 C 43.370354 115.31457 43.469373 115.29711 43.492188 115.28711 C 43.522017 115.27401 43.554055 115.3057 43.603516 115.40039 C 43.641396 115.47279 43.722654 115.58975 43.785156 115.6582 C 43.847606 115.7266 43.905883 115.80875 43.914062 115.8418 C 43.929552 115.9042 43.90438 115.89422 43.447266 115.67773 C 43.360056 115.63643 43.298828 115.67027 43.298828 115.75977 C 43.298828 115.80207 43.331091 115.99063 43.369141 116.17773 C 43.407121 116.36482 43.4375 116.60997 43.4375 116.72266 C 43.4375 116.90996 43.444282 116.9329 43.513672 117 C 43.611042 117.094 43.997147 117.27785 44.150391 117.30273 C 44.354297 117.33583 44.358107 117.47058 44.160156 117.60156 C 44.038631 117.68196 43.995182 117.79894 44.03125 117.94531 C 44.05909 118.05854 44.215455 118.32767 44.380859 118.54688 C 44.733962 119.01484 45.070312 119.51635 45.070312 119.57617 C 45.070312 119.67157 45.219833 119.81791 45.527344 120.02344 L 45.800781 120.20703 L 45.792969 120.33594 C 45.785369 120.45461 45.79409 120.4766 45.898438 120.58984 C 45.961217 120.65804 46.059062 120.73784 46.115234 120.76562 C 46.199534 120.80702 46.215967 120.82815 46.208984 120.88867 C 46.203684 120.92907 46.218508 121.03562 46.242188 121.12695 C 46.295457 121.33239 46.296271 121.56658 46.244141 121.6582 C 46.156581 121.81139 46.226274 121.91882 46.509766 122.0625 C 46.672652 122.1451 46.726755 122.14607 46.9375 122.07227 C 47.141206 122.00057 47.293452 122.01043 47.513672 122.11133 C 47.634981 122.16673 47.719616 122.18555 47.853516 122.18555 C 48.073167 122.18555 48.150161 122.22152 48.402344 122.45312 C 48.508827 122.55093 48.638163 122.65412 48.691406 122.68164 C 48.862414 122.76994 49.166107 122.84948 49.4375 122.87695 C 49.668684 122.90025 49.709232 122.91251 49.763672 122.97461 C 49.801322 123.01741 49.826172 123.08163 49.826172 123.13672 C 49.826172 123.27593 49.876622 123.39095 49.953125 123.42578 C 49.991185 123.44298 50.099006 123.45663 50.193359 123.45703 C 50.476678 123.45789 50.753875 123.62091 51.195312 124.04297 C 51.538288 124.37086 51.63034 124.54288 51.644531 124.89062 C 51.655811 125.16773 51.703359 125.29059 51.822266 125.33984 C 51.895946 125.37034 51.904132 125.3827 51.888672 125.46484 C 51.875232 125.53664 51.884261 125.56994 51.931641 125.61719 C 51.990261 125.67599 52.00422 125.67761 52.478516 125.66211 C 52.749137 125.65211 53.192274 125.61292 53.476562 125.57422 C 53.757981 125.53592 54.392339 125.46763 54.886719 125.42188 C 55.381101 125.37628 55.831577 125.32385 55.886719 125.30664 C 55.962719 125.28314 56.011049 125.28339 56.087891 125.30859 C 56.221502 125.35289 56.253413 125.33691 56.292969 125.20508 C 56.311359 125.14338 56.35613 125.07596 56.394531 125.05078 C 56.478501 124.99558 56.48103 124.94744 56.40625 124.79297 C 56.34185 124.65996 56.227366 124.56544 56.121094 124.55664 C 56.057224 124.55064 56.050786 124.53761 56.035156 124.39844 C 56.025756 124.31434 56.007454 124.21529 55.996094 124.17773 C 55.980204 124.12543 56.004203 124.05634 56.095703 123.88477 C 56.267965 123.56096 56.30069 123.44854 56.322266 123.13672 C 56.340596 122.87253 56.347726 122.84909 56.443359 122.71875 C 56.518129 122.61687 56.574556 122.57332 56.65625 122.54883 C 56.819246 122.50023 56.933594 122.39173 56.933594 122.28906 C 56.933594 122.22006 56.894122 122.16575 56.71875 121.99414 C 56.577121 121.85556 56.468856 121.71734 56.400391 121.58984 C 56.343191 121.48335 56.253698 121.32175 56.201172 121.23047 C 56.148662 121.13917 56.105639 121.02851 56.105469 120.98438 C 56.10505 120.88129 56.062518 120.84141 54.818359 119.73633 C 53.637058 118.6871 53.083201 118.19445 52.951172 118.07422 C 52.897902 118.02572 52.828946 117.96336 52.796875 117.93555 C 52.683721 117.83745 52.325442 117.51869 51.818359 117.06641 C 51.536289 116.81482 50.852102 116.20579 50.296875 115.71289 C 49.741649 115.21999 49.281048 114.8113 49.273438 114.80273 C 49.265838 114.79373 49.15274 114.69292 49.023438 114.57812 C 48.89414 114.46295 48.512288 114.12134 48.173828 113.82031 L 47.558594 113.27344 L 47.558594 112.8125 C 47.557758 111.84662 47.476098 106.80189 47.460938 106.77734 C 47.451237 106.76164 46.130001 106.75195 44.085938 106.75195 L 40.728516 106.75195 z "
       style="fill:#29abe2;fill-opacity:1;stroke-width:0.99999976"
       id="path4604"
       d="m 40.728516,105.81641 a 0.93593014,0.93593014 0 0 0 -0.914063,0.73632 l -0.01367,0.0625 c -0.0042,0.019 -0.03267,0.1383 -0.05664,0.2461 a 0.93593014,0.93593014 0 0 0 0,0.004 l -0.04102,0.1875 a 0.93593014,0.93593014 0 0 0 0.05273,0.56641 l 0.113282,0.26563 c 0.116989,0.27487 0.08914,-0.0215 0.04687,0.11523 a 0.93593014,0.93593014 0 0 0 0,0.002 c -0.08515,0.27553 -0.103643,0.57897 -0.0918,0.83594 0.0082,-0.0183 0.02952,-0.052 -0.02148,0.0117 -0.128301,0.16025 -0.250332,0.29759 -0.353515,0.55664 -0.103183,0.25905 -0.101774,0.53955 -0.08984,0.69727 0.03628,0.48102 0.289867,0.93562 0.626953,1.35546 0.218257,0.27185 0.29344,0.39304 0.302734,0.41407 0.0093,0.021 0.0188,0.0295 0.03125,0.26562 0.01749,0.3329 0.08707,0.63554 0.175782,0.85547 -6.99e-4,-0.008 0.0038,-0.0516 -0.01172,0.0332 -0.06785,0.37136 0.110415,0.77854 0.263672,0.98633 0.153257,0.20779 0.322334,0.37768 0.578125,0.63281 0.380165,0.37917 0.268388,0.22678 0.388672,0.46094 0.165695,0.32257 0.359077,0.57581 0.666015,0.82227 0.0063,0.0278 0.0088,0.10022 0.01563,0.14062 0.01508,0.0892 0.03372,0.18988 0.05469,0.29297 0.02563,0.12624 0.05078,0.41487 0.05078,0.35938 0,0.10494 -0.01818,0.20516 0.04492,0.43359 0.06311,0.22843 0.254353,0.45562 0.316406,0.51563 a 0.93593014,0.93593014 0 0 0 0,0.002 c 0.181697,0.17541 0.26113,0.1859 0.361328,0.23047 -0.0046,0.0976 -0.122309,0.18143 -0.101562,0.26562 0.06964,0.28193 0.139231,0.3623 0.222656,0.50586 0.08369,0.14403 0.180851,0.29214 0.289063,0.43555 0.165788,0.21971 0.329551,0.45225 0.445312,0.625 0.05788,0.0864 0.105317,0.15867 0.126953,0.19531 0.01082,0.0183 0.01472,0.0299 0.0059,0.0117 -0.0089,-0.0182 -0.07813,0.0638 -0.07813,-0.36719 0,0.53662 0.247062,0.70724 0.394531,0.85156 0.09439,0.0924 0.202741,0.16249 0.306641,0.23829 l 0.02344,-0.38672 c -0.0047,0.0736 0.012,0.26539 0.06836,0.45898 0.02825,0.0195 0.04834,0.0426 0.07813,0.0625 l -0.07617,-0.0508 c 0.0094,0.0306 -0.0032,0.0408 0.0098,0.0723 0.09859,0.23819 0.207658,0.33307 0.271485,0.40234 0.03388,0.0368 0.08811,0.0602 0.115234,0.0898 0.0038,0.0159 0.0055,0.0305 0.0098,0.0469 0.0052,0.0202 0.01168,0.068 0.01172,0.0781 1.3e-5,0.004 0.03273,-0.0765 0.0293,-0.0859 0.01377,0.014 0.04358,0.0314 0.05859,0.0449 -0.08789,0.29204 -0.160936,0.7031 0.01953,0.97851 0.218289,0.33313 0.432803,0.41916 0.63086,0.51953 0.117401,0.0595 0.33564,0.16014 0.599609,0.16602 0.22446,0.005 0.35518,-0.0495 0.476562,-0.0918 0.161304,0.068 0.372283,0.10551 0.5625,0.12305 -0.01338,-0.007 -0.0331,-0.0228 0.04492,0.0488 0.07151,0.0657 0.14435,0.12615 0.216797,0.18359 0.07245,0.0574 0.09951,0.0966 0.275391,0.1875 0.245697,0.12687 0.48245,0.15221 0.720703,0.19727 0.08549,0.21162 0.248214,0.41442 0.582031,0.5664 a 0.93593014,0.93593014 0 0 0 0.0039,0.002 c 0.23658,0.10691 0.277698,0.0847 0.363282,0.0957 0.08558,0.011 0.167019,0.0172 0.257812,0.0176 a 0.93593014,0.93593014 0 0 0 0.002,0 c -0.07381,-2.3e-4 -0.02958,-0.0438 0.357422,0.32617 0.142629,0.13636 0.176254,0.1953 0.167969,0.17969 -0.0078,-0.0147 -0.01082,-0.0468 -0.0078,0.0293 0.0076,0.18634 0.01685,0.37035 0.113282,0.61524 0.02411,0.0612 0.116777,0.10141 0.160156,0.16601 0.0061,0.0386 -0.0078,0.0521 0.0039,0.0937 0.06309,0.22525 0.202538,0.39388 0.283203,0.47461 1.21e-4,1.2e-4 0.0018,-1.2e-4 0.002,0 2.44e-4,2.5e-4 -2.42e-4,0.002 0,0.002 0.05504,0.0538 0.511917,0.3046 0.701172,0.32031 0.189892,0.0158 0.298598,0.006 0.53711,-0.002 a 0.93593014,0.93593014 0 0 0 0.0039,0 c 0.323112,-0.0119 0.760435,-0.0509 1.089844,-0.0957 0.242503,-0.033 0.886704,-0.10379 1.36914,-0.14843 0.253969,-0.0234 0.494799,-0.0483 0.685547,-0.0703 0.09537,-0.011 0.178408,-0.0215 0.248047,-0.0312 0.06702,-0.009 0.04707,0.0114 0.25,-0.0508 -0.04305,0.009 -0.328231,0.006 -0.359375,-0.004 0.120792,0.0405 0.403048,0.18609 0.849609,-0.0391 0.22211,-0.11198 0.194351,-0.21133 0.269532,-0.33789 0.145822,-0.10024 0.461522,-0.45346 0.478515,-0.81836 0.01725,-0.37031 -0.09068,-0.50191 -0.146484,-0.61718 -0.05942,-0.12272 -0.155222,-0.22672 -0.244141,-0.33399 0.107342,-0.26112 0.207258,-0.52664 0.232422,-0.78125 0.08648,-0.0502 0.181112,-0.0727 0.261719,-0.14844 0.176661,-0.16609 0.371094,-0.43327 0.371094,-0.83203 0,-0.21295 -0.119746,-0.52152 -0.220703,-0.66015 -0.100958,-0.13864 -0.177519,-0.20697 -0.275391,-0.30274 -0.0897,-0.0878 -0.141143,-0.1661 -0.148438,-0.17969 -0.06299,-0.11727 -0.151407,-0.27596 -0.21289,-0.38281 1.41e-4,2.5e-4 -0.0072,-0.0172 -0.0059,-0.0137 0.0014,0.004 0.03408,-0.0486 0.03516,0.23047 -3.66e-4,-0.0899 -0.07925,-0.44093 -0.181641,-0.5957 -0.102388,-0.15478 -0.178568,-0.22275 -0.279297,-0.32032 -0.201457,-0.19513 -0.518325,-0.4746 -1.140625,-1.02734 -1.181143,-1.04909 -1.74776,-1.55444 -1.857422,-1.6543 -0.05526,-0.0503 -0.11828,-0.10782 -0.171875,-0.15429 -0.09378,-0.0813 -0.462075,-0.40942 -0.96875,-0.86133 -0.283196,-0.2526 -0.967437,-0.85993 -1.523437,-1.35352 -0.277662,-0.24649 -0.531702,-0.47222 -0.716797,-0.63672 -0.09255,-0.0822 -0.166767,-0.14893 -0.21875,-0.19531 -0.02599,-0.0232 -0.04795,-0.0414 -0.06055,-0.0527 -0.0044,-0.005 -0.01193,-0.012 -0.01367,-0.0137 -0.01044,-0.01 -0.01841,-0.0172 -0.02734,-0.0254 -0.01786,-0.0163 -0.03865,-0.0353 -0.0625,-0.0566 -0.04741,-0.0425 -0.107282,-0.0969 -0.171875,-0.15429 h -0.002 c -0.126817,-0.11297 -0.510056,-0.45581 -0.849609,-0.75782 l -0.300781,-0.26757 v -0.041 c -4.4e-4,-0.5079 -0.02053,-1.99812 -0.04297,-3.38477 -0.01122,-0.69332 -0.02336,-1.35808 -0.0332,-1.85156 -0.0049,-0.24674 -0.0099,-0.44992 -0.01367,-0.5957 -0.0019,-0.0729 -0.0022,-0.13043 -0.0039,-0.17578 -8.43e-4,-0.0227 -0.0026,-0.0416 -0.0039,-0.0645 -6.65e-4,-0.0114 -0.0016,-0.0224 -0.0039,-0.0469 -0.0012,-0.0122 -0.0025,-0.0269 -0.0078,-0.0605 -0.0027,-0.0168 -0.01556,-0.0779 -0.01563,-0.0781 -6.2e-5,-2.5e-4 -0.111269,-0.26944 -0.111329,-0.26953 -3.7e-5,-7e-5 -0.218672,-0.24408 -0.21875,-0.24414 -7.7e-5,-7e-5 -0.148319,-0.0957 -0.148437,-0.0957 -2.36e-4,-1.2e-4 -0.121668,-0.0519 -0.15625,-0.0625 -0.06916,-0.0212 -0.09868,-0.0252 -0.123047,-0.0293 -0.04874,-0.008 -0.06738,-0.0101 -0.08594,-0.0117 -0.03711,-0.003 -0.06029,-0.005 -0.08789,-0.006 -0.0552,-0.002 -0.118866,-0.002 -0.201172,-0.004 -0.164611,-0.003 -0.397792,-0.008 -0.693359,-0.01 -0.591134,-0.004 -1.433521,-0.006 -2.457031,-0.006 z m 2.916015,11.0039 c -0.188051,0.12442 -0.159893,0.41476 -0.255859,0.66016 -0.0014,-0.0142 -0.01714,-0.021 -0.01758,-0.0352 -0.01652,-0.5276 0.246942,-0.60747 0.273437,-0.625 z m 1.636719,3.94727 c -0.0019,0.0146 0.0015,0.008 0,0.0215 8.7e-5,-9.1e-4 -0.002,-0.007 -0.002,-0.008 z m 0.150391,0.42773 c -0.01537,0.0271 0.01497,0.0927 0.002,0.12696 -0.01564,-0.0276 -0.0074,-0.0431 -0.01953,-0.0723 0.01477,-0.034 -0.01456,0.002 0.01758,-0.0547 z m 10.767578,2.42774 0.0098,0.002 c 0.01398,0.001 0.08691,-0.003 0.244141,0.0644 0.02125,0.009 0.03626,0.0396 0.05859,0.0527 -0.105844,-0.039 -0.174992,-0.10776 -0.3125,-0.11914 z m -5.140625,2.16406 c 0.127805,0.16047 0.233858,0.34657 0.40625,0.41797 0.0069,0.003 -0.21161,-0.031 -0.398438,-0.375 -0.01489,-0.0274 0.0037,-0.0174 -0.0078,-0.043 z"
       inkscape:export-filename="/home/mollineaux/repos/commongndca/img/commongnd.png"
       inkscape:export-xdpi="468.89999"
       inkscape:export-ydpi="468.89999" />
    <path
       style="opacity:1;fill:#29abe2;fill-opacity:1;stroke-width:3.99999905"
       d="m 133.70527,115.38742 -0.0556,0.2488 c -0.032,0.1368 -0.1312,0.58764 -0.2232,1.00172 l -0.1676,0.7528 0.45224,1.06244 c 0.58468,1.37376 0.648,1.97432 0.32,3.035 -0.3712,1.20068 -0.41868,1.55532 -0.3076,2.29016 0.1396,0.92168 -0.008,1.35704 -0.79556,2.34012 -0.94004,1.17408 -1.03904,1.41956 -0.96544,2.3926 0.0768,1.0194 0.51696,1.89036 1.69704,3.36016 1.81832,2.26472 2.033,2.75204 2.14456,4.86772 0.0708,1.34748 0.1136,1.5742 0.43776,2.31764 0.3672,0.84264 0.3772,0.96492 0.168,2.1076 -0.1036,0.56612 0.354,1.18612 2.32624,3.1534 1.54224,1.53824 1.70652,1.74224 2.24092,2.7826 0.65812,1.28116 1.27992,2.12036 1.81376,2.44748 0.3184,0.1952 0.46588,0.214 1.08752,0.1416 0.3956,-0.0464 0.79376,-0.1168 0.885,-0.1568 0.1192,-0.0524 0.2436,0.0748 0.44148,0.45356 0.1516,0.2896 0.48008,0.7506 0.73008,1.0244 0.2496,0.2736 0.48132,0.60612 0.51404,0.73832 0.062,0.2496 -0.0436,0.2132 -1.87204,-0.65276 -0.3488,-0.1652 -0.58796,-0.032 -0.58796,0.326 0,0.1692 0.1244,0.92016 0.2768,1.66856 0.152,0.74836 0.2768,1.7296 0.2768,2.18036 0,0.7492 0.028,0.84484 0.304,1.11324 0.3896,0.376 1.93304,1.10788 2.546,1.2074 0.81564,0.1324 0.83532,0.66968 0.0436,1.1936 -0.48608,0.3216 -0.66396,0.79376 -0.51968,1.37924 0.1112,0.45292 0.73792,1.53004 1.39956,2.40684 1.4124,1.87184 2.75344,3.87644 2.75344,4.11572 0,0.3816 0.599,0.96752 1.82904,1.78964 l 1.09596,0.73244 -0.036,0.5194 c -0.032,0.47468 0.008,0.5618 0.42456,1.01476 0.2512,0.2728 0.64068,0.58656 0.86536,0.69772 0.3372,0.1656 0.40264,0.252 0.3748,0.49408 -0.02,0.1616 0.0436,0.59108 0.1384,0.9564 0.2132,0.82176 0.2156,1.75924 0.008,2.12572 -0.3504,0.61276 -0.0708,1.03572 1.06312,1.61044 0.65152,0.3304 0.86332,0.3352 1.70632,0.04 0.81484,-0.2868 1.4294,-0.2448 2.31028,0.1588 0.48524,0.2216 0.82004,0.294 1.35564,0.294 0.8786,0 1.18508,0.15 2.19384,1.0764 0.42592,0.3912 0.94864,0.80092 1.1616,0.911 0.68404,0.3532 1.8952,0.67104 2.98076,0.78092 0.92472,0.0932 1.0884,0.142 1.30616,0.3904 0.1504,0.1712 0.2488,0.4274 0.2488,0.64776 0,0.55684 0.2024,1.01728 0.5084,1.1566 0.1524,0.0688 0.5852,0.1268 0.9626,0.1284 1.13328,0.004 2.2388,0.64944 4.00452,2.33768 1.37192,1.31156 1.7384,2.00472 1.79516,3.39572 0.0452,1.10844 0.2412,1.59952 0.71672,1.79652 0.2948,0.122 0.3212,0.1728 0.2592,0.50136 -0.0536,0.2872 -0.016,0.41784 0.1724,0.60684 0.2344,0.2352 0.292,0.2384 2.18924,0.1764 1.08248,-0.04 2.85788,-0.1904 3.99504,-0.3452 v 2.8e-4 c 1.12568,-0.1532 3.6646,-0.4296 5.64212,-0.61264 1.97756,-0.1824 3.77596,-0.3892 3.99656,-0.45804 0.304,-0.094 0.4992,-0.0928 0.80656,0.008 0.53444,0.1772 0.66052,0.1116 0.81876,-0.41572 0.0736,-0.2468 0.2544,-0.5218 0.40816,-0.62252 0.336,-0.2208 0.3444,-0.40716 0.0452,-1.02504 -0.2576,-0.53204 -0.71212,-0.90948 -1.13724,-0.94468 -0.2556,-0.024 -0.2876,-0.0792 -0.3504,-0.63588 -0.036,-0.3364 -0.106,-0.73528 -0.1516,-0.88552 -0.0636,-0.2092 0.028,-0.47984 0.3924,-1.16612 0.68908,-1.29524 0.82772,-1.74948 0.914,-2.99676 0.0732,-1.05676 0.0992,-1.14696 0.48188,-1.66832 0.2992,-0.40752 0.51956,-0.58548 0.84636,-0.68344 0.65196,-0.1944 1.1158,-0.62648 1.1158,-1.03716 0,-0.276 -0.1588,-0.49288 -0.8604,-1.17932 -0.56652,-0.55432 -1.00228,-1.10624 -1.27616,-1.61624 -0.2288,-0.42596 -0.58764,-1.07308 -0.79776,-1.4382 -0.21,-0.3652 -0.3828,-0.80828 -0.3832,-0.98484 -0.002,-0.41232 -0.1672,-0.573 -5.14388,-4.99332 -4.7252,-4.19692 -6.94116,-6.17024 -7.46928,-6.65116 -0.2132,-0.194 -0.49228,-0.44344 -0.62056,-0.55468 -0.4526,-0.3924 -1.8822,-1.661 -3.91052,-3.47012 -1.12828,-1.00636 -3.86852,-3.4428 -6.0894,-5.4144 -2.22092,-1.9716 -4.06288,-3.61264 -4.09332,-3.64692 -0.032,-0.036 -0.47848,-0.43812 -0.99572,-0.89732 -0.51716,-0.46068 -2.04804,-1.82156 -3.40188,-3.02568 l -2.46152,-2.18928 -0.002,-1.84288 c -0.004,-3.86352 -0.3296,-24.04448 -0.3904,-24.14268 -0.04,-0.0628 -5.3204,-0.1032 -13.49668,-0.1032 z"
       id="path6484"
       inkscape:connector-curvature="0"
       sodipodi:nodetypes="ccccccccccsccsccccccccscccccccscccccccccccsccccsccsccccccccccccccccccccsscccsccssccscccsc"
       inkscape:export-filename="/home/mollineaux/repos/commongndca/img/commongnd.png"
       inkscape:export-xdpi="468.89999"
       inkscape:export-ydpi="468.89999" />
    <rect
       transform="rotate(-13.811147)"
       style="opacity:1;fill:#f3f3f3;fill-opacity:1;stroke:#29abe2;stroke-width:4.00049973;stroke-miterlimit:4;stroke-dasharray:none;stroke-opacity:1"
       id="rect6466"
       width="4.5152984"
       height="1.8305264"
       x="126.62597"
       y="225.89494"
       inkscape:export-filename="/home/mollineaux/repos/commongndca/img/commongnd.png"
       inkscape:export-xdpi="468.89999"
       inkscape:export-ydpi="468.89999" />
    <path
       sodipodi:nodetypes="cscsscccccccscscscccssssssccccccccccccccccccccssccccccccccccscccscscccssccccccsccccccccccscccccccccsccccccccccccccsscccccscccccccccssccccccccscccccccccsccsssccsscccccccccsccccccccccccccscscscscccscccccccsssscssscccscccccccccccccsccsccssccscccscscscscccccsccccccsccscccscscccscccccccccccccccsccccscsccccscscccccccccccccccccccccssccccsscccccsccccccccsccccccccsccccscccscccccccscccssc"
       inkscape:connector-curvature="0"
       clip-path="url(#clipPath6456)"
       id="path6445"
       transform="matrix(1.0583333,0,0,1.0583333,-344.84081,-464.57134)"
       d="m 461.52539,547.31445 c -0.15383,0 -0.24219,1.74169 -0.24219,4.73828 v 4.73829 h -0.58593 c -0.90182,0 -1.35743,0.24957 -1.35743,0.74609 0,0.24831 -0.21906,0.56784 -0.48632,0.71094 -0.47575,0.25474 -0.48547,0.51562 -0.49805,12.46093 l -4.19048,0.0991 c 0,0 1.38567,3.26954 1.09844,-3.59159 l -0.17578,-4.71875 h -2.4004 -2.40039 v 1.42773 c 0,0.97289 -0.1168,1.52438 -0.36523,1.73047 -0.32258,0.26797 -0.36328,-0.53532 -0.36328,-6.99804 0,-6.31374 -2.66174,11.23655 -2.99195,10.90652 -0.20996,-0.21014 -0.48332,-0.38281 -0.60743,-0.38281 -0.12415,0 -0.22881,-0.90153 -0.23437,-2.00391 -0.008,-1.48301 -0.12893,-2.22636 -0.4668,-2.85546 -0.37787,-0.70387 -0.48703,-0.77574 -0.625,-0.42383 -0.13247,0.33789 -0.45949,0.42383 -1.59765,0.42383 -1.11075,0 -1.43164,0.0833 -1.43164,0.36523 0,0.20031 -0.10847,0.36328 -0.24219,0.36328 -0.13361,0 -0.24414,-0.16259 -0.24414,-0.36328 0,-0.20031 -0.16289,-0.36523 -0.36328,-0.36523 -0.31499,0 -0.36524,0.89136 -0.36524,6.56054 v 6.56055 h -0.60156 -0.60156 l -0.0664,4.07031 -0.0664,4.06836 -0.65429,0.0762 c -0.50502,0.0582 -0.6702,0.22335 -0.72852,0.72852 -0.0542,0.46915 -0.23406,0.67734 -0.63672,0.73437 l -0.56054,0.0801 0.0469,-8.70508 c 0.0257,-4.78767 0.0326,-9.06171 0.0156,-9.49609 l -0.0332,-0.78906 h -3.40039 -3.40234 v 3.15625 3.15429 l -1.39649,-0.0371 c -2.02185,-0.0552 -2.44922,0.24912 -2.53906,1.80859 l -0.0742,1.27344 -1.63867,0.0723 c -1.20816,0.0529 -1.64062,0.15973 -1.64062,0.41016 0,0.45811 -0.9501,1.09765 -1.63282,1.09765 -0.54534,0 -0.5557,0.0454 -0.60742,3.21875 -0.051,3.13422 -0.0552,3.09968 -0.18164,-1.26953 l -0.13086,-4.48632 -1.1875,-0.44141 c -0.89873,-0.33336 -1.72992,-0.42337 -3.40234,-0.37109 l -2.21289,0.0684 -0.1211,3.76758 c -0.10261,3.19193 -0.15097,3.54766 -0.31054,2.33594 -0.10318,-0.78622 -0.1132,-3.91708 -0.0234,-6.95703 0.18765,-6.28891 0.36502,-5.74251 -2.03906,-6.30664 -0.77787,-0.18255 -1.4208,-0.50148 -1.63867,-0.8125 -0.28018,-0.40014 -0.42257,-0.44671 -0.65235,-0.2168 -0.19514,0.19502 -1.21585,0.29297 -3.03906,0.29297 h -2.74609 v 6.19727 6.19531 h -0.75 c -0.54724,0 -0.78643,0.13076 -0.87891,0.48437 -0.11131,0.42652 -0.33268,0.48633 -1.80078,0.48633 h -1.67188 v -1.57812 -1.58008 h -1.09375 c -1.06582,0 -1.09375,-0.0187 -1.09375,-0.76953 0,-1.57901 -0.5754,-4.00741 -1.22851,-5.1836 -0.73353,-1.32124 -1.10121,-2.51723 -1.32813,-4.3164 -0.19143,-1.51786 -0.51451,-1.27573 -0.64844,0.48632 -0.0752,0.98465 -0.3908,1.97783 -1.0625,3.34376 l -0.95507,1.94531 -0.0781,5.2832 c -0.0745,5.03191 -0.0998,5.28516 -0.54687,5.28516 -0.44633,0 -0.46895,-0.21859 -0.47657,-4.55469 -0.004,-2.50553 -0.11659,-5.32238 -0.24804,-6.25781 -0.13191,-0.93547 -0.29748,-2.30215 -0.36914,-3.03711 -0.072,-0.73497 -0.2741,-1.66352 -0.44922,-2.06446 -0.90752,-2.07715 -1.33987,-3.26322 -1.55078,-4.25195 l -0.23243,-1.09375 -0.0312,1.14063 c -0.017,0.62683 0.0819,1.20644 0.21485,1.28906 0.43357,0.26797 0.25744,0.56548 -0.42578,0.7207 -0.57118,0.1304 -0.74758,0.39204 -1.21485,1.80664 -0.30066,0.91023 -0.54687,1.8704 -0.54687,2.13281 0,0.44486 -0.13768,0.46866 -2.03516,0.36915 l -2.03711,-0.10547 -1.72265,1.79101 -1.72071,1.78907 -0.008,5.13476 -0.008,5.13672 -1.39649,0.20312 c -2.11175,0.3069 -2.80543,0.25987 -3.37695,-0.22656 -0.34337,-0.29253 -0.57523,-0.35556 -0.68164,-0.18359 -0.0886,0.14362 -0.3734,0.26172 -0.63281,0.26172 -0.45122,0 -0.47289,-0.2217 -0.4961,-5.16211 -0.0132,-2.83971 -0.10023,-5.43694 -0.19336,-5.76953 -0.0918,-0.3326 -0.54582,-0.85786 -1.00781,-1.16797 -0.46214,-0.3103 -0.89975,-0.80294 -0.97265,-1.09571 -0.19219,-0.77249 -0.79244,-0.65173 -0.98047,0.19727 -0.3817,1.72297 -0.91861,2.46596 -1.31641,1.82227 -0.20145,-0.3258 -1.1718,-0.30664 -2.72656,0.0547 l -1.2832,0.29883 v 1.14453 1.14453 l -0.91016,0.0762 -0.91211,0.0762 -0.0684,3.32617 c -0.0624,3.06599 -0.10294,3.33833 -0.54492,3.47852 -0.4115,0.13077 -0.48047,0.37246 -0.48047,1.71484 0,0.85958 -0.0992,1.5625 -0.22266,1.5625 -0.12302,0 -0.40659,-0.54737 -0.6289,-1.2168 -0.22235,-0.66943 -0.60624,-1.32471 -0.85352,-1.45703 -0.50309,-0.2691 -2.24555,-0.31485 -3.11719,-0.082 -0.64582,0.17272 -1.40113,1.69445 -1.65039,3.32422 -0.0858,0.55616 -0.3025,1.30522 -0.48437,1.66601 -0.24609,0.48828 -0.33203,1.90379 -0.33203,5.5293 v 4.87109 h -0.72852 -0.72851 v -2.04492 -2.04297 l -0.95704,-0.16211 c -0.80764,-0.13719 -0.96985,-0.26296 -1.0332,-0.81054 -0.0648,-0.55858 -0.2024,-0.65972 -0.98633,-0.72461 l -0.91211,-0.0762 v 3.78125 c 0,2.32664 -0.09,3.78125 -0.23828,3.78125 -0.15175,0 -0.26417,-3.21177 -0.30469,-8.79493 l -0.0645,-8.79296 -1.69922,-0.31446 c -1.9374,-0.35981 -3.14033,-0.21724 -3.80859,0.45117 -0.3631,0.36322 -0.93936,0.48778 -2.69531,0.5879 -1.22822,0.0707 -2.2897,0.18474 -2.35938,0.2539 -0.0701,0.0699 -0.16456,1.21167 -0.21094,2.53711 l -0.084,2.41016 h -1.41602 c -1.38604,0 -1.41799,-0.0168 -1.58007,-0.75586 l -0.16602,-0.75391 -0.66602,1.32031 c -0.61785,1.22499 -0.67891,1.61407 -0.83984,5.42383 -0.0947,2.25766 -0.19499,4.12866 -0.22266,4.15625 -0.0283,0.0302 -0.56811,-0.0604 -1.20117,-0.19531 l -1.15234,-0.24609 v -7.39063 -7.39062 h -1.35742 c -1.06271,0 -1.44607,-0.10505 -1.76172,-0.48633 -0.36034,-0.43484 -0.50061,-0.4573 -1.31445,-0.20313 -0.50117,0.1561 -0.91016,0.37717 -0.91016,0.48828 0,0.11074 -0.31905,0.20118 -0.70898,0.20118 -1.27953,0 -1.47852,0.19706 -1.47852,1.46679 v 1.17188 l -1.3125,0.38086 c -0.72212,0.21014 -1.41529,0.38281 -1.54102,0.38281 -0.62723,0 -1.0332,0.93663 -1.0332,2.38672 v 1.5 h -2.06641 -2.06445 v -8.25977 -8.26172 h -1.33594 -1.33593 v -1.33593 -1.33594 h -1.48243 c -1.27891,0 -1.49704,-0.0685 -1.60742,-0.49024 -0.0707,-0.26872 -0.38891,-0.55302 -0.70703,-0.63281 -0.56046,-0.14135 -0.57826,-0.22196 -0.5918,-2.60937 -0.008,-1.35527 -0.10395,-2.90101 -0.21484,-3.43555 -0.1474,-0.71002 -0.21034,-0.0556 -0.23437,2.42969 l -0.0332,3.40039 -1.33008,0.82226 -1.33203,0.82032 v 14.30273 14.30469 h -0.9707 -0.97266 v -6.68164 -6.68164 h -0.72851 c -0.65959,0 -0.72948,-0.075 -0.73242,-0.78907 -0.008,-1.69413 -0.1688,-1.88281 -1.60547,-1.88281 h -1.30664 v 1.27735 c 0,1.01484 -0.10001,1.34104 -0.48633,1.58203 -0.43055,0.26872 -0.48633,0.56642 -0.48633,2.60937 v 2.30664 h -1.33594 -1.33593 v 1.67969 c 0,1.66386 -0.009,1.68424 -0.7168,1.83984 -0.63627,0.14022 -0.72338,0.27034 -0.78906,1.17383 -0.0718,0.9826 -0.10327,1.01713 -0.98047,1.08985 l -0.90625,0.0762 -0.0664,-6.02735 -0.0644,-6.02734 -1.58008,0.0137 c -1.91977,0.0189 -3.64453,0.47659 -3.64453,0.9668 0,0.23244 -0.25114,0.35547 -0.72852,0.35547 -0.64796,0 -0.72851,-0.0812 -0.72851,-0.72852 0,-0.68511 -0.0581,-0.73047 -0.94727,-0.73047 -0.61663,0 -0.99288,0.12788 -1.08398,0.36524 -0.0881,0.22866 -0.45939,0.36328 -0.99805,0.36328 -0.69592,0 -0.85937,-0.0902 -0.85937,-0.48438 0,-0.40176 -0.15999,-0.48632 -0.9336,-0.48632 h -0.93554 l -0.15626,2.36914 c -0.0858,1.30291 -0.15744,4.74577 -0.1582,7.65234 0,3.36019 -0.0899,5.28516 -0.24414,5.28516 -0.30894,0 -0.34334,-1.2082 -0.35547,-12.75586 l -0.008,-9.47657 -1.0332,-0.0742 -1.03321,-0.0762 v -6.05859 -6.06055 h -1.79687 -1.79883 L 268.75,564.62891 c -0.0843,-0.63474 -0.14005,-2.61353 -0.12305,-4.39649 l 0.0312,-3.24219 -0.69336,-0.72265 c -0.68065,-0.71067 -0.68943,-0.76223 -0.61328,-3.17969 0.0835,-2.63758 -0.11829,-4.79883 -0.44726,-4.79883 -0.11131,0 -0.18473,1.68319 -0.16016,3.74024 0.0374,3.2595 -0.0103,3.80112 -0.38086,4.21093 -0.35977,0.39788 -0.42578,0.96294 -0.42578,3.67774 0,2.55326 -0.0809,3.3328 -0.39453,3.8125 -0.28252,0.43121 -0.36252,0.94619 -0.2793,1.8125 0.10129,1.0588 0.0597,1.21094 -0.33398,1.21094 -0.36405,0 -0.44922,-0.18783 -0.44922,-0.98047 0,-0.93468 -0.0541,-1.0036 -1.1543,-1.5 -1.16351,-0.52498 -3.25014,-0.72879 -3.625,-0.35352 -0.11112,0.1115 -0.20312,6.72597 -0.20312,14.69922 v 14.49805 l -2.36719,0.0684 -2.36914,0.0703 v 2.89258 c 0,1.66624 -0.10373,2.95642 -0.24414,3.04297 -0.15099,0.093 -0.24219,-0.39665 -0.24219,-1.30664 0,-0.80176 -0.11023,-1.5268 -0.24414,-1.60938 -0.1525,-0.0941 -0.24219,0.48486 -0.24219,1.56641 v 1.71484 h -0.83398 c -0.45903,0 -1.11615,-0.10751 -1.45899,-0.23828 l -0.62304,-0.23633 -0.0254,-7.96289 c -0.0132,-4.37972 -0.0987,-8.23624 -0.19141,-8.57031 -0.1406,-0.50729 -0.33532,-0.62127 -1.18945,-0.6836 -0.5627,-0.0404 -1.02344,-0.15078 -1.02344,-0.24414 0,-0.093 -0.33141,-0.31495 -0.73633,-0.49414 -0.58866,-0.26078 -0.80849,-0.26608 -1.09961,-0.0234 -0.26003,0.21581 -0.97938,0.26226 -2.51562,0.1621 -1.69722,-0.1096 -2.26128,-0.0617 -2.67578,0.22852 -0.44085,0.30879 -0.5896,0.31585 -0.91993,0.043 -0.30905,-0.25512 -0.41578,-0.26041 -0.49609,-0.0234 -0.0561,0.16668 -0.24196,0.30469 -0.41406,0.30469 -0.47662,0 -0.64006,1.91518 -0.60742,7.10742 0.0204,3.15534 -0.0563,4.69066 -0.23438,4.75 -0.15685,0.0522 -0.26172,-0.27544 -0.26172,-0.8164 0,-0.72186 -0.20315,-1.12358 -1.0039,-1.99219 -0.97312,-1.05574 -0.99986,-1.12648 -0.86914,-2.39258 0.0745,-0.71766 0.0334,-1.36686 -0.0898,-1.44336 -0.12397,-0.0771 -0.22461,-0.51241 -0.22461,-0.96875 0,-0.67627 -0.13492,-0.89979 -0.72851,-1.20703 -0.71063,-0.36737 -0.72852,-0.42223 -0.72852,-2.18164 0,-0.99251 0.12044,-2.06909 0.26758,-2.39258 0.19684,-0.43177 0.19418,-0.72593 -0.01,-1.10547 -0.4001,-0.74744 -0.90467,-0.6347 -1.08008,0.24219 -0.0841,0.4176 -0.15234,5.94074 -0.15234,12.27148 v 11.50977 h 155.50195 65.64258 v 45.86328 h 81.40821 v -45.86328 h 8.44921 v -13.54492 -0.004 -13.54492 l -0.71679,0.0234 c -0.39443,0.0113 -0.8733,0.14903 -1.0625,0.30664 -0.26797,0.22223 -0.41097,0.20288 -0.64844,-0.084 -0.41454,-0.49954 -0.576,-0.4705 -1.69141,0.30078 -0.72211,0.49954 -0.96769,0.8364 -0.97461,1.33594 -0.008,0.36737 -0.0941,0.66797 -0.19921,0.66797 -0.28574,0 -1.06098,-1.4049 -1.39063,-2.52148 l -0.29102,-0.98438 -0.30664,0.96289 c -0.16932,0.53019 -0.84164,1.96233 -1.49414,3.18164 -0.65253,1.21916 -1.1875,2.4916 -1.1875,2.82813 0,0.33675 -0.16296,0.67507 -0.36328,0.75195 -0.30425,0.11679 -0.36523,0.82724 -0.36523,4.30078 0,4.01677 -0.0191,4.17481 -0.54688,4.61524 -0.30047,0.25096 -0.88773,0.46034 -1.30468,0.46484 -0.84363,0.008 -0.85595,-0.035 -1.26172,-4.04883 -0.1372,-1.35704 -0.30634,-1.88664 -0.75977,-2.36914 -0.32088,-0.34167 -0.52718,-0.62109 -0.45703,-0.62109 0.0703,0 0.0414,-0.54868 -0.0644,-1.21875 -0.22413,-1.41846 -1.02165,-2.66797 -1.70118,-2.66797 -0.26116,0 -1.06148,0.61618 -1.77929,1.36914 -0.97365,1.02142 -1.34416,1.61388 -1.45899,2.33203 -0.12699,0.79442 -0.22693,0.93033 -0.57226,0.7793 -0.23018,-0.10016 -1.73233,-0.24876 -3.33594,-0.32813 l -2.91406,-0.14453 -0.0391,-1.44727 c -0.0265,-1.12002 -0.1444,22.10091 -0.51563,21.8004 -0.3326,-0.2691 -0.57143,-0.94255 -0.77734,-2.19531 -0.16366,-0.99435 -0.40189,-2.03148 -0.5293,-2.30273 -0.12737,-0.27137 -0.31355,-1.03516 -0.41602,-1.69922 l -0.1875,-1.20899 -0.1914,1.3379 c -0.10583,0.73496 -0.32944,1.49875 -0.49805,1.69921 -0.16857,0.20032 -0.36405,1.03013 -0.43359,1.84375 -0.0692,0.81355 -0.3133,1.8406 -0.54102,2.28125 -0.2279,0.44066 -0.4868,-22.11396 -0.57422,-21.23008 l -0.1582,1.60742 -1.76172,0.0703 -1.76172,0.0723 c -2.54874,7.97527 3.42397,29.3437 -0.46289,11.06016 -0.25474,-0.0669 -0.51735,-0.33074 -0.58398,-0.58594 -0.068,-0.26003 -0.3341,-0.46289 -0.60547,-0.46289 -0.44236,0 -1.99219,-1.47705 -1.99219,-1.89843 0,-0.0983 -1.15248,-0.16671 -2.56055,-0.15235 -2.3111,0.0227 -2.59474,0.0759 -2.91796,0.53711 -0.19692,0.2812 -0.65739,0.54571 -1.02344,0.58789 -0.55382,0.0639 -0.67689,0.20805 -0.74024,0.86524 -0.0571,0.59297 -0.19371,0.79101 -0.54687,0.79101 -0.2589,0 -0.4707,-0.10996 -0.4707,-0.24414 0,-0.33789 -2.1048,-0.30418 -3.08204,0.0488 l -0.80664,0.29102 v -11.66866 5.39935 l -0.97265,-0.0674 c -0.53545,0.23207 -1.2528,0.15803 -1.58008,0.0957 h -0.60547 v -2.11133 -2.69182 l -0.6543,-0.42969 c -0.62929,-0.41223 -0.6906,-0.41187 -1.51953,0.0332 l -0.86328,0.46289 -0.0664,4.1914 -0.0664,-1.23005 h -1.18164 c -1.14554,0 -1.18679,0.0278 -1.3125,0.79101 -0.31673,1.9273 -0.67769,1.82373 -0.95703,2.00693 -0.1663,0.10885 -0.79513,0.16878 -1.39649,0.13476 l -1.09375,-0.0625 -0.0664,-4.43359 -0.0664,-3.13098 h -0.84375 -0.8457 v -1.1875 c 0,-0.87938 -0.10281,-1.23021 -0.39844,-1.34375 -0.35324,-0.13606 -0.38021,5.06083 -0.23047,2.55614 0.16498,-2.75875 -0.2256,-7.82018 -0.58203,-8.22958 -0.21071,-0.24189 -2.18039,-0.28713 -2.87695,-0.0664 -0.4565,0.14552 -0.52735,0.34685 -0.52735,1.47266 0,0.71728 -0.10218,1.57117 -0.22656,1.89844 -0.12454,0.3273 -0.30483,-2.96915 -0.40039,-0.54833 -0.13625,3.45354 -0.24391,1.71407 -0.50195,1.71408 -0.2202,0 -0.33008,-0.31236 -0.33008,-0.94532 0,-0.77782 -0.0971,-0.9706 -0.54688,-1.08398 -1.06359,-0.26797 -1.24145,-1.42056 -1.33007,-8.60938 l -0.082,-6.6289 -0.59961,-0.22852 c -0.6897,-0.2623 -4.02775,-0.0968 -4.23046,0.20899 -0.0743,0.11225 -0.54575,0.1546 -1.04688,0.0937 l -0.91016,-0.11133 v -2.42578 c 0,-2.18242 -0.0459,-2.43776 -0.46289,-2.54688 -0.25489,-0.0669 -0.51694,-0.32534 -0.58203,-0.57422 -0.065,-0.24869 -0.4309,-0.52591 -0.8125,-0.61719 -1.29866,-0.31067 -1.30078,-0.32247 -1.30078,-5.11132 0,-2.81481 -0.0911,-4.46485 -0.24414,-4.46485 z"
       style="fill:#ffffff;fill-opacity:1;stroke-width:0.24296866"
       inkscape:export-filename="/home/mollineaux/repos/commongndca/img/commongnd.png"
       inkscape:export-xdpi="468.89999"
       inkscape:export-ydpi="468.89999" />
    <g
       style="fill:#39b54a;fill-opacity:1"
       id="g6349"
       transform="matrix(0.125,0,0,0.125,254.57947,164.7979)"
       inkscape:export-filename="/home/mollineaux/repos/commongndca/img/commongnd.png"
       inkscape:export-xdpi="468.89999"
       inkscape:export-ydpi="468.89999">
      <path
         sodipodi:nodetypes="cccccccscccscsscccccscscccsscccccssscscscsccccsscccsccccccccccccsccsccccscccccccccccc"
         inkscape:connector-curvature="0"
         id="path6345"
         d="m -561.53378,136.67429 c -0.99412,-2.62219 -1.92954,-5.31206 -2.59813,-8.08443 l -0.15594,-0.67557 -6.14789,0.0835 c -5.8392,0.0793 -6.28132,0.0501 -8.80541,-0.58269 -1.46164,-0.36638 -4.44346,-1.31142 -6.62627,-2.10007 -2.18282,-0.78864 -4.86172,-1.60809 -5.95313,-1.82098 -1.09141,-0.2129 -2.81781,-0.71094 -3.83646,-1.10676 -1.76217,-0.68473 -2.11922,-0.72451 -7.3547,-0.81931 l -5.50261,-0.0996 -2.69947,-1.36957 c -1.48471,-0.75326 -3.48193,-1.75913 -4.43827,-2.23526 -0.95634,-0.47613 -1.89366,-1.05227 -2.08292,-1.28032 -0.18926,-0.22804 -0.46241,-0.41463 -0.607,-0.41463 -0.14459,0 -0.81462,-0.40131 -1.48895,-0.8918 -1.70057,-1.23695 -2.57862,-1.64522 -4.3019,-2.00032 -0.81857,-0.16867 -2.06873,-0.6771 -2.77812,-1.12983 -2.54776,-6.34564 -9.27549,-12.03078 -0.80514,-17.210873 0.435,-1.040659 0.8068,-1.357079 2.0739,-1.76499 0.53406,-0.171929 1.12141,-0.493805 1.30521,-0.715277 0.74967,-0.903296 2.46272,-1.516076 4.38645,-1.569093 1.45835,-0.04019 2.12932,-0.193982 2.88563,-0.661408 0.78731,-0.48658 1.56085,-0.650621 3.84705,-0.81583 2.83909,-0.205163 4.25913,-0.635471 4.54361,-1.376825 0.16314,-0.425114 -0.14221,-1.958232 -0.61952,-3.110556 -0.28633,-0.691271 -0.246,-0.882938 0.37407,-1.777708 0.38226,-0.551596 0.69501,-1.110277 0.69501,-1.24151 0,-0.131236 -0.42757,-1.14976 -0.95016,-2.263383 -0.75493,-1.608731 -1.13407,-2.112468 -1.84514,-2.451556 -1.18691,-0.565999 -1.37267,-1.390075 -0.61139,-2.712354 1.09112,-1.895174 3.1086,-4.027517 4.1293,-4.364376 0.53,-0.174919 1.68339,-0.68842 2.56307,-1.141114 1.35947,-0.699603 1.62565,-0.955762 1.7743,-1.707491 0.0962,-0.486426 0.30673,-1.016254 0.46787,-1.177396 0.16114,-0.161142 0.29299,-0.499192 0.29299,-0.751221 0,-0.252026 0.32742,-0.692748 0.7276,-0.979379 0.40018,-0.286631 1.08004,-1.128175 1.51079,-1.870101 0.50291,-0.866196 0.96122,-1.348952 1.28065,-1.348952 0.2736,0 0.81088,-0.357187 1.19396,-0.79375 0.38307,-0.436562 0.89035,-0.79375 1.12727,-0.79375 0.23692,0 0.80572,-0.130709 1.264,-0.290467 0.81849,-0.28533 0.83323,-0.320651 0.83323,-1.997874 V 55.55208 l 0.95581,-0.399368 c 1.54241,-0.644459 3.36643,-0.769842 3.87023,-0.266041 2.06672,-3.56861 8.291,-3.967695 12.1262,-2.451941 1.51661,0.534094 5.00777,0.69718 5.00777,0.233932 0,-0.398788 2.80377,-0.317487 4.19783,0.121727 0.67437,0.212468 2.05957,0.637833 3.07821,0.945253 1.98918,0.600318 6.68149,2.950519 8.19361,4.103862 0.95657,0.729617 2.46375,2.600163 3.53403,4.386058 0.33833,0.564539 0.76788,1.026433 0.95458,1.026433 0.18669,0 1.15408,-0.424617 2.14974,-0.943594 1.58193,-0.824558 1.96511,-0.922303 3.03745,-0.774817 1.20982,0.166391 1.24802,0.1484 2.70499,-1.274056 1.52873,-1.492512 2.51796,-1.864431 3.91836,-1.473168 0.35347,0.09876 1.2674,0.191423 2.03096,0.205928 1.21464,0.02307 1.52563,0.150487 2.4861,1.018561 0.99461,0.898925 1.28691,1.011042 3.10962,1.192773 1.1065,0.110324 2.30947,0.210992 2.67327,0.223711 1.66111,0.05807 2.4829,0.327705 3.38923,1.112009 1.19593,1.034918 2.40982,1.881688 3.02625,2.111023 1.1133,0.414182 6.84655,4.252831 7.48487,5.011433 0.38701,0.459934 0.99607,1.497449 1.35346,2.30559 0.3574,0.808143 0.98687,2.005518 1.39882,2.660833 0.41195,0.655314 0.82456,1.62162 0.9169,2.147345 0.0924,0.525724 0.4037,1.169257 0.6919,1.43007 0.28819,0.260813 0.52399,0.794488 0.52399,1.185942 0,0.391454 0.22404,0.914484 0.49786,1.162291 0.58733,0.531529 1.4523,3.403547 1.23307,4.094268 -0.16544,0.521258 0.68074,1.727705 2.2713,3.238328 0.61347,0.582641 1.10499,1.408671 1.40013,2.353029 0.25014,0.800365 0.68601,1.890366 0.96859,2.422224 0.28258,0.531857 0.74892,1.911794 1.03632,3.066523 0.28739,1.154729 0.75891,2.633874 1.04781,3.286988 0.28891,0.653113 0.65133,2.309271 0.8054,3.680351 0.15406,1.37108 0.38806,3.20725 0.52,4.08037 5.685,32.22225 -19.01455,-10.759718 -51.58899,18.32016 l -2.70981,0.96269 c -1.49039,0.52947 -2.92408,0.96158 -3.18597,0.96023 -0.54311,-0.003 -2.08749,0.73799 -2.33414,1.11961 -0.25245,0.39058 0.49983,2.61107 1.01131,2.98508 0.33736,0.24669 0.43473,0.64315 0.37931,1.54439 -0.0539,0.87716 0.10531,1.56217 0.57583,2.47684 z"
         style="fill:#fdb218;fill-opacity:1;stroke-width:0.26458332" />
      <path
         sodipodi:nodetypes="cccccccccccsccccscccscscscccccccccccccccccccccsccccccsccscccccccccsccccccccscsccccscscccscsccccccscscscccsccscccccc"
         inkscape:connector-curvature="0"
         id="path6347"
         d="m -542.21078,212.47695 c -0.3657,-2.69213 -0.78368,-5.43057 -0.92885,-6.08542 -0.24686,-1.11351 -0.49352,-2.55997 -1.03773,-6.08541 -0.31005,-2.00844 -0.97459,-4.75424 -1.44823,-5.9839 -0.55684,-1.44564 -2.06621,-10.64082 -2.18043,-13.28337 l -0.84808,-10.10151 c -0.32617,-2.92799 -2.06983,-8.30598 -4.16051,-12.8323 -0.20164,-0.43656 -0.59472,-1.46125 -0.87351,-2.2771 -0.27878,-0.81584 -0.9813,-2.54225 -1.56114,-3.83646 -0.57985,-1.2942 -1.39062,-3.24607 -1.80171,-4.33748 -0.41109,-1.0914 -0.89309,-2.2225 -1.07111,-2.51354 -0.17801,-0.29104 -0.67639,-1.5412 -1.1075,-2.77812 -0.72243,-2.07276 -1.36162,-3.65068 -2.30413,-5.68802 -0.20209,-0.43685 -0.53885,-1.33006 -0.74835,-1.9849 -0.8719,-2.72538 -1.70364,-5.46638 -1.84659,-6.08542 -0.15168,-0.65684 -0.17406,-0.66161 -3.2073,-0.68414 -1.68,-0.0125 -3.13487,-0.103 -3.23304,-0.20117 -0.0982,-0.0982 0.0333,-0.33336 0.29218,-0.52265 0.41212,-0.30135 0.35212,-0.33032 -0.48233,-0.2329 -1.07484,0.12548 -1.15126,0.24141 -0.48999,0.74338 0.39407,0.29914 0.0287,0.35274 -2.45314,0.3599 -3.50078,0.0101 -7.10043,-0.82343 -12.54172,-2.90415 -1.89968,-0.72641 -3.76309,-1.32076 -4.14092,-1.32076 -0.45256,0 -0.96673,-0.31599 -1.50683,-0.92604 -0.45092,-0.50933 -1.01762,-0.92604 -1.25933,-0.92604 -0.24171,0 -0.66629,-0.251 -0.94351,-0.55777 -0.27721,-0.30677 -1.05188,-0.83559 -1.72149,-1.17516 -0.6696,-0.33957 -2.00604,-1.15728 -2.96985,-1.81713 -2.03948,-1.39629 -3.09445,-1.87487 -4.70317,-2.13357 -1.22823,-0.19751 -6.70585,-2.61533 -7.38139,-3.25814 -0.34619,-0.32942 -0.27861,-0.35279 0.52917,-0.18303 0.50932,0.10703 1.75948,0.21843 2.77812,0.24755 1.01865,0.0291 2.50693,0.24602 3.30729,0.48202 0.80037,0.236 2.16959,0.51101 3.04271,0.61113 0.87313,0.10013 1.88516,0.29513 2.24896,0.43334 1.66468,0.63243 8.26895,1.61806 13.75833,2.05331 1.96453,0.15577 4.22672,0.39426 5.02709,0.52998 2.46009,0.41717 7.03061,0.62374 7.5365,0.34063 0.40678,-0.22765 0.21855,-0.50489 -1.48034,-2.18036 -1.07051,-1.05575 -2.2287,-2.02688 -2.57375,-2.15807 -0.49531,-0.18831 -0.59397,-0.37158 -0.46871,-0.87065 0.13052,-0.52002 -0.0142,-0.7422 -0.81594,-1.25279 -1.79516,-1.14324 -2.0628,-1.27431 -2.61021,-1.27823 -0.29961,-0.002 -0.77586,-0.1787 -1.05834,-0.39236 -0.45953,-0.34757 -0.46542,-0.38934 -0.0559,-0.39687 0.25171,-0.005 0.90656,0.1611 1.45521,0.36828 1.26147,0.47636 3.51108,0.78733 3.51108,0.48535 0,-0.12579 -0.65108,-0.836 -1.44684,-1.57826 -1.16678,-1.08832 -1.37734,-1.40723 -1.08779,-1.64754 0.25606,-0.2125 0.69007,-0.22166 1.51299,-0.0319 1.90778,0.43989 1.99082,0.40467 2.17255,-0.92121 0.10201,-0.74424 0.0459,-1.39016 -0.14773,-1.70019 -0.23917,-0.38298 -0.23962,-0.65933 -0.002,-1.18103 0.17067,-0.37459 0.41527,-0.68106 0.54354,-0.68106 0.12827,0 1.58934,1.33945 3.24681,2.97656 3.56371,3.51991 4.17491,3.99172 4.65496,3.59332 0.18866,-0.15657 0.34301,-0.39767 0.34301,-0.53576 0,-0.1381 0.18264,-0.43372 0.40586,-0.65694 0.22759,-0.2276 0.33766,-0.62074 0.25058,-0.89509 -0.0854,-0.26907 0.029,-0.77043 0.25418,-1.11412 0.36048,-0.55017 0.36316,-0.68609 0.0224,-1.13654 -0.21287,-0.2814 -0.39082,-0.73845 -0.39545,-1.01567 -0.008,-0.49345 0.003,-0.4936 0.54097,-0.007 1.25564,1.13633 3.97743,7.02199 3.74673,8.10202 -0.0526,0.24607 -0.59495,0.63811 -1.20531,0.87121 -0.68134,0.26021 -1.2831,0.72587 -1.55881,1.20625 -0.24697,0.43034 -0.62516,0.78243 -0.8404,0.78243 -0.47987,0 -0.78672,0.87096 -0.5593,1.5875 0.20475,0.64512 0.72493,0.67314 1.61915,0.0872 0.56644,-0.37114 0.81417,-0.39144 1.54628,-0.12671 0.55438,0.20047 1.10014,0.23071 1.49901,0.0831 0.34497,-0.1277 0.78006,-0.17849 0.96685,-0.11287 0.18679,0.0656 0.51949,-0.03 0.73933,-0.21241 0.33001,-0.27388 0.46956,-0.23199 0.80032,0.24023 0.57036,0.8143 2.24419,0.52548 3.78654,-0.65337 0.64235,-0.49096 1.39431,-0.89266 1.67104,-0.89266 0.27673,0 0.70494,-0.108 0.95158,-0.24 0.67281,-0.36007 1.89802,-0.0448 1.89802,0.48843 0,0.44921 1.61776,1.67423 2.63907,1.99838 0.59229,0.18799 0.65776,0.44258 0.29066,1.13022 -0.13489,0.25269 -0.31096,0.67093 -0.39125,0.92944 -0.0803,0.25851 -0.6843,0.70077 -1.34223,0.98279 -0.94646,0.4057 -1.19625,0.64609 -1.19625,1.15123 0,0.35116 -0.17859,0.78669 -0.39687,0.96784 -0.21828,0.18116 -0.39688,0.65631 -0.39688,1.0559 0,0.6476 -0.115,0.74194 -1.05872,0.86852 -0.58229,0.0781 -1.74315,0.0812 -2.57968,0.007 -1.40291,-0.12471 -1.60082,-0.0714 -2.54954,0.68658 -0.56571,0.45198 -1.2433,0.82179 -1.50574,0.82179 -0.71206,0 -0.81153,0.37856 -0.23026,0.87626 0.61992,0.53079 0.66808,0.97582 0.1056,0.97582 -0.49198,0 -2.03674,0.76425 -2.26801,1.12206 -0.25244,0.39059 0.49983,2.61108 1.01131,2.98509 0.33737,0.24668 0.43474,0.64314 0.37932,1.54438 -0.0539,0.87717 0.10531,1.56217 0.57582,2.47684 0.68434,1.33035 1.14809,2.55707 1.49697,3.95984 0.20523,0.82515 0.71357,2.02374 2.00999,4.73927 0.3543,0.74215 0.64419,1.43343 0.64419,1.53619 0,0.10277 0.35719,0.90676 0.79375,1.78666 0.43657,0.8799 0.79375,1.72708 0.79375,1.88263 0,0.55416 2.7875,7.29529 3.95914,9.57455 0.29633,0.57647 0.53878,1.22236 0.53878,1.43532 0,0.47548 1.29816,4.29445 1.58415,4.6603 0.11376,0.14552 0.2877,0.6813 0.38654,1.19062 0.0988,0.50933 0.39631,1.52136 0.66103,2.24896 0.46844,1.28753 0.69626,2.07743 1.36043,4.71679 0.17677,0.70247 0.31175,2.48841 0.29995,3.96875 -0.0419,5.25285 0.87875,13.25649 1.94888,16.94328 0.20548,0.70794 0.3736,1.53739 0.3736,1.84324 0,0.30584 0.16633,1.03631 0.36962,1.62326 0.20328,0.58695 0.50797,1.90062 0.67707,2.91926 0.40494,2.43921 1.09751,5.22834 1.37639,5.54302 0.12252,0.13825 0.22197,0.91216 0.22101,1.7198 -0.002,1.73966 0.44756,5.27055 0.86084,6.7601 z"
         style="fill:#29abe2;fill-opacity:1;stroke:none;stroke-width:0.26458332" />
    </g>
    <g
       transform="matrix(0.20481152,0,0,0.20481152,166.58943,200.99738)"
       id="g6405"
       inkscape:export-filename="/home/mollineaux/repos/commongndca/img/commongnd.png"
       inkscape:export-xdpi="468.89999"
       inkscape:export-ydpi="468.89999">
      <path
         sodipodi:nodetypes="ccccccccsccsscccccccccccscsccccccscccccccccccccccscccccccccccccc"
         inkscape:connector-curvature="0"
         id="path6331"
         d="m 11.93056,-139.67981 -2.4474,-0.26529 c -2.23832,-0.0875 -6.56658,-0.89546 -7.51437,-1.40269 -0.43654,-0.23363 -0.83249,-0.16003 -1.98996,0.36988 -2.65012,1.21326 -5.76128,1.99325 -9.05428,2.26996 -6.91343,0.58095 -9.98628,-0.50539 -12.80287,-4.5262 -1.53331,-2.18888 -3.40008,-6.26846 -3.73407,-8.16029 -0.36322,-2.05746 -0.11184,-5.41188 0.56587,-7.55074 0.27112,-0.8557 0.49294,-1.75998 0.49294,-2.00951 0,-0.24953 0.24191,-0.67263 0.53758,-0.94021 0.52287,-0.47318 0.56997,-0.47078 1.7198,0.0879 0.96514,0.4689 1.18221,0.50212 1.18221,0.18092 0,-0.22876 0.2432,-0.39344 0.58107,-0.39344 0.54192,0 0.52266,-0.0603 -0.2863,-0.89488 -0.78057,-0.80537 -0.83217,-0.95122 -0.51557,-1.45816 0.71742,-1.14876 1.63407,-0.88998 3.54727,1.00142 0.82024,0.81086 1.87219,1.35486 2.59075,1.33973 0.47514,-0.01 0.38161,-0.16655 -0.58777,-0.98371 -0.63405,-0.53451 -1.39753,-0.97564 -1.69659,-0.9803 -0.87516,-0.0136 -0.81844,-0.58458 0.0758,-0.76344 0.54419,-0.10884 1.03865,-0.0198 1.47381,0.26528 0.36017,0.23599 0.6809,0.38318 0.71273,0.32709 0.0318,-0.0561 0.18492,-0.33215 0.34015,-0.61347 0.82923,-1.50262 1.8233,-1.14801 3.68281,1.31375 1.10739,1.46602 1.98806,2.27119 1.98806,1.81761 0,-0.28348 -1.47696,-2.09379 -2.31511,-2.8376 -0.47294,-0.41973 -0.85989,-0.9046 -0.85989,-1.07751 0,-0.17291 0.53067,-0.83518 1.17924,-1.47173 0.66255,-0.65023 1.25558,-1.51488 1.35348,-1.97331 0.0958,-0.44879 0.30266,-0.97511 0.45963,-1.1696 0.15701,-0.19449 0.35161,-0.84477 0.43249,-1.44505 0.17751,-1.31759 1.21865,-2.14508 3.04319,-2.41869 0.88749,-0.13308 1.32585,-0.36873 1.7227,-0.92607 0.73977,-1.03891 2.62541,-1.86802 4.24841,-1.86802 0.73282,0 2.01404,-0.25106 2.84716,-0.55791 1.43851,-0.52984 2.74648,-0.84958 4.82203,-1.17877 0.50932,-0.0808 2.83104,0.0516 5.15938,0.29426 2.32833,0.24262 5.30489,0.46871 6.61458,0.50242 1.30969,0.0337 3.56248,0.15865 5.00618,0.27764 2.51047,0.2069 2.67089,0.2578 3.67848,1.16695 0.57943,0.52284 1.21322,1.33204 1.40837,1.79823 0.28499,0.68075 0.55047,0.87958 1.34861,1.01002 0.54658,0.0893 1.32077,0.22328 1.72045,0.29769 0.39968,0.0744 1.12321,0.004 1.60782,-0.15552 0.74708,-0.24656 1.15983,-0.18874 2.71291,0.38 1.00748,0.36895 2.58212,1.05598 3.49919,1.52675 l 1.66743,0.85595 0.52959,-0.66146 c 0.29126,-0.3638 0.70062,-0.86982 0.90967,-1.12448 0.20904,-0.25466 0.57517,-0.46302 0.81362,-0.46302 0.36676,0 0.40677,0.20201 0.25966,1.311 -0.0957,0.72105 -0.33621,1.77097 -0.53456,2.33314 -0.24885,0.70531 -0.27962,1.16691 -0.0993,1.48913 0.19984,0.35707 0.11811,0.61943 -0.34727,1.11479 -0.45,0.47902 -0.61955,0.99309 -0.65064,1.97286 -0.0296,0.93362 -0.20386,1.4978 -0.58986,1.90987 -0.64865,0.6925 -1.1797,1.9814 -0.96168,2.33415 0.0849,0.13734 -0.21193,0.59184 -0.65958,1.00999 0.741348,3.2655 -1.582478,0.46947 -3.4567,3.97039 -0.57772,1.11902 -7.50051,8.04973 -10.30777,10.31954 -3.24046,2.62006 -6.82136,4.21082 -10.47448,4.65312 -0.86794,0.10509 -1.71821,0.3028 -1.88947,0.43937 l -0.48223,2.01788 z"
         style="fill:#fdb218;fill-opacity:1;stroke-width:0.26458332" />
      <path
         sodipodi:nodetypes="ccccccccscscccccccsccscsccccccccccc"
         inkscape:connector-curvature="0"
         id="path6401"
         d="m 7.23678,-93.23261 c 0.1814,-5.70618 0.8821,-15.17785 1.27194,-17.19324 0.12665,-0.65484 0.54091,-2.73843 0.92059,-4.6302 1.99019,-9.91667 3.42757,-24.05153 2.50383,-24.62243 -0.15992,-0.0988 -1.32078,-0.22417 -2.57969,-0.27854 -1.25891,-0.0544 -2.94378,-0.25863 -3.74414,-0.45393 l -1.45521,-0.35507 0.7276,-0.35051 c 0.40018,-0.19278 0.72761,-0.51149 0.72761,-0.70825 0,-0.38355 -2.52707,-1.60972 -3.83646,-1.86151 -1.69643,-0.32621 -3.00908,-1.39997 -1.71146,-1.39997 0.29565,0 1.22563,-0.23181 2.06666,-0.51513 0.96594,-0.3254 2.35146,-0.53062 3.76195,-0.5572 1.22807,-0.0232 2.6203,-0.15793 3.09388,-0.29952 0.62955,-0.18823 1.19854,-0.15267 2.11667,0.13227 1.7712,0.54972 9.38043,0.44102 10.5175,-0.15025 1.21407,-0.6313 1.90894,-1.54182 2.10796,-2.76213 0.0995,-0.61008 0.35021,-1.24974 0.55711,-1.42146 0.20691,-0.17171 0.37619,-0.45309 0.37619,-0.62529 0,-0.17219 0.30593,-0.72315 0.67984,-1.22437 0.37391,-0.50121 0.84818,-1.30807 1.05394,-1.79301 0.58984,-1.39013 3.82247,-4.19388 3.82247,-3.31533 0,0.29059 -2.29026,3.65986 -2.74344,4.03597 -0.23736,0.19698 -0.43156,0.64124 -0.43156,0.98722 0,0.79299 0.58121,0.81807 1.95053,0.0842 0.55914,-0.29969 1.06304,-0.49847 1.11977,-0.44174 0.25985,0.25983 -0.80708,2.61677 -1.60822,3.55271 -1.6919,1.9766 -2.45067,4.11837 -1.30302,3.67797 0.82323,-0.31591 0.28337,0.34607 -1.15125,1.41167 -2.79726,2.07771 -6.19816,3.46425 -9.4683,3.86018 -0.86794,0.10509 -1.71821,0.3028 -1.88947,0.43937 -0.17129,0.13657 -0.3883,1.04462 -0.48223,2.01788 -0.53496,5.54262 -2.46679,19.43008 -2.91452,20.95185 -0.15785,0.53648 -1.15874,6.33123 -1.4624,8.46667 -0.1111549,5.18514 -2.7594517,20.524833 -2.59467,15.34112 z"
         style="fill:#29abe2;fill-opacity:1;stroke-width:0.26458332" />
    </g>
    <path
       style="fill:#29abe2;fill-opacity:1;stroke:none;stroke-width:1.74135745px;stroke-linecap:butt;stroke-linejoin:miter;stroke-opacity:1"
       d="m 186.25599,186.36038 c 0.128,-0.51512 1.42948,-0.45008 1.00372,0.1204 -0.3372,0.114 -0.66996,-0.0876 -1.00372,-0.1204 z"
       id="path6552"
       inkscape:connector-curvature="0"
       inkscape:export-filename="/home/mollineaux/repos/commongndca/img/commongnd.png"
       inkscape:export-xdpi="468.89999"
       inkscape:export-ydpi="468.89999" />
  </g>
</svg>
